<svg width="4180" height="2370" xmlns="http://www.w3.org/2000/svg" xmlns:xlink="http://www.w3.org/1999/xlink" xml:space="preserve" overflow="hidden"><g transform="translate(-187 -91)"><g><path d="M192.5 365.357 739.406 365.357 739.406 499.19 192.5 499.19Z" fill="#59C3BB" fill-rule="evenodd" fill-opacity="1"/><path d="M739.406 365.357 1261.91 365.357 1261.91 499.19 739.406 499.19Z" fill="#59C3BB" fill-rule="evenodd" fill-opacity="1"/><path d="M192.5 499.19 739.406 499.19 739.406 633.024 192.5 633.024Z" fill="#E09FB9" fill-rule="evenodd" fill-opacity="1"/><path d="M739.406 499.19 1261.91 499.19 1261.91 633.024 739.406 633.024Z" fill="#EAF5F3" fill-rule="evenodd" fill-opacity="1"/><path d="M192.5 633.024 739.406 633.024 739.406 766.857 192.5 766.857Z" fill="#DEF3F1" fill-rule="evenodd" fill-opacity="1"/><path d="M739.406 633.024 1261.91 633.024 1261.91 766.857 739.406 766.857Z" fill="#EAF5F3" fill-rule="evenodd" fill-opacity="1"/><path d="M192.5 766.857 739.406 766.857 739.406 900.69 192.5 900.69Z" fill="#EDE7E9" fill-rule="evenodd" fill-opacity="1"/><path d="M739.406 766.857 1261.91 766.857 1261.91 900.69 739.406 900.69Z" fill="#EAF5F3" fill-rule="evenodd" fill-opacity="1"/><path d="M192.5 900.69 739.406 900.69 739.406 1034.52 192.5 1034.52Z" fill="#D06F96" fill-rule="evenodd" fill-opacity="1"/><path d="M739.406 900.69 1261.91 900.69 1261.91 1034.52 739.406 1034.52Z" fill="#EAF5F3" fill-rule="evenodd" fill-opacity="1"/><path d="M192.5 1034.52 739.406 1034.52 739.406 1168.36 192.5 1168.36Z" fill="#6DD9D1" fill-rule="evenodd" fill-opacity="1"/><path d="M739.406 1034.52 1261.91 1034.52 1261.91 1168.36 739.406 1168.36Z" fill="#EAF5F3" fill-rule="evenodd" fill-opacity="1"/><path d="M192.5 1168.36 739.406 1168.36 739.406 1302.19 192.5 1302.19Z" fill="#1BD1FF" fill-rule="evenodd" fill-opacity="1"/><path d="M739.406 1168.36 1261.91 1168.36 1261.91 1302.19 739.406 1302.19Z" fill="#EAF5F3" fill-rule="evenodd" fill-opacity="1"/><path d="M739.406 363.065 739.406 1304.48" stroke="#FFFFFF" stroke-width="4.58333" stroke-linecap="butt" stroke-linejoin="round" stroke-miterlimit="10" stroke-opacity="1" fill="none" fill-rule="evenodd"/><path d="M190.208 499.19 1264.2 499.19" stroke="#FFFFFF" stroke-width="13.75" stroke-linecap="butt" stroke-linejoin="round" stroke-miterlimit="10" stroke-opacity="1" fill="none" fill-rule="evenodd"/><path d="M190.208 633.024 1264.2 633.024" stroke="#FFFFFF" stroke-width="4.58333" stroke-linecap="butt" stroke-linejoin="round" stroke-miterlimit="10" stroke-opacity="1" fill="none" fill-rule="evenodd"/><path d="M190.208 766.857 1264.2 766.857" stroke="#FFFFFF" stroke-width="4.58333" stroke-linecap="butt" stroke-linejoin="round" stroke-miterlimit="10" stroke-opacity="1" fill="none" fill-rule="evenodd"/><path d="M190.208 900.69 1264.2 900.69" stroke="#FFFFFF" stroke-width="4.58333" stroke-linecap="butt" stroke-linejoin="round" stroke-miterlimit="10" stroke-opacity="1" fill="none" fill-rule="evenodd"/><path d="M190.208 1034.52 1264.2 1034.52" stroke="#FFFFFF" stroke-width="4.58333" stroke-linecap="butt" stroke-linejoin="round" stroke-miterlimit="10" stroke-opacity="1" fill="none" fill-rule="evenodd"/><path d="M190.208 1168.36 1264.2 1168.36" stroke="#FFFFFF" stroke-width="4.58333" stroke-linecap="butt" stroke-linejoin="round" stroke-miterlimit="10" stroke-opacity="1" fill="none" fill-rule="evenodd"/><path d="M192.5 363.065 192.5 1304.48" stroke="#FFFFFF" stroke-width="4.58333" stroke-linecap="butt" stroke-linejoin="round" stroke-miterlimit="10" stroke-opacity="1" fill="none" fill-rule="evenodd"/><path d="M1261.91 363.065 1261.91 1304.48" stroke="#FFFFFF" stroke-width="4.58333" stroke-linecap="butt" stroke-linejoin="round" stroke-miterlimit="10" stroke-opacity="1" fill="none" fill-rule="evenodd"/><path d="M190.208 365.357 1264.2 365.357" stroke="#FFFFFF" stroke-width="4.58333" stroke-linecap="butt" stroke-linejoin="round" stroke-miterlimit="10" stroke-opacity="1" fill="none" fill-rule="evenodd"/><path d="M190.208 1302.19 1264.2 1302.19" stroke="#FFFFFF" stroke-width="4.58333" stroke-linecap="butt" stroke-linejoin="round" stroke-miterlimit="10" stroke-opacity="1" fill="none" fill-rule="evenodd"/><g><text fill="#FFFFFF" fill-opacity="1" font-family="Helvetica Neue,Helvetica Neue_MSFontService,sans-serif" font-style="normal" font-variant="normal" font-weight="700" font-stretch="normal" font-size="83" text-anchor="start" direction="ltr" writing-mode="lr-tb" unicode-bidi="normal" text-decoration="none" transform="matrix(1 0 0 1 772.406 463)">Nome</text></g><g><text fill="#FFFFFF" fill-opacity="1" font-family="Helvetica Neue,Helvetica Neue_MSFontService,sans-serif" font-style="normal" font-variant="normal" font-weight="700" font-stretch="normal" font-size="83" text-anchor="start" direction="ltr" writing-mode="lr-tb" unicode-bidi="normal" text-decoration="none" transform="matrix(1 0 0 1 225.5 463)">Cidade</text></g><g><text fill="#202A32" fill-opacity="1" font-family="Helvetica Neue,Helvetica Neue_MSFontService,sans-serif" font-style="normal" font-variant="normal" font-weight="400" font-stretch="normal" font-size="83" text-anchor="start" direction="ltr" writing-mode="lr-tb" unicode-bidi="normal" text-decoration="none" transform="matrix(1 0 0 1 772.406 597)">A</text></g><g><text fill="#202A32" fill-opacity="1" font-family="Helvetica Neue,Helvetica Neue_MSFontService,sans-serif" font-style="normal" font-variant="normal" font-weight="400" font-stretch="normal" font-size="83" text-anchor="start" direction="ltr" writing-mode="lr-tb" unicode-bidi="normal" text-decoration="none" transform="matrix(1 0 0 1 225.5 597)">Curitiba</text></g><g><text fill="#202A32" fill-opacity="1" font-family="Helvetica Neue,Helvetica Neue_MSFontService,sans-serif" font-style="normal" font-variant="normal" font-weight="400" font-stretch="normal" font-size="83" text-anchor="start" direction="ltr" writing-mode="lr-tb" unicode-bidi="normal" text-decoration="none" transform="matrix(1 0 0 1 772.406 731)">B</text></g><g><text fill="#202A32" fill-opacity="1" font-family="Helvetica Neue,Helvetica Neue_MSFontService,sans-serif" font-style="normal" font-variant="normal" font-weight="400" font-stretch="normal" font-size="83" text-anchor="start" direction="ltr" writing-mode="lr-tb" unicode-bidi="normal" text-decoration="none" transform="matrix(1 0 0 1 225.5 731)">São Paulo</text></g><g><text fill="#202A32" fill-opacity="1" font-family="Helvetica Neue,Helvetica Neue_MSFontService,sans-serif" font-style="normal" font-variant="normal" font-weight="400" font-stretch="normal" font-size="83" text-anchor="start" direction="ltr" writing-mode="lr-tb" unicode-bidi="normal" text-decoration="none" transform="matrix(1 0 0 1 772.406 864)">C</text></g><g><text fill="#202A32" fill-opacity="1" font-family="Helvetica Neue,Helvetica Neue_MSFontService,sans-serif" font-style="normal" font-variant="normal" font-weight="400" font-stretch="normal" font-size="83" text-anchor="start" direction="ltr" writing-mode="lr-tb" unicode-bidi="normal" text-decoration="none" transform="matrix(1 0 0 1 225.5 864)">Manaus</text></g><g><text fill="#202A32" fill-opacity="1" font-family="Helvetica Neue,Helvetica Neue_MSFontService,sans-serif" font-style="normal" font-variant="normal" font-weight="400" font-stretch="normal" font-size="83" text-anchor="start" direction="ltr" writing-mode="lr-tb" unicode-bidi="normal" text-decoration="none" transform="matrix(1 0 0 1 772.406 998)">D</text></g><g><text fill="#202A32" fill-opacity="1" font-family="Helvetica Neue,Helvetica Neue_MSFontService,sans-serif" font-style="normal" font-variant="normal" font-weight="400" font-stretch="normal" font-size="83" text-anchor="start" direction="ltr" writing-mode="lr-tb" unicode-bidi="normal" text-decoration="none" transform="matrix(1 0 0 1 225.5 998)">Natal</text></g><g><text fill="#202A32" fill-opacity="1" font-family="Helvetica Neue,Helvetica Neue_MSFontService,sans-serif" font-style="normal" font-variant="normal" font-weight="400" font-stretch="normal" font-size="83" text-anchor="start" direction="ltr" writing-mode="lr-tb" unicode-bidi="normal" text-decoration="none" transform="matrix(1 0 0 1 772.406 1132)">E</text></g><g><text fill="#202A32" fill-opacity="1" font-family="Helvetica Neue,Helvetica Neue_MSFontService,sans-serif" font-style="normal" font-variant="normal" font-weight="400" font-stretch="normal" font-size="83" text-anchor="start" direction="ltr" writing-mode="lr-tb" unicode-bidi="normal" text-decoration="none" transform="matrix(1 0 0 1 225.5 1132)">Porto Alegre</text></g><g><text fill="#202A32" fill-opacity="1" font-family="Helvetica Neue,Helvetica Neue_MSFontService,sans-serif" font-style="normal" font-variant="normal" font-weight="400" font-stretch="normal" font-size="83" text-anchor="start" direction="ltr" writing-mode="lr-tb" unicode-bidi="normal" text-decoration="none" transform="matrix(1 0 0 1 772.406 1266)">F</text></g><g><text fill="#202A32" fill-opacity="1" font-family="Helvetica Neue,Helvetica Neue_MSFontService,sans-serif" font-style="normal" font-variant="normal" font-weight="400" font-stretch="normal" font-size="83" text-anchor="start" direction="ltr" writing-mode="lr-tb" unicode-bidi="normal" text-decoration="none" transform="matrix(1 0 0 1 225.5 1266)">Araucária</text></g><text fill="#202A32" fill-opacity="1" font-family="Helvetica Neue,Helvetica Neue_MSFontService,sans-serif" font-style="normal" font-variant="normal" font-weight="400" font-stretch="normal" font-size="110" text-anchor="start" direction="ltr" writing-mode="lr-tb" unicode-bidi="normal" text-decoration="none" transform="matrix(1 0 0 1 515.238 235)">Tabela</text><text fill="#202A32" fill-opacity="1" font-family="Helvetica Neue,Helvetica Neue_MSFontService,sans-serif" font-style="normal" font-variant="normal" font-weight="400" font-stretch="normal" font-size="110" text-anchor="start" direction="ltr" writing-mode="lr-tb" unicode-bidi="normal" text-decoration="none" transform="matrix(1 0 0 1 863.388 235)">A</text><text fill="#202A32" fill-opacity="1" font-family="Helvetica Neue,Helvetica Neue_MSFontService,sans-serif" font-style="normal" font-variant="normal" font-weight="400" font-stretch="normal" font-size="110" text-anchor="start" direction="ltr" writing-mode="lr-tb" unicode-bidi="normal" text-decoration="none" transform="matrix(1 0 0 1 1873.82 235)">Tabela</text><text fill="#202A32" fill-opacity="1" font-family="Helvetica Neue,Helvetica Neue_MSFontService,sans-serif" font-style="normal" font-variant="normal" font-weight="400" font-stretch="normal" font-size="110" text-anchor="start" direction="ltr" writing-mode="lr-tb" unicode-bidi="normal" text-decoration="none" transform="matrix(1 0 0 1 2221.97 235)">B</text><text fill="#202A32" fill-opacity="1" font-family="Helvetica Neue,Helvetica Neue_MSFontService,sans-serif" font-style="normal" font-variant="normal" font-weight="400" font-stretch="normal" font-size="110" text-anchor="start" direction="ltr" writing-mode="lr-tb" unicode-bidi="normal" text-decoration="none" transform="matrix(1 0 0 1 2837.89 235)">left_join</text><text fill="#202A32" fill-opacity="1" font-family="Helvetica Neue,Helvetica Neue_MSFontService,sans-serif" font-style="normal" font-variant="normal" font-weight="400" font-stretch="normal" font-size="110" text-anchor="start" direction="ltr" writing-mode="lr-tb" unicode-bidi="normal" text-decoration="none" transform="matrix(1 0 0 1 3247.52 235)">(A , B, by = “</text><text fill="#202A32" fill-opacity="1" font-family="Helvetica Neue,Helvetica Neue_MSFontService,sans-serif" font-style="normal" font-variant="normal" font-weight="400" font-stretch="normal" font-size="110" text-anchor="start" direction="ltr" writing-mode="lr-tb" unicode-bidi="normal" text-decoration="none" transform="matrix(1 0 0 1 3868.56 235)">Cidade</text><text fill="#202A32" fill-opacity="1" font-family="Helvetica Neue,Helvetica Neue_MSFontService,sans-serif" font-style="normal" font-variant="normal" font-weight="400" font-stretch="normal" font-size="110" text-anchor="start" direction="ltr" writing-mode="lr-tb" unicode-bidi="normal" text-decoration="none" transform="matrix(1 0 0 1 4221.48 235)">”)</text><path d="M1519.5 2008.5C1519.5 1765.49 1707.32 1568.5 1939 1568.5 2170.68 1568.5 2358.5 1765.49 2358.5 2008.5 2358.5 2251.51 2170.68 2448.5 1939 2448.5 1707.32 2448.5 1519.5 2251.51 1519.5 2008.5Z" stroke="#912F56" stroke-width="20.625" stroke-linecap="butt" stroke-linejoin="miter" stroke-miterlimit="8" stroke-opacity="1" fill="#EFCFDC" fill-rule="evenodd" fill-opacity="1"/><path d="M1938.03 1992.57 1930.61 2014.86 1945.49 2014.86 1938.07 1992.57ZM1938.19 1982.31C1939.79 1982.31 1941.06 1982.33 1942 1982.38 1942.95 1982.42 1943.68 1982.51 1944.21 1982.66 1944.74 1982.81 1945.12 1983.03 1945.34 1983.33 1945.57 1983.62 1945.77 1984.03 1945.93 1984.54L1962.14 2031.03C1962.47 2032 1962.67 2032.77 1962.75 2033.34 1962.83 2033.91 1962.72 2034.33 1962.43 2034.61 1962.13 2034.9 1961.6 2035.07 1960.85 2035.14 1960.09 2035.21 1959.05 2035.24 1957.73 2035.24 1956.35 2035.24 1955.27 2035.22 1954.5 2035.18 1953.73 2035.14 1953.15 2035.06 1952.74 2034.94 1952.34 2034.82 1952.05 2034.65 1951.89 2034.43 1951.73 2034.22 1951.59 2033.93 1951.48 2033.58L1947.96 2023.04 1928.26 2023.04 1924.94 2033.3C1924.83 2033.68 1924.69 2033.99 1924.51 2034.25 1924.34 2034.51 1924.05 2034.71 1923.66 2034.86 1923.27 2035.01 1922.72 2035.11 1922 2035.16 1921.29 2035.22 1920.35 2035.24 1919.18 2035.24 1917.94 2035.24 1916.97 2035.2 1916.27 2035.12 1915.56 2035.04 1915.08 2034.84 1914.81 2034.53 1914.54 2034.22 1914.44 2033.78 1914.52 2033.22 1914.6 2032.65 1914.81 2031.89 1915.13 2030.95L1931.3 1984.42C1931.46 1983.96 1931.65 1983.59 1931.87 1983.31 1932.09 1983.02 1932.43 1982.81 1932.9 1982.66 1933.38 1982.51 1934.03 1982.42 1934.87 1982.38 1935.71 1982.33 1936.81 1982.31 1938.19 1982.31Z" stroke="#912F56" stroke-width="8" stroke-linecap="butt" stroke-linejoin="round" stroke-miterlimit="10" stroke-opacity="1" fill="#E09FB9" fill-rule="evenodd" fill-opacity="1"/><text fill="#000000" fill-opacity="0" font-family="Arial,Arial_MSFontService,sans-serif" font-size="52.9287" direction="ltr" writing-mode="lr-tb" x="1914.5" y="2028.63">A</text><path d="M2022.5 2008.5C2022.5 1765.49 2210.09 1568.5 2441.5 1568.5 2672.91 1568.5 2860.5 1765.49 2860.5 2008.5 2860.5 2251.51 2672.91 2448.5 2441.5 2448.5 2210.09 2448.5 2022.5 2251.51 2022.5 2008.5Z" stroke="#912F56" stroke-width="20.625" stroke-linecap="butt" stroke-linejoin="miter" stroke-miterlimit="8" stroke-opacity="1" fill="none" fill-rule="evenodd"/><path d="M2433.77 2011.94 2433.77 2026.85 2441.47 2026.85C2442.96 2026.85 2444.21 2026.7 2445.22 2026.39 2446.23 2026.08 2447.11 2025.62 2447.85 2025.01 2448.6 2024.4 2449.18 2023.65 2449.6 2022.74 2450.02 2021.84 2450.22 2020.8 2450.22 2019.64 2450.22 2018.42 2450.02 2017.34 2449.62 2016.38 2449.21 2015.42 2448.62 2014.61 2447.83 2013.97 2447.05 2013.32 2446.05 2012.82 2444.83 2012.47 2443.62 2012.12 2442.04 2011.94 2440.09 2011.94ZM2433.77 1990.54 2433.77 2004.16 2439.73 2004.16C2441.27 2004.16 2442.5 2003.98 2443.42 2003.61 2444.33 2003.25 2445.1 2002.75 2445.71 2002.11 2446.31 2001.48 2446.77 2000.73 2447.06 1999.88 2447.36 1999.03 2447.51 1998.13 2447.51 1997.19 2447.51 1996.13 2447.35 1995.19 2447.02 1994.35 2446.7 1993.51 2446.21 1992.82 2445.56 1992.26 2444.92 1991.71 2444.1 1991.28 2443.11 1990.99 2442.13 1990.69 2440.81 1990.54 2439.16 1990.54ZM2426.48 1982.56 2439.65 1982.56C2442.86 1982.56 2445.58 1982.83 2447.81 1983.37 2450.04 1983.91 2451.92 1984.73 2453.45 1985.82 2454.97 1986.91 2456.14 1988.3 2456.95 1989.97 2457.76 1991.65 2458.17 1993.62 2458.17 1995.89 2458.17 1997.16 2458.01 1998.36 2457.68 1999.48 2457.36 2000.6 2456.88 2001.62 2456.26 2002.54 2455.64 2003.46 2454.88 2004.27 2453.97 2004.97 2453.07 2005.67 2452.04 2006.24 2450.87 2006.67 2452.36 2006.94 2453.73 2007.41 2454.99 2008.09 2456.24 2008.77 2457.34 2009.64 2458.27 2010.7 2459.2 2011.77 2459.94 2013.02 2460.48 2014.45 2461.02 2015.88 2461.29 2017.49 2461.29 2019.28 2461.29 2021.14 2461.03 2022.83 2460.52 2024.34 2460.01 2025.85 2459.3 2027.19 2458.39 2028.35 2457.49 2029.52 2456.41 2030.51 2455.15 2031.35 2453.89 2032.19 2452.51 2032.88 2450.99 2033.42 2449.48 2033.96 2447.87 2034.36 2446.15 2034.61 2444.44 2034.87 2442.52 2035 2440.42 2035L2426.48 2035C2425.58 2035 2424.83 2034.74 2424.23 2034.21 2423.62 2033.68 2423.31 2032.82 2423.31 2031.64L2423.31 1985.92C2423.31 1984.73 2423.62 1983.87 2424.23 1983.35 2424.83 1982.82 2425.58 1982.56 2426.48 1982.56Z" stroke="#912F56" stroke-width="8" stroke-linecap="butt" stroke-linejoin="round" stroke-miterlimit="10" stroke-opacity="1" fill="#E09FB9" fill-rule="evenodd" fill-opacity="1"/><text fill="#000000" fill-opacity="0" font-family="Arial,Arial_MSFontService,sans-serif" font-size="52.4424" direction="ltr" writing-mode="lr-tb" x="2423.31" y="2028.44">B</text><path d="M1553.39 365.357 2100.3 365.357 2100.3 499.19 1553.39 499.19Z" fill="#59C3BB" fill-rule="evenodd" fill-opacity="1"/><path d="M2100.3 365.357 2622.8 365.357 2622.8 499.19 2100.3 499.19Z" fill="#59C3BB" fill-rule="evenodd" fill-opacity="1"/><path d="M1553.39 499.19 2100.3 499.19 2100.3 633.024 1553.39 633.024Z" fill="#E09FB9" fill-rule="evenodd" fill-opacity="1"/><path d="M2100.3 499.19 2622.8 499.19 2622.8 633.024 2100.3 633.024Z" fill="#EAF5F3" fill-rule="evenodd" fill-opacity="1"/><path d="M1553.39 633.024 2100.3 633.024 2100.3 766.857 1553.39 766.857Z" fill="#DEF3F1" fill-rule="evenodd" fill-opacity="1"/><path d="M2100.3 633.024 2622.8 633.024 2622.8 766.857 2100.3 766.857Z" fill="#EAF5F3" fill-rule="evenodd" fill-opacity="1"/><path d="M1553.39 766.857 2100.3 766.857 2100.3 900.69 1553.39 900.69Z" fill="#EDE7E9" fill-rule="evenodd" fill-opacity="1"/><path d="M2100.3 766.857 2622.8 766.857 2622.8 900.69 2100.3 900.69Z" fill="#EAF5F3" fill-rule="evenodd" fill-opacity="1"/><path d="M1553.39 900.69 2100.3 900.69 2100.3 1034.52 1553.39 1034.52Z" fill="#D06F96" fill-rule="evenodd" fill-opacity="1"/><path d="M2100.3 900.69 2622.8 900.69 2622.8 1034.52 2100.3 1034.52Z" fill="#EAF5F3" fill-rule="evenodd" fill-opacity="1"/><path d="M1553.39 1034.52 2100.3 1034.52 2100.3 1168.36 1553.39 1168.36Z" fill="#6DD9D1" fill-rule="evenodd" fill-opacity="1"/><path d="M2100.3 1034.52 2622.8 1034.52 2622.8 1168.36 2100.3 1168.36Z" fill="#EAF5F3" fill-rule="evenodd" fill-opacity="1"/><path d="M1553.39 1168.36 2100.3 1168.36 2100.3 1302.19 1553.39 1302.19Z" fill="#7C97AB" fill-rule="evenodd" fill-opacity="1"/><path d="M2100.3 1168.36 2622.8 1168.36 2622.8 1302.19 2100.3 1302.19Z" fill="#EAF5F3" fill-rule="evenodd" fill-opacity="1"/><path d="M2100.3 363.065 2100.3 1304.48" stroke="#FFFFFF" stroke-width="4.58333" stroke-linecap="butt" stroke-linejoin="round" stroke-miterlimit="10" stroke-opacity="1" fill="none" fill-rule="evenodd"/><path d="M1551.1 499.19 2625.09 499.19" stroke="#FFFFFF" stroke-width="13.75" stroke-linecap="butt" stroke-linejoin="round" stroke-miterlimit="10" stroke-opacity="1" fill="none" fill-rule="evenodd"/><path d="M1551.1 633.024 2625.09 633.024" stroke="#FFFFFF" stroke-width="4.58333" stroke-linecap="butt" stroke-linejoin="round" stroke-miterlimit="10" stroke-opacity="1" fill="none" fill-rule="evenodd"/><path d="M1551.1 766.857 2625.09 766.857" stroke="#FFFFFF" stroke-width="4.58333" stroke-linecap="butt" stroke-linejoin="round" stroke-miterlimit="10" stroke-opacity="1" fill="none" fill-rule="evenodd"/><path d="M1551.1 900.69 2625.09 900.69" stroke="#FFFFFF" stroke-width="4.58333" stroke-linecap="butt" stroke-linejoin="round" stroke-miterlimit="10" stroke-opacity="1" fill="none" fill-rule="evenodd"/><path d="M1551.1 1034.52 2625.09 1034.52" stroke="#FFFFFF" stroke-width="4.58333" stroke-linecap="butt" stroke-linejoin="round" stroke-miterlimit="10" stroke-opacity="1" fill="none" fill-rule="evenodd"/><path d="M1551.1 1168.36 2625.09 1168.36" stroke="#FFFFFF" stroke-width="4.58333" stroke-linecap="butt" stroke-linejoin="round" stroke-miterlimit="10" stroke-opacity="1" fill="none" fill-rule="evenodd"/><path d="M1553.39 363.065 1553.39 1304.48" stroke="#FFFFFF" stroke-width="4.58333" stroke-linecap="butt" stroke-linejoin="round" stroke-miterlimit="10" stroke-opacity="1" fill="none" fill-rule="evenodd"/><path d="M2622.8 363.065 2622.8 1304.48" stroke="#FFFFFF" stroke-width="4.58333" stroke-linecap="butt" stroke-linejoin="round" stroke-miterlimit="10" stroke-opacity="1" fill="none" fill-rule="evenodd"/><path d="M1551.1 365.357 2625.09 365.357" stroke="#FFFFFF" stroke-width="4.58333" stroke-linecap="butt" stroke-linejoin="round" stroke-miterlimit="10" stroke-opacity="1" fill="none" fill-rule="evenodd"/><path d="M1551.1 1302.19 2625.09 1302.19" stroke="#FFFFFF" stroke-width="4.58333" stroke-linecap="butt" stroke-linejoin="round" stroke-miterlimit="10" stroke-opacity="1" fill="none" fill-rule="evenodd"/><g><text fill="#FFFFFF" fill-opacity="1" font-family="Helvetica Neue,Helvetica Neue_MSFontService,sans-serif" font-style="normal" font-variant="normal" font-weight="700" font-stretch="normal" font-size="83" text-anchor="start" direction="ltr" writing-mode="lr-tb" unicode-bidi="normal" text-decoration="none" transform="matrix(1 0 0 1 2133.3 463)">Estado</text></g><g><text fill="#FFFFFF" fill-opacity="1" font-family="Helvetica Neue,Helvetica Neue_MSFontService,sans-serif" font-style="normal" font-variant="normal" font-weight="700" font-stretch="normal" font-size="83" text-anchor="start" direction="ltr" writing-mode="lr-tb" unicode-bidi="normal" text-decoration="none" transform="matrix(1 0 0 1 1586.39 463)">Cidade</text></g><g><text fill="#202A32" fill-opacity="1" font-family="Helvetica Neue,Helvetica Neue_MSFontService,sans-serif" font-style="normal" font-variant="normal" font-weight="400" font-stretch="normal" font-size="83" text-anchor="start" direction="ltr" writing-mode="lr-tb" unicode-bidi="normal" text-decoration="none" transform="matrix(1 0 0 1 2133.3 597)">P</text></g><text fill="#202A32" fill-opacity="1" font-family="Helvetica Neue,Helvetica Neue_MSFontService,sans-serif" font-style="normal" font-variant="normal" font-weight="400" font-stretch="normal" font-size="83" text-anchor="start" direction="ltr" writing-mode="lr-tb" unicode-bidi="normal" text-decoration="none" transform="matrix(1 0 0 1 2186.58 597)">R</text><g><text fill="#202A32" fill-opacity="1" font-family="Helvetica Neue,Helvetica Neue_MSFontService,sans-serif" font-style="normal" font-variant="normal" font-weight="400" font-stretch="normal" font-size="83" text-anchor="start" direction="ltr" writing-mode="lr-tb" unicode-bidi="normal" text-decoration="none" transform="matrix(1 0 0 1 1586.39 597)">Curitiba</text></g><g><text fill="#202A32" fill-opacity="1" font-family="Helvetica Neue,Helvetica Neue_MSFontService,sans-serif" font-style="normal" font-variant="normal" font-weight="400" font-stretch="normal" font-size="83" text-anchor="start" direction="ltr" writing-mode="lr-tb" unicode-bidi="normal" text-decoration="none" transform="matrix(1 0 0 1 2133.3 731)">S</text></g><text fill="#202A32" fill-opacity="1" font-family="Helvetica Neue,Helvetica Neue_MSFontService,sans-serif" font-style="normal" font-variant="normal" font-weight="400" font-stretch="normal" font-size="83" text-anchor="start" direction="ltr" writing-mode="lr-tb" unicode-bidi="normal" text-decoration="none" transform="matrix(1 0 0 1 2186.58 731)">P</text><g><text fill="#202A32" fill-opacity="1" font-family="Helvetica Neue,Helvetica Neue_MSFontService,sans-serif" font-style="normal" font-variant="normal" font-weight="400" font-stretch="normal" font-size="83" text-anchor="start" direction="ltr" writing-mode="lr-tb" unicode-bidi="normal" text-decoration="none" transform="matrix(1 0 0 1 1586.39 731)">São Paulo</text></g><g><text fill="#202A32" fill-opacity="1" font-family="Helvetica Neue,Helvetica Neue_MSFontService,sans-serif" font-style="normal" font-variant="normal" font-weight="400" font-stretch="normal" font-size="83" text-anchor="start" direction="ltr" writing-mode="lr-tb" unicode-bidi="normal" text-decoration="none" transform="matrix(1 0 0 1 2133.3 864)">A</text></g><text fill="#202A32" fill-opacity="1" font-family="Helvetica Neue,Helvetica Neue_MSFontService,sans-serif" font-style="normal" font-variant="normal" font-weight="400" font-stretch="normal" font-size="83" text-anchor="start" direction="ltr" writing-mode="lr-tb" unicode-bidi="normal" text-decoration="none" transform="matrix(1 0 0 1 2186.58 864)">M</text><g><text fill="#202A32" fill-opacity="1" font-family="Helvetica Neue,Helvetica Neue_MSFontService,sans-serif" font-style="normal" font-variant="normal" font-weight="400" font-stretch="normal" font-size="83" text-anchor="start" direction="ltr" writing-mode="lr-tb" unicode-bidi="normal" text-decoration="none" transform="matrix(1 0 0 1 1586.39 864)">Manaus</text></g><g><text fill="#202A32" fill-opacity="1" font-family="Helvetica Neue,Helvetica Neue_MSFontService,sans-serif" font-style="normal" font-variant="normal" font-weight="400" font-stretch="normal" font-size="83" text-anchor="start" direction="ltr" writing-mode="lr-tb" unicode-bidi="normal" text-decoration="none" transform="matrix(1 0 0 1 2133.3 998)">R</text></g><text fill="#202A32" fill-opacity="1" font-family="Helvetica Neue,Helvetica Neue_MSFontService,sans-serif" font-style="normal" font-variant="normal" font-weight="400" font-stretch="normal" font-size="83" text-anchor="start" direction="ltr" writing-mode="lr-tb" unicode-bidi="normal" text-decoration="none" transform="matrix(1 0 0 1 2190.02 998)">N</text><g><text fill="#202A32" fill-opacity="1" font-family="Helvetica Neue,Helvetica Neue_MSFontService,sans-serif" font-style="normal" font-variant="normal" font-weight="400" font-stretch="normal" font-size="83" text-anchor="start" direction="ltr" writing-mode="lr-tb" unicode-bidi="normal" text-decoration="none" transform="matrix(1 0 0 1 1586.39 998)">Natal</text></g><g><text fill="#202A32" fill-opacity="1" font-family="Helvetica Neue,Helvetica Neue_MSFontService,sans-serif" font-style="normal" font-variant="normal" font-weight="400" font-stretch="normal" font-size="83" text-anchor="start" direction="ltr" writing-mode="lr-tb" unicode-bidi="normal" text-decoration="none" transform="matrix(1 0 0 1 2133.3 1132)">R</text></g><text fill="#202A32" fill-opacity="1" font-family="Helvetica Neue,Helvetica Neue_MSFontService,sans-serif" font-style="normal" font-variant="normal" font-weight="400" font-stretch="normal" font-size="83" text-anchor="start" direction="ltr" writing-mode="lr-tb" unicode-bidi="normal" text-decoration="none" transform="matrix(1 0 0 1 2190.02 1132)">S</text><g><text fill="#202A32" fill-opacity="1" font-family="Helvetica Neue,Helvetica Neue_MSFontService,sans-serif" font-style="normal" font-variant="normal" font-weight="400" font-stretch="normal" font-size="83" text-anchor="start" direction="ltr" writing-mode="lr-tb" unicode-bidi="normal" text-decoration="none" transform="matrix(1 0 0 1 1586.39 1132)">Porto Alegre</text></g><g><text fill="#202A32" fill-opacity="1" font-family="Helvetica Neue,Helvetica Neue_MSFontService,sans-serif" font-style="normal" font-variant="normal" font-weight="400" font-stretch="normal" font-size="83" text-anchor="start" direction="ltr" writing-mode="lr-tb" unicode-bidi="normal" text-decoration="none" transform="matrix(1 0 0 1 2133.3 1266)">C</text></g><text fill="#202A32" fill-opacity="1" font-family="Helvetica Neue,Helvetica Neue_MSFontService,sans-serif" font-style="normal" font-variant="normal" font-weight="400" font-stretch="normal" font-size="83" text-anchor="start" direction="ltr" writing-mode="lr-tb" unicode-bidi="normal" text-decoration="none" transform="matrix(1 0 0 1 2192.88 1266)">E</text><g><text fill="#202A32" fill-opacity="1" font-family="Helvetica Neue,Helvetica Neue_MSFontService,sans-serif" font-style="normal" font-variant="normal" font-weight="400" font-stretch="normal" font-size="83" text-anchor="start" direction="ltr" writing-mode="lr-tb" unicode-bidi="normal" text-decoration="none" transform="matrix(1 0 0 1 1586.39 1266)">Fortaleza</text></g><path d="M2938.37 365.357 3485.28 365.357 3485.28 499.19 2938.37 499.19Z" fill="#59C3BB" fill-rule="evenodd" fill-opacity="1"/><path d="M3485.28 365.357 3807.94 365.357 3807.94 499.19 3485.28 499.19Z" fill="#59C3BB" fill-rule="evenodd" fill-opacity="1"/><path d="M3807.94 365.357 4211.52 365.357 4211.52 499.19 3807.94 499.19Z" fill="#59C3BB" fill-rule="evenodd" fill-opacity="1"/><path d="M2938.37 499.19 3485.28 499.19 3485.28 633.024 2938.37 633.024Z" fill="#E09FB9" fill-rule="evenodd" fill-opacity="1"/><path d="M3485.28 499.19 3807.94 499.19 3807.94 633.024 3485.28 633.024Z" fill="#EAF5F3" fill-rule="evenodd" fill-opacity="1"/><path d="M3807.94 499.19 4211.52 499.19 4211.52 633.024 3807.94 633.024Z" fill="#EAF5F3" fill-rule="evenodd" fill-opacity="1"/><path d="M2938.37 633.024 3485.28 633.024 3485.28 766.857 2938.37 766.857Z" fill="#DEF3F1" fill-rule="evenodd" fill-opacity="1"/><path d="M3485.28 633.024 3807.94 633.024 3807.94 766.857 3485.28 766.857Z" fill="#EAF5F3" fill-rule="evenodd" fill-opacity="1"/><path d="M3807.94 633.024 4211.52 633.024 4211.52 766.857 3807.94 766.857Z" fill="#EAF5F3" fill-rule="evenodd" fill-opacity="1"/><path d="M2938.37 766.857 3485.28 766.857 3485.28 900.69 2938.37 900.69Z" fill="#EDE7E9" fill-rule="evenodd" fill-opacity="1"/><path d="M3485.28 766.857 3807.94 766.857 3807.94 900.69 3485.28 900.69Z" fill="#EAF5F3" fill-rule="evenodd" fill-opacity="1"/><path d="M3807.94 766.857 4211.52 766.857 4211.52 900.69 3807.94 900.69Z" fill="#EAF5F3" fill-rule="evenodd" fill-opacity="1"/><path d="M2938.37 900.69 3485.28 900.69 3485.28 1034.52 2938.37 1034.52Z" fill="#D06F96" fill-rule="evenodd" fill-opacity="1"/><path d="M3485.28 900.69 3807.94 900.69 3807.94 1034.52 3485.28 1034.52Z" fill="#EAF5F3" fill-rule="evenodd" fill-opacity="1"/><path d="M3807.94 900.69 4211.52 900.69 4211.52 1034.52 3807.94 1034.52Z" fill="#EAF5F3" fill-rule="evenodd" fill-opacity="1"/><path d="M2938.37 1034.52 3485.28 1034.52 3485.28 1168.36 2938.37 1168.36Z" fill="#6DD9D1" fill-rule="evenodd" fill-opacity="1"/><path d="M3485.28 1034.52 3807.94 1034.52 3807.94 1168.36 3485.28 1168.36Z" fill="#EAF5F3" fill-rule="evenodd" fill-opacity="1"/><path d="M3807.94 1034.52 4211.52 1034.52 4211.52 1168.36 3807.94 1168.36Z" fill="#EAF5F3" fill-rule="evenodd" fill-opacity="1"/><path d="M2938.37 1168.36 3485.28 1168.36 3485.28 1302.19 2938.37 1302.19Z" fill="#1BD1FF" fill-rule="evenodd" fill-opacity="1"/><path d="M3485.28 1168.36 3807.94 1168.36 3807.94 1302.19 3485.28 1302.19Z" fill="#EAF5F3" fill-rule="evenodd" fill-opacity="1"/><path d="M3807.94 1168.36 4211.52 1168.36 4211.52 1302.19 3807.94 1302.19Z" fill="#EAF5F3" fill-rule="evenodd" fill-opacity="1"/><path d="M3485.28 363.065 3485.28 1304.48" stroke="#FFFFFF" stroke-width="4.58333" stroke-linecap="butt" stroke-linejoin="round" stroke-miterlimit="10" stroke-opacity="1" fill="none" fill-rule="evenodd"/><path d="M3807.94 363.065 3807.94 1304.48" stroke="#FFFFFF" stroke-width="4.58333" stroke-linecap="butt" stroke-linejoin="round" stroke-miterlimit="10" stroke-opacity="1" fill="none" fill-rule="evenodd"/><path d="M2936.08 499.19 4213.81 499.19" stroke="#FFFFFF" stroke-width="13.75" stroke-linecap="butt" stroke-linejoin="round" stroke-miterlimit="10" stroke-opacity="1" fill="none" fill-rule="evenodd"/><path d="M2936.08 633.024 4213.81 633.024" stroke="#FFFFFF" stroke-width="4.58333" stroke-linecap="butt" stroke-linejoin="round" stroke-miterlimit="10" stroke-opacity="1" fill="none" fill-rule="evenodd"/><path d="M2936.08 766.857 4213.81 766.857" stroke="#FFFFFF" stroke-width="4.58333" stroke-linecap="butt" stroke-linejoin="round" stroke-miterlimit="10" stroke-opacity="1" fill="none" fill-rule="evenodd"/><path d="M2936.08 900.69 4213.81 900.69" stroke="#FFFFFF" stroke-width="4.58333" stroke-linecap="butt" stroke-linejoin="round" stroke-miterlimit="10" stroke-opacity="1" fill="none" fill-rule="evenodd"/><path d="M2936.08 1034.52 4213.81 1034.52" stroke="#FFFFFF" stroke-width="4.58333" stroke-linecap="butt" stroke-linejoin="round" stroke-miterlimit="10" stroke-opacity="1" fill="none" fill-rule="evenodd"/><path d="M2936.08 1168.36 4213.81 1168.36" stroke="#FFFFFF" stroke-width="4.58333" stroke-linecap="butt" stroke-linejoin="round" stroke-miterlimit="10" stroke-opacity="1" fill="none" fill-rule="evenodd"/><path d="M2938.37 363.065 2938.37 1304.48" stroke="#FFFFFF" stroke-width="4.58333" stroke-linecap="butt" stroke-linejoin="round" stroke-miterlimit="10" stroke-opacity="1" fill="none" fill-rule="evenodd"/><path d="M4211.52 363.065 4211.52 1304.48" stroke="#FFFFFF" stroke-width="4.58333" stroke-linecap="butt" stroke-linejoin="round" stroke-miterlimit="10" stroke-opacity="1" fill="none" fill-rule="evenodd"/><path d="M2936.08 365.357 4213.81 365.357" stroke="#FFFFFF" stroke-width="4.58333" stroke-linecap="butt" stroke-linejoin="round" stroke-miterlimit="10" stroke-opacity="1" fill="none" fill-rule="evenodd"/><path d="M2936.08 1302.19 4213.81 1302.19" stroke="#FFFFFF" stroke-width="4.58333" stroke-linecap="butt" stroke-linejoin="round" stroke-miterlimit="10" stroke-opacity="1" fill="none" fill-rule="evenodd"/><g><text fill="#FFFFFF" fill-opacity="1" font-family="Helvetica Neue,Helvetica Neue_MSFontService,sans-serif" font-style="normal" font-variant="normal" font-weight="700" font-stretch="normal" font-size="83" text-anchor="start" direction="ltr" writing-mode="lr-tb" unicode-bidi="normal" text-decoration="none" transform="matrix(1 0 0 1 3840.94 463)">Estado</text></g><g><text fill="#FFFFFF" fill-opacity="1" font-family="Helvetica Neue,Helvetica Neue_MSFontService,sans-serif" font-style="normal" font-variant="normal" font-weight="700" font-stretch="normal" font-size="83" text-anchor="start" direction="ltr" writing-mode="lr-tb" unicode-bidi="normal" text-decoration="none" transform="matrix(1 0 0 1 3518.28 463)">Nome</text></g><g><text fill="#FFFFFF" fill-opacity="1" font-family="Helvetica Neue,Helvetica Neue_MSFontService,sans-serif" font-style="normal" font-variant="normal" font-weight="700" font-stretch="normal" font-size="83" text-anchor="start" direction="ltr" writing-mode="lr-tb" unicode-bidi="normal" text-decoration="none" transform="matrix(1 0 0 1 2971.37 463)">Cidade</text></g><g><text fill="#202A32" fill-opacity="1" font-family="Helvetica Neue,Helvetica Neue_MSFontService,sans-serif" font-style="normal" font-variant="normal" font-weight="400" font-stretch="normal" font-size="83" text-anchor="start" direction="ltr" writing-mode="lr-tb" unicode-bidi="normal" text-decoration="none" transform="matrix(1 0 0 1 3840.94 597)">PR</text></g><g><text fill="#202A32" fill-opacity="1" font-family="Helvetica Neue,Helvetica Neue_MSFontService,sans-serif" font-style="normal" font-variant="normal" font-weight="400" font-stretch="normal" font-size="83" text-anchor="start" direction="ltr" writing-mode="lr-tb" unicode-bidi="normal" text-decoration="none" transform="matrix(1 0 0 1 3518.28 597)">A</text></g><g><text fill="#202A32" fill-opacity="1" font-family="Helvetica Neue,Helvetica Neue_MSFontService,sans-serif" font-style="normal" font-variant="normal" font-weight="400" font-stretch="normal" font-size="83" text-anchor="start" direction="ltr" writing-mode="lr-tb" unicode-bidi="normal" text-decoration="none" transform="matrix(1 0 0 1 2971.37 597)">Curitiba</text></g><g><text fill="#202A32" fill-opacity="1" font-family="Helvetica Neue,Helvetica Neue_MSFontService,sans-serif" font-style="normal" font-variant="normal" font-weight="400" font-stretch="normal" font-size="83" text-anchor="start" direction="ltr" writing-mode="lr-tb" unicode-bidi="normal" text-decoration="none" transform="matrix(1 0 0 1 3840.94 731)">SP</text></g><g><text fill="#202A32" fill-opacity="1" font-family="Helvetica Neue,Helvetica Neue_MSFontService,sans-serif" font-style="normal" font-variant="normal" font-weight="400" font-stretch="normal" font-size="83" text-anchor="start" direction="ltr" writing-mode="lr-tb" unicode-bidi="normal" text-decoration="none" transform="matrix(1 0 0 1 3518.28 731)">B</text></g><g><text fill="#202A32" fill-opacity="1" font-family="Helvetica Neue,Helvetica Neue_MSFontService,sans-serif" font-style="normal" font-variant="normal" font-weight="400" font-stretch="normal" font-size="83" text-anchor="start" direction="ltr" writing-mode="lr-tb" unicode-bidi="normal" text-decoration="none" transform="matrix(1 0 0 1 2971.37 731)">São Paulo</text></g><g><text fill="#202A32" fill-opacity="1" font-family="Helvetica Neue,Helvetica Neue_MSFontService,sans-serif" font-style="normal" font-variant="normal" font-weight="400" font-stretch="normal" font-size="83" text-anchor="start" direction="ltr" writing-mode="lr-tb" unicode-bidi="normal" text-decoration="none" transform="matrix(1 0 0 1 3840.94 864)">AM</text></g><g><text fill="#202A32" fill-opacity="1" font-family="Helvetica Neue,Helvetica Neue_MSFontService,sans-serif" font-style="normal" font-variant="normal" font-weight="400" font-stretch="normal" font-size="83" text-anchor="start" direction="ltr" writing-mode="lr-tb" unicode-bidi="normal" text-decoration="none" transform="matrix(1 0 0 1 3518.28 864)">C</text></g><g><text fill="#202A32" fill-opacity="1" font-family="Helvetica Neue,Helvetica Neue_MSFontService,sans-serif" font-style="normal" font-variant="normal" font-weight="400" font-stretch="normal" font-size="83" text-anchor="start" direction="ltr" writing-mode="lr-tb" unicode-bidi="normal" text-decoration="none" transform="matrix(1 0 0 1 2971.37 864)">Manaus</text></g><g><text fill="#202A32" fill-opacity="1" font-family="Helvetica Neue,Helvetica Neue_MSFontService,sans-serif" font-style="normal" font-variant="normal" font-weight="400" font-stretch="normal" font-size="83" text-anchor="start" direction="ltr" writing-mode="lr-tb" unicode-bidi="normal" text-decoration="none" transform="matrix(1 0 0 1 3840.94 998)">RN</text></g><g><text fill="#202A32" fill-opacity="1" font-family="Helvetica Neue,Helvetica Neue_MSFontService,sans-serif" font-style="normal" font-variant="normal" font-weight="400" font-stretch="normal" font-size="83" text-anchor="start" direction="ltr" writing-mode="lr-tb" unicode-bidi="normal" text-decoration="none" transform="matrix(1 0 0 1 3518.28 998)">D</text></g><g><text fill="#202A32" fill-opacity="1" font-family="Helvetica Neue,Helvetica Neue_MSFontService,sans-serif" font-style="normal" font-variant="normal" font-weight="400" font-stretch="normal" font-size="83" text-anchor="start" direction="ltr" writing-mode="lr-tb" unicode-bidi="normal" text-decoration="none" transform="matrix(1 0 0 1 2971.37 998)">Natal</text></g><g><text fill="#202A32" fill-opacity="1" font-family="Helvetica Neue,Helvetica Neue_MSFontService,sans-serif" font-style="normal" font-variant="normal" font-weight="400" font-stretch="normal" font-size="83" text-anchor="start" direction="ltr" writing-mode="lr-tb" unicode-bidi="normal" text-decoration="none" transform="matrix(1 0 0 1 3840.94 1132)">RS</text></g><g><text fill="#202A32" fill-opacity="1" font-family="Helvetica Neue,Helvetica Neue_MSFontService,sans-serif" font-style="normal" font-variant="normal" font-weight="400" font-stretch="normal" font-size="83" text-anchor="start" direction="ltr" writing-mode="lr-tb" unicode-bidi="normal" text-decoration="none" transform="matrix(1 0 0 1 3518.28 1132)">E</text></g><g><text fill="#202A32" fill-opacity="1" font-family="Helvetica Neue,Helvetica Neue_MSFontService,sans-serif" font-style="normal" font-variant="normal" font-weight="400" font-stretch="normal" font-size="83" text-anchor="start" direction="ltr" writing-mode="lr-tb" unicode-bidi="normal" text-decoration="none" transform="matrix(1 0 0 1 2971.37 1132)">Porto Alegre</text></g><g><text fill="#FF0000" fill-opacity="1" font-family="Helvetica Neue,Helvetica Neue_MSFontService,sans-serif" font-style="normal" font-variant="normal" font-weight="700" font-stretch="normal" font-size="83" text-anchor="start" direction="ltr" writing-mode="lr-tb" unicode-bidi="normal" text-decoration="none" transform="matrix(1 0 0 1 3840.94 1266)">NA</text></g><g><text fill="#202A32" fill-opacity="1" font-family="Helvetica Neue,Helvetica Neue_MSFontService,sans-serif" font-style="normal" font-variant="normal" font-weight="400" font-stretch="normal" font-size="83" text-anchor="start" direction="ltr" writing-mode="lr-tb" unicode-bidi="normal" text-decoration="none" transform="matrix(1 0 0 1 3518.28 1266)">F</text></g><g><text fill="#202A32" fill-opacity="1" font-family="Helvetica Neue,Helvetica Neue_MSFontService,sans-serif" font-style="normal" font-variant="normal" font-weight="400" font-stretch="normal" font-size="83" text-anchor="start" direction="ltr" writing-mode="lr-tb" unicode-bidi="normal" text-decoration="none" transform="matrix(1 0 0 1 2971.37 1266)">Araucária</text></g></g></g></svg>