<svg width="4276" height="2342" xmlns="http://www.w3.org/2000/svg" xmlns:xlink="http://www.w3.org/1999/xlink" xml:space="preserve" overflow="hidden"><g transform="translate(-105 -119)"><g><path d="M2022.5 2008.5C2022.5 1765.49 2210.09 1568.5 2441.5 1568.5 2672.91 1568.5 2860.5 1765.49 2860.5 2008.5 2860.5 2251.51 2672.91 2448.5 2441.5 2448.5 2210.09 2448.5 2022.5 2251.51 2022.5 2008.5Z" stroke="#912F56" stroke-width="20.625" stroke-linecap="butt" stroke-linejoin="miter" stroke-miterlimit="8" stroke-opacity="1" fill="#EFCFDC" fill-rule="evenodd" fill-opacity="1"/><path d="M2433.77 2011.94 2433.77 2026.85 2441.47 2026.85C2442.96 2026.85 2444.21 2026.7 2445.22 2026.39 2446.23 2026.08 2447.11 2025.62 2447.85 2025.01 2448.6 2024.4 2449.18 2023.65 2449.6 2022.74 2450.02 2021.84 2450.22 2020.8 2450.22 2019.64 2450.22 2018.42 2450.02 2017.34 2449.62 2016.38 2449.21 2015.42 2448.62 2014.61 2447.83 2013.97 2447.05 2013.32 2446.05 2012.82 2444.83 2012.47 2443.62 2012.12 2442.04 2011.94 2440.09 2011.94ZM2433.77 1990.54 2433.77 2004.16 2439.73 2004.16C2441.27 2004.16 2442.5 2003.98 2443.42 2003.61 2444.33 2003.25 2445.1 2002.75 2445.71 2002.11 2446.31 2001.48 2446.77 2000.73 2447.06 1999.88 2447.36 1999.03 2447.51 1998.13 2447.51 1997.19 2447.51 1996.13 2447.35 1995.19 2447.02 1994.35 2446.7 1993.51 2446.21 1992.82 2445.56 1992.26 2444.92 1991.71 2444.1 1991.28 2443.11 1990.99 2442.13 1990.69 2440.81 1990.54 2439.16 1990.54ZM2426.48 1982.56 2439.65 1982.56C2442.86 1982.56 2445.58 1982.83 2447.81 1983.37 2450.04 1983.91 2451.92 1984.73 2453.45 1985.82 2454.97 1986.91 2456.14 1988.3 2456.95 1989.97 2457.76 1991.65 2458.17 1993.62 2458.17 1995.89 2458.17 1997.16 2458.01 1998.36 2457.68 1999.48 2457.36 2000.6 2456.88 2001.62 2456.26 2002.54 2455.64 2003.46 2454.88 2004.27 2453.97 2004.97 2453.07 2005.67 2452.04 2006.24 2450.87 2006.67 2452.36 2006.94 2453.73 2007.41 2454.99 2008.09 2456.24 2008.77 2457.34 2009.64 2458.27 2010.7 2459.2 2011.77 2459.94 2013.02 2460.48 2014.45 2461.02 2015.88 2461.29 2017.49 2461.29 2019.28 2461.29 2021.14 2461.03 2022.83 2460.52 2024.34 2460.01 2025.85 2459.3 2027.19 2458.39 2028.35 2457.49 2029.52 2456.41 2030.51 2455.15 2031.35 2453.89 2032.19 2452.51 2032.88 2450.99 2033.42 2449.48 2033.96 2447.87 2034.36 2446.15 2034.61 2444.44 2034.87 2442.52 2035 2440.42 2035L2426.48 2035C2425.58 2035 2424.83 2034.74 2424.23 2034.21 2423.62 2033.68 2423.31 2032.82 2423.31 2031.64L2423.31 1985.92C2423.31 1984.73 2423.62 1983.87 2424.23 1983.35 2424.83 1982.82 2425.58 1982.56 2426.48 1982.56Z" stroke="#912F56" stroke-width="8" stroke-linecap="butt" stroke-linejoin="round" stroke-miterlimit="10" stroke-opacity="1" fill="#E09FB9" fill-rule="evenodd" fill-opacity="1"/><text fill="#000000" fill-opacity="0" font-family="Arial,Arial_MSFontService,sans-serif" font-size="52.4424" direction="ltr" writing-mode="lr-tb" x="2423.31" y="2028.44">B</text><path d="M1519.5 2008.5C1519.5 1765.49 1707.32 1568.5 1939 1568.5 2170.68 1568.5 2358.5 1765.49 2358.5 2008.5 2358.5 2251.51 2170.68 2448.5 1939 2448.5 1707.32 2448.5 1519.5 2251.51 1519.5 2008.5Z" stroke="#912F56" stroke-width="20.625" stroke-linecap="butt" stroke-linejoin="miter" stroke-miterlimit="8" stroke-opacity="1" fill="#EFCFDC" fill-rule="evenodd" fill-opacity="1"/><path d="M1938.03 1992.57 1930.61 2014.86 1945.49 2014.86 1938.07 1992.57ZM1938.19 1982.31C1939.79 1982.31 1941.06 1982.33 1942 1982.38 1942.95 1982.42 1943.68 1982.51 1944.21 1982.66 1944.74 1982.81 1945.12 1983.03 1945.34 1983.33 1945.57 1983.62 1945.77 1984.03 1945.93 1984.54L1962.14 2031.03C1962.47 2032 1962.67 2032.77 1962.75 2033.34 1962.83 2033.91 1962.72 2034.33 1962.43 2034.61 1962.13 2034.9 1961.6 2035.07 1960.85 2035.14 1960.09 2035.21 1959.05 2035.24 1957.73 2035.24 1956.35 2035.24 1955.27 2035.22 1954.5 2035.18 1953.73 2035.14 1953.15 2035.06 1952.74 2034.94 1952.34 2034.82 1952.05 2034.65 1951.89 2034.43 1951.73 2034.22 1951.59 2033.93 1951.48 2033.58L1947.96 2023.04 1928.26 2023.04 1924.94 2033.3C1924.83 2033.68 1924.69 2033.99 1924.51 2034.25 1924.34 2034.51 1924.05 2034.71 1923.66 2034.86 1923.27 2035.01 1922.72 2035.11 1922 2035.16 1921.29 2035.22 1920.35 2035.24 1919.18 2035.24 1917.94 2035.24 1916.97 2035.2 1916.27 2035.12 1915.56 2035.04 1915.08 2034.84 1914.81 2034.53 1914.54 2034.22 1914.44 2033.78 1914.52 2033.22 1914.6 2032.65 1914.81 2031.89 1915.13 2030.95L1931.3 1984.42C1931.46 1983.96 1931.65 1983.59 1931.87 1983.31 1932.09 1983.02 1932.43 1982.81 1932.9 1982.66 1933.38 1982.51 1934.03 1982.42 1934.87 1982.38 1935.71 1982.33 1936.81 1982.31 1938.19 1982.31Z" stroke="#912F56" stroke-width="8" stroke-linecap="butt" stroke-linejoin="round" stroke-miterlimit="10" stroke-opacity="1" fill="#E09FB9" fill-rule="evenodd" fill-opacity="1"/><text fill="#000000" fill-opacity="0" font-family="Arial,Arial_MSFontService,sans-serif" font-size="52.9287" direction="ltr" writing-mode="lr-tb" x="1914.5" y="2028.63">A</text><path d="M2015.5 2008.5C2015.5 1765.49 2203.09 1568.5 2434.5 1568.5 2665.91 1568.5 2853.5 1765.49 2853.5 2008.5 2853.5 2251.51 2665.91 2448.5 2434.5 2448.5 2203.09 2448.5 2015.5 2251.51 2015.5 2008.5Z" stroke="#912F56" stroke-width="20.625" stroke-linecap="butt" stroke-linejoin="miter" stroke-miterlimit="8" stroke-opacity="1" fill="none" fill-rule="evenodd"/><path d="M2427.07 2011.94 2427.07 2026.85 2434.78 2026.85C2436.26 2026.85 2437.51 2026.7 2438.52 2026.39 2439.54 2026.08 2440.42 2025.62 2441.16 2025.01 2441.9 2024.4 2442.48 2023.65 2442.9 2022.74 2443.32 2021.84 2443.53 2020.8 2443.53 2019.64 2443.53 2018.42 2443.33 2017.34 2442.92 2016.38 2442.52 2015.42 2441.92 2014.61 2441.14 2013.97 2440.35 2013.32 2439.35 2012.82 2438.14 2012.47 2436.92 2012.12 2435.34 2011.94 2433.4 2011.94ZM2427.07 1990.54 2427.07 2004.16 2433.03 2004.16C2434.57 2004.16 2435.8 2003.98 2436.72 2003.61 2437.64 2003.25 2438.4 2002.75 2439.01 2002.11 2439.62 2001.48 2440.07 2000.73 2440.37 1999.88 2440.67 1999.03 2440.81 1998.13 2440.81 1997.19 2440.81 1996.13 2440.65 1995.19 2440.33 1994.35 2440 1993.51 2439.52 1992.82 2438.87 1992.26 2438.22 1991.71 2437.4 1991.28 2436.42 1990.99 2435.43 1990.69 2434.11 1990.54 2432.47 1990.54ZM2419.78 1982.56 2432.95 1982.56C2436.17 1982.56 2438.89 1982.83 2441.12 1983.37 2443.35 1983.91 2445.22 1984.73 2446.75 1985.82 2448.28 1986.91 2449.45 1988.3 2450.26 1989.97 2451.07 1991.65 2451.47 1993.62 2451.47 1995.89 2451.47 1997.16 2451.31 1998.36 2450.99 1999.48 2450.66 2000.6 2450.19 2001.62 2449.57 2002.54 2448.95 2003.46 2448.18 2004.27 2447.28 2004.97 2446.37 2005.67 2445.34 2006.24 2444.18 2006.67 2445.66 2006.94 2447.03 2007.41 2448.29 2008.09 2449.55 2008.77 2450.64 2009.64 2451.57 2010.7 2452.51 2011.77 2453.24 2013.02 2453.78 2014.45 2454.32 2015.88 2454.59 2017.49 2454.59 2019.28 2454.59 2021.14 2454.34 2022.83 2453.82 2024.34 2453.31 2025.85 2452.6 2027.19 2451.7 2028.35 2450.79 2029.52 2449.71 2030.51 2448.45 2031.35 2447.2 2032.19 2445.81 2032.88 2444.3 2033.42 2442.79 2033.96 2441.17 2034.36 2439.46 2034.61 2437.74 2034.87 2435.83 2035 2433.72 2035L2419.78 2035C2418.89 2035 2418.14 2034.74 2417.53 2034.21 2416.92 2033.68 2416.62 2032.82 2416.62 2031.64L2416.62 1985.92C2416.62 1984.73 2416.92 1983.87 2417.53 1983.35 2418.14 1982.82 2418.89 1982.56 2419.78 1982.56Z" stroke="#912F56" stroke-width="8" stroke-linecap="butt" stroke-linejoin="round" stroke-miterlimit="10" stroke-opacity="1" fill="#E09FB9" fill-rule="evenodd" fill-opacity="1"/><text fill="#000000" fill-opacity="0" font-family="Arial,Arial_MSFontService,sans-serif" font-size="52.4424" direction="ltr" writing-mode="lr-tb" x="2416.62" y="2028.44">B</text><path d="M110 365.357 656.906 365.357 656.906 499.19 110 499.19Z" fill="#59C3BB" fill-rule="evenodd" fill-opacity="1"/><path d="M656.906 365.357 1179.41 365.357 1179.41 499.19 656.906 499.19Z" fill="#59C3BB" fill-rule="evenodd" fill-opacity="1"/><path d="M110 499.19 656.906 499.19 656.906 633.024 110 633.024Z" fill="#E09FB9" fill-rule="evenodd" fill-opacity="1"/><path d="M656.906 499.19 1179.41 499.19 1179.41 633.024 656.906 633.024Z" fill="#EAF5F3" fill-rule="evenodd" fill-opacity="1"/><path d="M110 633.024 656.906 633.024 656.906 766.857 110 766.857Z" fill="#DEF3F1" fill-rule="evenodd" fill-opacity="1"/><path d="M656.906 633.024 1179.41 633.024 1179.41 766.857 656.906 766.857Z" fill="#EAF5F3" fill-rule="evenodd" fill-opacity="1"/><path d="M110 766.857 656.906 766.857 656.906 900.69 110 900.69Z" fill="#EDE7E9" fill-rule="evenodd" fill-opacity="1"/><path d="M656.906 766.857 1179.41 766.857 1179.41 900.69 656.906 900.69Z" fill="#EAF5F3" fill-rule="evenodd" fill-opacity="1"/><path d="M110 900.69 656.906 900.69 656.906 1034.52 110 1034.52Z" fill="#D06F96" fill-rule="evenodd" fill-opacity="1"/><path d="M656.906 900.69 1179.41 900.69 1179.41 1034.52 656.906 1034.52Z" fill="#EAF5F3" fill-rule="evenodd" fill-opacity="1"/><path d="M110 1034.52 656.906 1034.52 656.906 1168.36 110 1168.36Z" fill="#6DD9D1" fill-rule="evenodd" fill-opacity="1"/><path d="M656.906 1034.52 1179.41 1034.52 1179.41 1168.36 656.906 1168.36Z" fill="#EAF5F3" fill-rule="evenodd" fill-opacity="1"/><path d="M110 1168.36 656.906 1168.36 656.906 1302.19 110 1302.19Z" fill="#1BD1FF" fill-rule="evenodd" fill-opacity="1"/><path d="M656.906 1168.36 1179.41 1168.36 1179.41 1302.19 656.906 1302.19Z" fill="#EAF5F3" fill-rule="evenodd" fill-opacity="1"/><path d="M656.906 363.065 656.906 1304.48" stroke="#FFFFFF" stroke-width="4.58333" stroke-linecap="butt" stroke-linejoin="round" stroke-miterlimit="10" stroke-opacity="1" fill="none" fill-rule="evenodd"/><path d="M107.708 499.19 1181.7 499.19" stroke="#FFFFFF" stroke-width="13.75" stroke-linecap="butt" stroke-linejoin="round" stroke-miterlimit="10" stroke-opacity="1" fill="none" fill-rule="evenodd"/><path d="M107.708 633.024 1181.7 633.024" stroke="#FFFFFF" stroke-width="4.58333" stroke-linecap="butt" stroke-linejoin="round" stroke-miterlimit="10" stroke-opacity="1" fill="none" fill-rule="evenodd"/><path d="M107.708 766.857 1181.7 766.857" stroke="#FFFFFF" stroke-width="4.58333" stroke-linecap="butt" stroke-linejoin="round" stroke-miterlimit="10" stroke-opacity="1" fill="none" fill-rule="evenodd"/><path d="M107.708 900.69 1181.7 900.69" stroke="#FFFFFF" stroke-width="4.58333" stroke-linecap="butt" stroke-linejoin="round" stroke-miterlimit="10" stroke-opacity="1" fill="none" fill-rule="evenodd"/><path d="M107.708 1034.52 1181.7 1034.52" stroke="#FFFFFF" stroke-width="4.58333" stroke-linecap="butt" stroke-linejoin="round" stroke-miterlimit="10" stroke-opacity="1" fill="none" fill-rule="evenodd"/><path d="M107.708 1168.36 1181.7 1168.36" stroke="#FFFFFF" stroke-width="4.58333" stroke-linecap="butt" stroke-linejoin="round" stroke-miterlimit="10" stroke-opacity="1" fill="none" fill-rule="evenodd"/><path d="M110 363.065 110 1304.48" stroke="#FFFFFF" stroke-width="4.58333" stroke-linecap="butt" stroke-linejoin="round" stroke-miterlimit="10" stroke-opacity="1" fill="none" fill-rule="evenodd"/><path d="M1179.41 363.065 1179.41 1304.48" stroke="#FFFFFF" stroke-width="4.58333" stroke-linecap="butt" stroke-linejoin="round" stroke-miterlimit="10" stroke-opacity="1" fill="none" fill-rule="evenodd"/><path d="M107.708 365.357 1181.7 365.357" stroke="#FFFFFF" stroke-width="4.58333" stroke-linecap="butt" stroke-linejoin="round" stroke-miterlimit="10" stroke-opacity="1" fill="none" fill-rule="evenodd"/><path d="M107.708 1302.19 1181.7 1302.19" stroke="#FFFFFF" stroke-width="4.58333" stroke-linecap="butt" stroke-linejoin="round" stroke-miterlimit="10" stroke-opacity="1" fill="none" fill-rule="evenodd"/><g><text fill="#FFFFFF" fill-opacity="1" font-family="Helvetica Neue,Helvetica Neue_MSFontService,sans-serif" font-style="normal" font-variant="normal" font-weight="700" font-stretch="normal" font-size="83" text-anchor="start" direction="ltr" writing-mode="lr-tb" unicode-bidi="normal" text-decoration="none" transform="matrix(1 0 0 1 689.906 463)">Nome</text></g><g><text fill="#FFFFFF" fill-opacity="1" font-family="Helvetica Neue,Helvetica Neue_MSFontService,sans-serif" font-style="normal" font-variant="normal" font-weight="700" font-stretch="normal" font-size="83" text-anchor="start" direction="ltr" writing-mode="lr-tb" unicode-bidi="normal" text-decoration="none" transform="matrix(1 0 0 1 143 463)">Cidade</text></g><g><text fill="#202A32" fill-opacity="1" font-family="Helvetica Neue,Helvetica Neue_MSFontService,sans-serif" font-style="normal" font-variant="normal" font-weight="400" font-stretch="normal" font-size="83" text-anchor="start" direction="ltr" writing-mode="lr-tb" unicode-bidi="normal" text-decoration="none" transform="matrix(1 0 0 1 689.906 597)">A</text></g><g><text fill="#202A32" fill-opacity="1" font-family="Helvetica Neue,Helvetica Neue_MSFontService,sans-serif" font-style="normal" font-variant="normal" font-weight="400" font-stretch="normal" font-size="83" text-anchor="start" direction="ltr" writing-mode="lr-tb" unicode-bidi="normal" text-decoration="none" transform="matrix(1 0 0 1 143 597)">Curitiba</text></g><g><text fill="#202A32" fill-opacity="1" font-family="Helvetica Neue,Helvetica Neue_MSFontService,sans-serif" font-style="normal" font-variant="normal" font-weight="400" font-stretch="normal" font-size="83" text-anchor="start" direction="ltr" writing-mode="lr-tb" unicode-bidi="normal" text-decoration="none" transform="matrix(1 0 0 1 689.906 731)">B</text></g><g><text fill="#202A32" fill-opacity="1" font-family="Helvetica Neue,Helvetica Neue_MSFontService,sans-serif" font-style="normal" font-variant="normal" font-weight="400" font-stretch="normal" font-size="83" text-anchor="start" direction="ltr" writing-mode="lr-tb" unicode-bidi="normal" text-decoration="none" transform="matrix(1 0 0 1 143 731)">São Paulo</text></g><g><text fill="#202A32" fill-opacity="1" font-family="Helvetica Neue,Helvetica Neue_MSFontService,sans-serif" font-style="normal" font-variant="normal" font-weight="400" font-stretch="normal" font-size="83" text-anchor="start" direction="ltr" writing-mode="lr-tb" unicode-bidi="normal" text-decoration="none" transform="matrix(1 0 0 1 689.906 864)">C</text></g><g><text fill="#202A32" fill-opacity="1" font-family="Helvetica Neue,Helvetica Neue_MSFontService,sans-serif" font-style="normal" font-variant="normal" font-weight="400" font-stretch="normal" font-size="83" text-anchor="start" direction="ltr" writing-mode="lr-tb" unicode-bidi="normal" text-decoration="none" transform="matrix(1 0 0 1 143 864)">Manaus</text></g><g><text fill="#202A32" fill-opacity="1" font-family="Helvetica Neue,Helvetica Neue_MSFontService,sans-serif" font-style="normal" font-variant="normal" font-weight="400" font-stretch="normal" font-size="83" text-anchor="start" direction="ltr" writing-mode="lr-tb" unicode-bidi="normal" text-decoration="none" transform="matrix(1 0 0 1 689.906 998)">D</text></g><g><text fill="#202A32" fill-opacity="1" font-family="Helvetica Neue,Helvetica Neue_MSFontService,sans-serif" font-style="normal" font-variant="normal" font-weight="400" font-stretch="normal" font-size="83" text-anchor="start" direction="ltr" writing-mode="lr-tb" unicode-bidi="normal" text-decoration="none" transform="matrix(1 0 0 1 143 998)">Natal</text></g><g><text fill="#202A32" fill-opacity="1" font-family="Helvetica Neue,Helvetica Neue_MSFontService,sans-serif" font-style="normal" font-variant="normal" font-weight="400" font-stretch="normal" font-size="83" text-anchor="start" direction="ltr" writing-mode="lr-tb" unicode-bidi="normal" text-decoration="none" transform="matrix(1 0 0 1 689.906 1132)">E</text></g><g><text fill="#202A32" fill-opacity="1" font-family="Helvetica Neue,Helvetica Neue_MSFontService,sans-serif" font-style="normal" font-variant="normal" font-weight="400" font-stretch="normal" font-size="83" text-anchor="start" direction="ltr" writing-mode="lr-tb" unicode-bidi="normal" text-decoration="none" transform="matrix(1 0 0 1 143 1132)">Porto Alegre</text></g><g><text fill="#202A32" fill-opacity="1" font-family="Helvetica Neue,Helvetica Neue_MSFontService,sans-serif" font-style="normal" font-variant="normal" font-weight="400" font-stretch="normal" font-size="83" text-anchor="start" direction="ltr" writing-mode="lr-tb" unicode-bidi="normal" text-decoration="none" transform="matrix(1 0 0 1 689.906 1266)">F</text></g><g><text fill="#202A32" fill-opacity="1" font-family="Helvetica Neue,Helvetica Neue_MSFontService,sans-serif" font-style="normal" font-variant="normal" font-weight="400" font-stretch="normal" font-size="83" text-anchor="start" direction="ltr" writing-mode="lr-tb" unicode-bidi="normal" text-decoration="none" transform="matrix(1 0 0 1 143 1266)">Araucária</text></g><text fill="#202A32" fill-opacity="1" font-family="Helvetica Neue,Helvetica Neue_MSFontService,sans-serif" font-style="normal" font-variant="normal" font-weight="400" font-stretch="normal" font-size="110" text-anchor="start" direction="ltr" writing-mode="lr-tb" unicode-bidi="normal" text-decoration="none" transform="matrix(1 0 0 1 280.5 262)">Tabela</text><text fill="#202A32" fill-opacity="1" font-family="Helvetica Neue,Helvetica Neue_MSFontService,sans-serif" font-style="normal" font-variant="normal" font-weight="400" font-stretch="normal" font-size="110" text-anchor="start" direction="ltr" writing-mode="lr-tb" unicode-bidi="normal" text-decoration="none" transform="matrix(1 0 0 1 628.65 262)">A</text><text fill="#202A32" fill-opacity="1" font-family="Helvetica Neue,Helvetica Neue_MSFontService,sans-serif" font-style="normal" font-variant="normal" font-weight="400" font-stretch="normal" font-size="110" text-anchor="start" direction="ltr" writing-mode="lr-tb" unicode-bidi="normal" text-decoration="none" transform="matrix(1 0 0 1 1573 262)">Tabela</text><text fill="#202A32" fill-opacity="1" font-family="Helvetica Neue,Helvetica Neue_MSFontService,sans-serif" font-style="normal" font-variant="normal" font-weight="400" font-stretch="normal" font-size="110" text-anchor="start" direction="ltr" writing-mode="lr-tb" unicode-bidi="normal" text-decoration="none" transform="matrix(1 0 0 1 1921.15 262)">B</text><text fill="#202A32" fill-opacity="1" font-family="Helvetica Neue,Helvetica Neue_MSFontService,sans-serif" font-style="normal" font-variant="normal" font-weight="400" font-stretch="normal" font-size="110" text-anchor="start" direction="ltr" writing-mode="lr-tb" unicode-bidi="normal" text-decoration="none" transform="matrix(1 0 0 1 2860.57 279)">full_</text><text fill="#202A32" fill-opacity="1" font-family="Helvetica Neue,Helvetica Neue_MSFontService,sans-serif" font-style="normal" font-variant="normal" font-weight="400" font-stretch="normal" font-size="110" text-anchor="start" direction="ltr" writing-mode="lr-tb" unicode-bidi="normal" text-decoration="none" transform="matrix(1 0 0 1 3058.8 279)">join</text><text fill="#202A32" fill-opacity="1" font-family="Helvetica Neue,Helvetica Neue_MSFontService,sans-serif" font-style="normal" font-variant="normal" font-weight="400" font-stretch="normal" font-size="110" text-anchor="start" direction="ltr" writing-mode="lr-tb" unicode-bidi="normal" text-decoration="none" transform="matrix(1 0 0 1 3262.76 279)">(A , B, by = “</text><text fill="#202A32" fill-opacity="1" font-family="Helvetica Neue,Helvetica Neue_MSFontService,sans-serif" font-style="normal" font-variant="normal" font-weight="400" font-stretch="normal" font-size="110" text-anchor="start" direction="ltr" writing-mode="lr-tb" unicode-bidi="normal" text-decoration="none" transform="matrix(1 0 0 1 3883.8 279)">Cidade</text><text fill="#202A32" fill-opacity="1" font-family="Helvetica Neue,Helvetica Neue_MSFontService,sans-serif" font-style="normal" font-variant="normal" font-weight="400" font-stretch="normal" font-size="110" text-anchor="start" direction="ltr" writing-mode="lr-tb" unicode-bidi="normal" text-decoration="none" transform="matrix(1 0 0 1 4236.72 279)">”)</text><path d="M1540 365.357 2086.91 365.357 2086.91 499.19 1540 499.19Z" fill="#59C3BB" fill-rule="evenodd" fill-opacity="1"/><path d="M2086.91 365.357 2609.41 365.357 2609.41 499.19 2086.91 499.19Z" fill="#59C3BB" fill-rule="evenodd" fill-opacity="1"/><path d="M1540 499.19 2086.91 499.19 2086.91 633.024 1540 633.024Z" fill="#E09FB9" fill-rule="evenodd" fill-opacity="1"/><path d="M2086.91 499.19 2609.41 499.19 2609.41 633.024 2086.91 633.024Z" fill="#EAF5F3" fill-rule="evenodd" fill-opacity="1"/><path d="M1540 633.024 2086.91 633.024 2086.91 766.857 1540 766.857Z" fill="#DEF3F1" fill-rule="evenodd" fill-opacity="1"/><path d="M2086.91 633.024 2609.41 633.024 2609.41 766.857 2086.91 766.857Z" fill="#EAF5F3" fill-rule="evenodd" fill-opacity="1"/><path d="M1540 766.857 2086.91 766.857 2086.91 900.69 1540 900.69Z" fill="#EDE7E9" fill-rule="evenodd" fill-opacity="1"/><path d="M2086.91 766.857 2609.41 766.857 2609.41 900.69 2086.91 900.69Z" fill="#EAF5F3" fill-rule="evenodd" fill-opacity="1"/><path d="M1540 900.69 2086.91 900.69 2086.91 1034.52 1540 1034.52Z" fill="#D06F96" fill-rule="evenodd" fill-opacity="1"/><path d="M2086.91 900.69 2609.41 900.69 2609.41 1034.52 2086.91 1034.52Z" fill="#EAF5F3" fill-rule="evenodd" fill-opacity="1"/><path d="M1540 1034.52 2086.91 1034.52 2086.91 1168.36 1540 1168.36Z" fill="#6DD9D1" fill-rule="evenodd" fill-opacity="1"/><path d="M2086.91 1034.52 2609.41 1034.52 2609.41 1168.36 2086.91 1168.36Z" fill="#EAF5F3" fill-rule="evenodd" fill-opacity="1"/><path d="M1540 1168.36 2086.91 1168.36 2086.91 1302.19 1540 1302.19Z" fill="#7C97AB" fill-rule="evenodd" fill-opacity="1"/><path d="M2086.91 1168.36 2609.41 1168.36 2609.41 1302.19 2086.91 1302.19Z" fill="#EAF5F3" fill-rule="evenodd" fill-opacity="1"/><path d="M2086.91 363.065 2086.91 1304.48" stroke="#FFFFFF" stroke-width="4.58333" stroke-linecap="butt" stroke-linejoin="round" stroke-miterlimit="10" stroke-opacity="1" fill="none" fill-rule="evenodd"/><path d="M1537.71 499.19 2611.7 499.19" stroke="#FFFFFF" stroke-width="13.75" stroke-linecap="butt" stroke-linejoin="round" stroke-miterlimit="10" stroke-opacity="1" fill="none" fill-rule="evenodd"/><path d="M1537.71 633.024 2611.7 633.024" stroke="#FFFFFF" stroke-width="4.58333" stroke-linecap="butt" stroke-linejoin="round" stroke-miterlimit="10" stroke-opacity="1" fill="none" fill-rule="evenodd"/><path d="M1537.71 766.857 2611.7 766.857" stroke="#FFFFFF" stroke-width="4.58333" stroke-linecap="butt" stroke-linejoin="round" stroke-miterlimit="10" stroke-opacity="1" fill="none" fill-rule="evenodd"/><path d="M1537.71 900.69 2611.7 900.69" stroke="#FFFFFF" stroke-width="4.58333" stroke-linecap="butt" stroke-linejoin="round" stroke-miterlimit="10" stroke-opacity="1" fill="none" fill-rule="evenodd"/><path d="M1537.71 1034.52 2611.7 1034.52" stroke="#FFFFFF" stroke-width="4.58333" stroke-linecap="butt" stroke-linejoin="round" stroke-miterlimit="10" stroke-opacity="1" fill="none" fill-rule="evenodd"/><path d="M1537.71 1168.36 2611.7 1168.36" stroke="#FFFFFF" stroke-width="4.58333" stroke-linecap="butt" stroke-linejoin="round" stroke-miterlimit="10" stroke-opacity="1" fill="none" fill-rule="evenodd"/><path d="M1540 363.065 1540 1304.48" stroke="#FFFFFF" stroke-width="4.58333" stroke-linecap="butt" stroke-linejoin="round" stroke-miterlimit="10" stroke-opacity="1" fill="none" fill-rule="evenodd"/><path d="M2609.41 363.065 2609.41 1304.48" stroke="#FFFFFF" stroke-width="4.58333" stroke-linecap="butt" stroke-linejoin="round" stroke-miterlimit="10" stroke-opacity="1" fill="none" fill-rule="evenodd"/><path d="M1537.71 365.357 2611.7 365.357" stroke="#FFFFFF" stroke-width="4.58333" stroke-linecap="butt" stroke-linejoin="round" stroke-miterlimit="10" stroke-opacity="1" fill="none" fill-rule="evenodd"/><path d="M1537.71 1302.19 2611.7 1302.19" stroke="#FFFFFF" stroke-width="4.58333" stroke-linecap="butt" stroke-linejoin="round" stroke-miterlimit="10" stroke-opacity="1" fill="none" fill-rule="evenodd"/><g><text fill="#FFFFFF" fill-opacity="1" font-family="Helvetica Neue,Helvetica Neue_MSFontService,sans-serif" font-style="normal" font-variant="normal" font-weight="700" font-stretch="normal" font-size="83" text-anchor="start" direction="ltr" writing-mode="lr-tb" unicode-bidi="normal" text-decoration="none" transform="matrix(1 0 0 1 2119.91 463)">Estado</text></g><g><text fill="#FFFFFF" fill-opacity="1" font-family="Helvetica Neue,Helvetica Neue_MSFontService,sans-serif" font-style="normal" font-variant="normal" font-weight="700" font-stretch="normal" font-size="83" text-anchor="start" direction="ltr" writing-mode="lr-tb" unicode-bidi="normal" text-decoration="none" transform="matrix(1 0 0 1 1573 463)">Cidade</text></g><g><text fill="#202A32" fill-opacity="1" font-family="Helvetica Neue,Helvetica Neue_MSFontService,sans-serif" font-style="normal" font-variant="normal" font-weight="400" font-stretch="normal" font-size="83" text-anchor="start" direction="ltr" writing-mode="lr-tb" unicode-bidi="normal" text-decoration="none" transform="matrix(1 0 0 1 2119.91 597)">P</text></g><text fill="#202A32" fill-opacity="1" font-family="Helvetica Neue,Helvetica Neue_MSFontService,sans-serif" font-style="normal" font-variant="normal" font-weight="400" font-stretch="normal" font-size="83" text-anchor="start" direction="ltr" writing-mode="lr-tb" unicode-bidi="normal" text-decoration="none" transform="matrix(1 0 0 1 2173.19 597)">R</text><g><text fill="#202A32" fill-opacity="1" font-family="Helvetica Neue,Helvetica Neue_MSFontService,sans-serif" font-style="normal" font-variant="normal" font-weight="400" font-stretch="normal" font-size="83" text-anchor="start" direction="ltr" writing-mode="lr-tb" unicode-bidi="normal" text-decoration="none" transform="matrix(1 0 0 1 1573 597)">Curitiba</text></g><g><text fill="#202A32" fill-opacity="1" font-family="Helvetica Neue,Helvetica Neue_MSFontService,sans-serif" font-style="normal" font-variant="normal" font-weight="400" font-stretch="normal" font-size="83" text-anchor="start" direction="ltr" writing-mode="lr-tb" unicode-bidi="normal" text-decoration="none" transform="matrix(1 0 0 1 2119.91 731)">S</text></g><text fill="#202A32" fill-opacity="1" font-family="Helvetica Neue,Helvetica Neue_MSFontService,sans-serif" font-style="normal" font-variant="normal" font-weight="400" font-stretch="normal" font-size="83" text-anchor="start" direction="ltr" writing-mode="lr-tb" unicode-bidi="normal" text-decoration="none" transform="matrix(1 0 0 1 2173.19 731)">P</text><g><text fill="#202A32" fill-opacity="1" font-family="Helvetica Neue,Helvetica Neue_MSFontService,sans-serif" font-style="normal" font-variant="normal" font-weight="400" font-stretch="normal" font-size="83" text-anchor="start" direction="ltr" writing-mode="lr-tb" unicode-bidi="normal" text-decoration="none" transform="matrix(1 0 0 1 1573 731)">São Paulo</text></g><g><text fill="#202A32" fill-opacity="1" font-family="Helvetica Neue,Helvetica Neue_MSFontService,sans-serif" font-style="normal" font-variant="normal" font-weight="400" font-stretch="normal" font-size="83" text-anchor="start" direction="ltr" writing-mode="lr-tb" unicode-bidi="normal" text-decoration="none" transform="matrix(1 0 0 1 2119.91 864)">A</text></g><text fill="#202A32" fill-opacity="1" font-family="Helvetica Neue,Helvetica Neue_MSFontService,sans-serif" font-style="normal" font-variant="normal" font-weight="400" font-stretch="normal" font-size="83" text-anchor="start" direction="ltr" writing-mode="lr-tb" unicode-bidi="normal" text-decoration="none" transform="matrix(1 0 0 1 2173.19 864)">M</text><g><text fill="#202A32" fill-opacity="1" font-family="Helvetica Neue,Helvetica Neue_MSFontService,sans-serif" font-style="normal" font-variant="normal" font-weight="400" font-stretch="normal" font-size="83" text-anchor="start" direction="ltr" writing-mode="lr-tb" unicode-bidi="normal" text-decoration="none" transform="matrix(1 0 0 1 1573 864)">Manaus</text></g><g><text fill="#202A32" fill-opacity="1" font-family="Helvetica Neue,Helvetica Neue_MSFontService,sans-serif" font-style="normal" font-variant="normal" font-weight="400" font-stretch="normal" font-size="83" text-anchor="start" direction="ltr" writing-mode="lr-tb" unicode-bidi="normal" text-decoration="none" transform="matrix(1 0 0 1 2119.91 998)">R</text></g><text fill="#202A32" fill-opacity="1" font-family="Helvetica Neue,Helvetica Neue_MSFontService,sans-serif" font-style="normal" font-variant="normal" font-weight="400" font-stretch="normal" font-size="83" text-anchor="start" direction="ltr" writing-mode="lr-tb" unicode-bidi="normal" text-decoration="none" transform="matrix(1 0 0 1 2176.62 998)">N</text><g><text fill="#202A32" fill-opacity="1" font-family="Helvetica Neue,Helvetica Neue_MSFontService,sans-serif" font-style="normal" font-variant="normal" font-weight="400" font-stretch="normal" font-size="83" text-anchor="start" direction="ltr" writing-mode="lr-tb" unicode-bidi="normal" text-decoration="none" transform="matrix(1 0 0 1 1573 998)">Natal</text></g><g><text fill="#202A32" fill-opacity="1" font-family="Helvetica Neue,Helvetica Neue_MSFontService,sans-serif" font-style="normal" font-variant="normal" font-weight="400" font-stretch="normal" font-size="83" text-anchor="start" direction="ltr" writing-mode="lr-tb" unicode-bidi="normal" text-decoration="none" transform="matrix(1 0 0 1 2119.91 1132)">R</text></g><text fill="#202A32" fill-opacity="1" font-family="Helvetica Neue,Helvetica Neue_MSFontService,sans-serif" font-style="normal" font-variant="normal" font-weight="400" font-stretch="normal" font-size="83" text-anchor="start" direction="ltr" writing-mode="lr-tb" unicode-bidi="normal" text-decoration="none" transform="matrix(1 0 0 1 2176.62 1132)">S</text><g><text fill="#202A32" fill-opacity="1" font-family="Helvetica Neue,Helvetica Neue_MSFontService,sans-serif" font-style="normal" font-variant="normal" font-weight="400" font-stretch="normal" font-size="83" text-anchor="start" direction="ltr" writing-mode="lr-tb" unicode-bidi="normal" text-decoration="none" transform="matrix(1 0 0 1 1573 1132)">Porto Alegre</text></g><g><text fill="#202A32" fill-opacity="1" font-family="Helvetica Neue,Helvetica Neue_MSFontService,sans-serif" font-style="normal" font-variant="normal" font-weight="400" font-stretch="normal" font-size="83" text-anchor="start" direction="ltr" writing-mode="lr-tb" unicode-bidi="normal" text-decoration="none" transform="matrix(1 0 0 1 2119.91 1266)">C</text></g><text fill="#202A32" fill-opacity="1" font-family="Helvetica Neue,Helvetica Neue_MSFontService,sans-serif" font-style="normal" font-variant="normal" font-weight="400" font-stretch="normal" font-size="83" text-anchor="start" direction="ltr" writing-mode="lr-tb" unicode-bidi="normal" text-decoration="none" transform="matrix(1 0 0 1 2179.49 1266)">E</text><g><text fill="#202A32" fill-opacity="1" font-family="Helvetica Neue,Helvetica Neue_MSFontService,sans-serif" font-style="normal" font-variant="normal" font-weight="400" font-stretch="normal" font-size="83" text-anchor="start" direction="ltr" writing-mode="lr-tb" unicode-bidi="normal" text-decoration="none" transform="matrix(1 0 0 1 1573 1266)">Fortaleza</text></g><path d="M2970 365.357 3516.91 365.357 3516.91 596.357 2970 596.357Z" fill="#59C3BB" fill-rule="evenodd" fill-opacity="1"/><path d="M3516.91 365.357 3799.71 365.357 3799.71 596.357 3516.91 596.357Z" fill="#59C3BB" fill-rule="evenodd" fill-opacity="1"/><path d="M3799.71 365.357 4203.28 365.357 4203.28 596.357 3799.71 596.357Z" fill="#59C3BB" fill-rule="evenodd" fill-opacity="1"/><path d="M2970 596.357 3516.91 596.357 3516.91 730.19 2970 730.19Z" fill="#E09FB9" fill-rule="evenodd" fill-opacity="1"/><path d="M3516.91 596.357 3799.71 596.357 3799.71 730.19 3516.91 730.19Z" fill="#EAF5F3" fill-rule="evenodd" fill-opacity="1"/><path d="M3799.71 596.357 4203.28 596.357 4203.28 730.19 3799.71 730.19Z" fill="#EAF5F3" fill-rule="evenodd" fill-opacity="1"/><path d="M2970 730.19 3516.91 730.19 3516.91 864.024 2970 864.024Z" fill="#DEF3F1" fill-rule="evenodd" fill-opacity="1"/><path d="M3516.91 730.19 3799.71 730.19 3799.71 864.024 3516.91 864.024Z" fill="#EAF5F3" fill-rule="evenodd" fill-opacity="1"/><path d="M3799.71 730.19 4203.28 730.19 4203.28 864.024 3799.71 864.024Z" fill="#EAF5F3" fill-rule="evenodd" fill-opacity="1"/><path d="M2970 864.024 3516.91 864.024 3516.91 997.857 2970 997.857Z" fill="#EDE7E9" fill-rule="evenodd" fill-opacity="1"/><path d="M3516.91 864.024 3799.71 864.024 3799.71 997.857 3516.91 997.857Z" fill="#EAF5F3" fill-rule="evenodd" fill-opacity="1"/><path d="M3799.71 864.024 4203.28 864.024 4203.28 997.857 3799.71 997.857Z" fill="#EAF5F3" fill-rule="evenodd" fill-opacity="1"/><path d="M2970 997.857 3516.91 997.857 3516.91 1131.69 2970 1131.69Z" fill="#D06F96" fill-rule="evenodd" fill-opacity="1"/><path d="M3516.91 997.857 3799.71 997.857 3799.71 1131.69 3516.91 1131.69Z" fill="#EAF5F3" fill-rule="evenodd" fill-opacity="1"/><path d="M3799.71 997.857 4203.28 997.857 4203.28 1131.69 3799.71 1131.69Z" fill="#EAF5F3" fill-rule="evenodd" fill-opacity="1"/><path d="M2970 1131.69 3516.91 1131.69 3516.91 1265.52 2970 1265.52Z" fill="#6DD9D1" fill-rule="evenodd" fill-opacity="1"/><path d="M3516.91 1131.69 3799.71 1131.69 3799.71 1265.52 3516.91 1265.52Z" fill="#EAF5F3" fill-rule="evenodd" fill-opacity="1"/><path d="M3799.71 1131.69 4203.28 1131.69 4203.28 1265.52 3799.71 1265.52Z" fill="#EAF5F3" fill-rule="evenodd" fill-opacity="1"/><path d="M2970 1265.52 3516.91 1265.52 3516.91 1399.36 2970 1399.36Z" fill="#1BD1FF" fill-rule="evenodd" fill-opacity="1"/><path d="M3516.91 1265.52 3799.71 1265.52 3799.71 1399.36 3516.91 1399.36Z" fill="#EAF5F3" fill-rule="evenodd" fill-opacity="1"/><path d="M3799.71 1265.52 4203.28 1265.52 4203.28 1399.36 3799.71 1399.36Z" fill="#EAF5F3" fill-rule="evenodd" fill-opacity="1"/><path d="M2970 1399.36 3516.91 1399.36 3516.91 1533.19 2970 1533.19Z" fill="#7C97AB" fill-rule="evenodd" fill-opacity="1"/><path d="M3516.91 1399.36 3799.71 1399.36 3799.71 1533.19 3516.91 1533.19Z" fill="#EAF5F3" fill-rule="evenodd" fill-opacity="1"/><path d="M3799.71 1399.36 4203.28 1399.36 4203.28 1533.19 3799.71 1533.19Z" fill="#EAF5F3" fill-rule="evenodd" fill-opacity="1"/><path d="M3516.91 363.065 3516.91 1535.48" stroke="#FFFFFF" stroke-width="4.58333" stroke-linecap="butt" stroke-linejoin="round" stroke-miterlimit="10" stroke-opacity="1" fill="none" fill-rule="evenodd"/><path d="M3799.71 363.065 3799.71 1535.48" stroke="#FFFFFF" stroke-width="4.58333" stroke-linecap="butt" stroke-linejoin="round" stroke-miterlimit="10" stroke-opacity="1" fill="none" fill-rule="evenodd"/><path d="M2967.71 596.357 4205.57 596.357" stroke="#FFFFFF" stroke-width="13.75" stroke-linecap="butt" stroke-linejoin="round" stroke-miterlimit="10" stroke-opacity="1" fill="none" fill-rule="evenodd"/><path d="M2967.71 730.19 4205.57 730.19" stroke="#FFFFFF" stroke-width="4.58333" stroke-linecap="butt" stroke-linejoin="round" stroke-miterlimit="10" stroke-opacity="1" fill="none" fill-rule="evenodd"/><path d="M2967.71 864.024 4205.57 864.024" stroke="#FFFFFF" stroke-width="4.58333" stroke-linecap="butt" stroke-linejoin="round" stroke-miterlimit="10" stroke-opacity="1" fill="none" fill-rule="evenodd"/><path d="M2967.71 997.857 4205.57 997.857" stroke="#FFFFFF" stroke-width="4.58333" stroke-linecap="butt" stroke-linejoin="round" stroke-miterlimit="10" stroke-opacity="1" fill="none" fill-rule="evenodd"/><path d="M2967.71 1131.69 4205.57 1131.69" stroke="#FFFFFF" stroke-width="4.58333" stroke-linecap="butt" stroke-linejoin="round" stroke-miterlimit="10" stroke-opacity="1" fill="none" fill-rule="evenodd"/><path d="M2967.71 1265.52 4205.57 1265.52" stroke="#FFFFFF" stroke-width="4.58333" stroke-linecap="butt" stroke-linejoin="round" stroke-miterlimit="10" stroke-opacity="1" fill="none" fill-rule="evenodd"/><path d="M2967.71 1399.36 4205.57 1399.36" stroke="#FFFFFF" stroke-width="4.58333" stroke-linecap="butt" stroke-linejoin="round" stroke-miterlimit="10" stroke-opacity="1" fill="none" fill-rule="evenodd"/><path d="M2970 363.065 2970 1535.48" stroke="#FFFFFF" stroke-width="4.58333" stroke-linecap="butt" stroke-linejoin="round" stroke-miterlimit="10" stroke-opacity="1" fill="none" fill-rule="evenodd"/><path d="M4203.28 363.065 4203.28 1535.48" stroke="#FFFFFF" stroke-width="4.58333" stroke-linecap="butt" stroke-linejoin="round" stroke-miterlimit="10" stroke-opacity="1" fill="none" fill-rule="evenodd"/><path d="M2967.71 365.357 4205.57 365.357" stroke="#FFFFFF" stroke-width="4.58333" stroke-linecap="butt" stroke-linejoin="round" stroke-miterlimit="10" stroke-opacity="1" fill="none" fill-rule="evenodd"/><path d="M2967.71 1533.19 4205.57 1533.19" stroke="#FFFFFF" stroke-width="4.58333" stroke-linecap="butt" stroke-linejoin="round" stroke-miterlimit="10" stroke-opacity="1" fill="none" fill-rule="evenodd"/><g><text fill="#FFFFFF" fill-opacity="1" font-family="Helvetica Neue,Helvetica Neue_MSFontService,sans-serif" font-style="normal" font-variant="normal" font-weight="700" font-stretch="normal" font-size="83" text-anchor="start" direction="ltr" writing-mode="lr-tb" unicode-bidi="normal" text-decoration="none" transform="matrix(1 0 0 1 3832.71 463)">Estado</text></g><g><text fill="#FFFFFF" fill-opacity="1" font-family="Helvetica Neue,Helvetica Neue_MSFontService,sans-serif" font-style="normal" font-variant="normal" font-weight="700" font-stretch="normal" font-size="83" text-anchor="start" direction="ltr" writing-mode="lr-tb" unicode-bidi="normal" text-decoration="none" transform="matrix(1 0 0 1 3549.91 463)">Nom</text></g><g><text fill="#FFFFFF" fill-opacity="1" font-family="Helvetica Neue,Helvetica Neue_MSFontService,sans-serif" font-style="normal" font-variant="normal" font-weight="700" font-stretch="normal" font-size="83" text-anchor="start" direction="ltr" writing-mode="lr-tb" unicode-bidi="normal" text-decoration="none" transform="matrix(1 0 0 1 3549.91 562)">e</text></g><g><text fill="#FFFFFF" fill-opacity="1" font-family="Helvetica Neue,Helvetica Neue_MSFontService,sans-serif" font-style="normal" font-variant="normal" font-weight="700" font-stretch="normal" font-size="83" text-anchor="start" direction="ltr" writing-mode="lr-tb" unicode-bidi="normal" text-decoration="none" transform="matrix(1 0 0 1 3003 463)">Cidade</text></g><g><text fill="#202A32" fill-opacity="1" font-family="Helvetica Neue,Helvetica Neue_MSFontService,sans-serif" font-style="normal" font-variant="normal" font-weight="400" font-stretch="normal" font-size="83" text-anchor="start" direction="ltr" writing-mode="lr-tb" unicode-bidi="normal" text-decoration="none" transform="matrix(1 0 0 1 3832.71 694)">PR</text></g><g><text fill="#202A32" fill-opacity="1" font-family="Helvetica Neue,Helvetica Neue_MSFontService,sans-serif" font-style="normal" font-variant="normal" font-weight="400" font-stretch="normal" font-size="83" text-anchor="start" direction="ltr" writing-mode="lr-tb" unicode-bidi="normal" text-decoration="none" transform="matrix(1 0 0 1 3549.91 694)">A</text></g><g><text fill="#202A32" fill-opacity="1" font-family="Helvetica Neue,Helvetica Neue_MSFontService,sans-serif" font-style="normal" font-variant="normal" font-weight="400" font-stretch="normal" font-size="83" text-anchor="start" direction="ltr" writing-mode="lr-tb" unicode-bidi="normal" text-decoration="none" transform="matrix(1 0 0 1 3003 694)">Curitiba</text></g><g><text fill="#202A32" fill-opacity="1" font-family="Helvetica Neue,Helvetica Neue_MSFontService,sans-serif" font-style="normal" font-variant="normal" font-weight="400" font-stretch="normal" font-size="83" text-anchor="start" direction="ltr" writing-mode="lr-tb" unicode-bidi="normal" text-decoration="none" transform="matrix(1 0 0 1 3832.71 828)">SP</text></g><g><text fill="#202A32" fill-opacity="1" font-family="Helvetica Neue,Helvetica Neue_MSFontService,sans-serif" font-style="normal" font-variant="normal" font-weight="400" font-stretch="normal" font-size="83" text-anchor="start" direction="ltr" writing-mode="lr-tb" unicode-bidi="normal" text-decoration="none" transform="matrix(1 0 0 1 3549.91 828)">B</text></g><g><text fill="#202A32" fill-opacity="1" font-family="Helvetica Neue,Helvetica Neue_MSFontService,sans-serif" font-style="normal" font-variant="normal" font-weight="400" font-stretch="normal" font-size="83" text-anchor="start" direction="ltr" writing-mode="lr-tb" unicode-bidi="normal" text-decoration="none" transform="matrix(1 0 0 1 3003 828)">São Paulo</text></g><g><text fill="#202A32" fill-opacity="1" font-family="Helvetica Neue,Helvetica Neue_MSFontService,sans-serif" font-style="normal" font-variant="normal" font-weight="400" font-stretch="normal" font-size="83" text-anchor="start" direction="ltr" writing-mode="lr-tb" unicode-bidi="normal" text-decoration="none" transform="matrix(1 0 0 1 3832.71 962)">AM</text></g><g><text fill="#202A32" fill-opacity="1" font-family="Helvetica Neue,Helvetica Neue_MSFontService,sans-serif" font-style="normal" font-variant="normal" font-weight="400" font-stretch="normal" font-size="83" text-anchor="start" direction="ltr" writing-mode="lr-tb" unicode-bidi="normal" text-decoration="none" transform="matrix(1 0 0 1 3549.91 962)">C</text></g><g><text fill="#202A32" fill-opacity="1" font-family="Helvetica Neue,Helvetica Neue_MSFontService,sans-serif" font-style="normal" font-variant="normal" font-weight="400" font-stretch="normal" font-size="83" text-anchor="start" direction="ltr" writing-mode="lr-tb" unicode-bidi="normal" text-decoration="none" transform="matrix(1 0 0 1 3003 962)">Manaus</text></g><g><text fill="#202A32" fill-opacity="1" font-family="Helvetica Neue,Helvetica Neue_MSFontService,sans-serif" font-style="normal" font-variant="normal" font-weight="400" font-stretch="normal" font-size="83" text-anchor="start" direction="ltr" writing-mode="lr-tb" unicode-bidi="normal" text-decoration="none" transform="matrix(1 0 0 1 3832.71 1095)">RN</text></g><g><text fill="#202A32" fill-opacity="1" font-family="Helvetica Neue,Helvetica Neue_MSFontService,sans-serif" font-style="normal" font-variant="normal" font-weight="400" font-stretch="normal" font-size="83" text-anchor="start" direction="ltr" writing-mode="lr-tb" unicode-bidi="normal" text-decoration="none" transform="matrix(1 0 0 1 3549.91 1095)">D</text></g><g><text fill="#202A32" fill-opacity="1" font-family="Helvetica Neue,Helvetica Neue_MSFontService,sans-serif" font-style="normal" font-variant="normal" font-weight="400" font-stretch="normal" font-size="83" text-anchor="start" direction="ltr" writing-mode="lr-tb" unicode-bidi="normal" text-decoration="none" transform="matrix(1 0 0 1 3003 1095)">Natal</text></g><g><text fill="#202A32" fill-opacity="1" font-family="Helvetica Neue,Helvetica Neue_MSFontService,sans-serif" font-style="normal" font-variant="normal" font-weight="400" font-stretch="normal" font-size="83" text-anchor="start" direction="ltr" writing-mode="lr-tb" unicode-bidi="normal" text-decoration="none" transform="matrix(1 0 0 1 3832.71 1229)">RS</text></g><g><text fill="#202A32" fill-opacity="1" font-family="Helvetica Neue,Helvetica Neue_MSFontService,sans-serif" font-style="normal" font-variant="normal" font-weight="400" font-stretch="normal" font-size="83" text-anchor="start" direction="ltr" writing-mode="lr-tb" unicode-bidi="normal" text-decoration="none" transform="matrix(1 0 0 1 3549.91 1229)">E</text></g><g><text fill="#202A32" fill-opacity="1" font-family="Helvetica Neue,Helvetica Neue_MSFontService,sans-serif" font-style="normal" font-variant="normal" font-weight="400" font-stretch="normal" font-size="83" text-anchor="start" direction="ltr" writing-mode="lr-tb" unicode-bidi="normal" text-decoration="none" transform="matrix(1 0 0 1 3003 1229)">Porto Alegre</text></g><g><text fill="#FF0000" fill-opacity="1" font-family="Helvetica Neue,Helvetica Neue_MSFontService,sans-serif" font-style="normal" font-variant="normal" font-weight="700" font-stretch="normal" font-size="83" text-anchor="start" direction="ltr" writing-mode="lr-tb" unicode-bidi="normal" text-decoration="none" transform="matrix(1 0 0 1 3832.71 1363)">NA</text></g><g><text fill="#202A32" fill-opacity="1" font-family="Helvetica Neue,Helvetica Neue_MSFontService,sans-serif" font-style="normal" font-variant="normal" font-weight="400" font-stretch="normal" font-size="83" text-anchor="start" direction="ltr" writing-mode="lr-tb" unicode-bidi="normal" text-decoration="none" transform="matrix(1 0 0 1 3549.91 1363)">F</text></g><g><text fill="#202A32" fill-opacity="1" font-family="Helvetica Neue,Helvetica Neue_MSFontService,sans-serif" font-style="normal" font-variant="normal" font-weight="400" font-stretch="normal" font-size="83" text-anchor="start" direction="ltr" writing-mode="lr-tb" unicode-bidi="normal" text-decoration="none" transform="matrix(1 0 0 1 3003 1363)">Araucária</text></g><g><text fill="#202A32" fill-opacity="1" font-family="Helvetica Neue,Helvetica Neue_MSFontService,sans-serif" font-style="normal" font-variant="normal" font-weight="400" font-stretch="normal" font-size="83" text-anchor="start" direction="ltr" writing-mode="lr-tb" unicode-bidi="normal" text-decoration="none" transform="matrix(1 0 0 1 3832.71 1497)">CE</text></g><g><text fill="#FF0000" fill-opacity="1" font-family="Helvetica Neue,Helvetica Neue_MSFontService,sans-serif" font-style="normal" font-variant="normal" font-weight="700" font-stretch="normal" font-size="83" text-anchor="start" direction="ltr" writing-mode="lr-tb" unicode-bidi="normal" text-decoration="none" transform="matrix(1 0 0 1 3549.91 1497)">NA</text></g><g><text fill="#202A32" fill-opacity="1" font-family="Helvetica Neue,Helvetica Neue_MSFontService,sans-serif" font-style="normal" font-variant="normal" font-weight="400" font-stretch="normal" font-size="83" text-anchor="start" direction="ltr" writing-mode="lr-tb" unicode-bidi="normal" text-decoration="none" transform="matrix(1 0 0 1 3003 1497)">Fortaleza</text></g></g></g></svg>