<svg width="4285" height="2223" xmlns="http://www.w3.org/2000/svg" xmlns:xlink="http://www.w3.org/1999/xlink" xml:space="preserve" overflow="hidden"><g transform="translate(-96 -238)"><g><path d="M2190.5 1656.5 2205.94 1668.62C2299.11 1749.28 2358.5 1871.37 2358.5 2008 2358.5 2144.63 2299.11 2266.72 2205.94 2347.38L2190.5 2359.5 2175.06 2347.38C2081.89 2266.72 2022.5 2144.63 2022.5 2008 2022.5 1871.37 2081.89 1749.28 2175.06 1668.62L2190.5 1656.5Z" stroke="#912F56" stroke-width="20.625" stroke-linecap="butt" stroke-linejoin="miter" stroke-miterlimit="8" stroke-opacity="1" fill="#E09FB9" fill-rule="evenodd" fill-opacity="1"/><path d="M1939.07 1568.5C2025.97 1568.5 2106.69 1596.2 2173.66 1643.65L2190.5 1656.85 2175.04 1668.97C2081.8 1749.68 2022.36 1871.81 2022.36 2008.5 2022.36 2145.19 2081.8 2267.32 2175.04 2348.03L2190.5 2360.15 2173.66 2373.35C2106.69 2420.8 2025.97 2448.5 1939.07 2448.5 1707.35 2448.5 1519.5 2251.51 1519.5 2008.5 1519.5 1765.49 1707.35 1568.5 1939.07 1568.5Z" stroke="#912F56" stroke-width="20.625" stroke-linecap="butt" stroke-linejoin="miter" stroke-miterlimit="8" stroke-opacity="1" fill="none" fill-rule="evenodd"/><path d="M1854.03 1992.57 1846.62 2014.86 1861.49 2014.86 1854.07 1992.57ZM1854.2 1982.31C1855.79 1982.31 1857.06 1982.33 1858.01 1982.38 1858.95 1982.42 1859.69 1982.51 1860.21 1982.66 1860.74 1982.81 1861.12 1983.03 1861.35 1983.33 1861.58 1983.62 1861.77 1984.03 1861.94 1984.54L1878.15 2031.03C1878.47 2032 1878.67 2032.77 1878.76 2033.34 1878.84 2033.91 1878.73 2034.33 1878.43 2034.61 1878.13 2034.9 1877.61 2035.07 1876.85 2035.14 1876.09 2035.21 1875.05 2035.24 1873.73 2035.24 1872.35 2035.24 1871.28 2035.22 1870.51 2035.18 1869.74 2035.14 1869.15 2035.06 1868.75 2034.94 1868.34 2034.82 1868.06 2034.65 1867.89 2034.43 1867.73 2034.22 1867.6 2033.93 1867.49 2033.58L1863.96 2023.04 1844.27 2023.04 1840.94 2033.3C1840.84 2033.68 1840.69 2033.99 1840.52 2034.25 1840.34 2034.51 1840.06 2034.71 1839.67 2034.86 1839.28 2035.01 1838.72 2035.11 1838.01 2035.16 1837.29 2035.22 1836.35 2035.24 1835.19 2035.24 1833.95 2035.24 1832.97 2035.2 1832.27 2035.12 1831.57 2035.04 1831.08 2034.84 1830.81 2034.53 1830.54 2034.22 1830.45 2033.78 1830.53 2033.22 1830.61 2032.65 1830.81 2031.89 1831.14 2030.95L1847.31 1984.42C1847.47 1983.96 1847.66 1983.59 1847.87 1983.31 1848.09 1983.02 1848.43 1982.81 1848.91 1982.66 1849.38 1982.51 1850.04 1982.42 1850.87 1982.38 1851.71 1982.33 1852.82 1982.31 1854.2 1982.31Z" stroke="#912F56" stroke-width="8" stroke-linecap="butt" stroke-linejoin="round" stroke-miterlimit="10" stroke-opacity="1" fill="#E09FB9" fill-rule="evenodd" fill-opacity="1"/><text fill="#000000" fill-opacity="0" font-family="Arial,Arial_MSFontService,sans-serif" font-size="52.9287" direction="ltr" writing-mode="lr-tb" x="1830.5" y="2028.63">A</text><path d="M2441.55 1568.5C2672.93 1568.5 2860.5 1765.49 2860.5 2008.5 2860.5 2251.51 2672.93 2448.5 2441.55 2448.5 2354.79 2448.5 2274.18 2420.8 2207.32 2373.35L2190.5 2360.15 2205.93 2348.03C2299.04 2267.32 2358.39 2145.19 2358.39 2008.5 2358.39 1871.81 2299.04 1749.68 2205.93 1668.97L2190.5 1656.85 2207.32 1643.65C2274.18 1596.2 2354.79 1568.5 2441.55 1568.5Z" stroke="#912F56" stroke-width="20.625" stroke-linecap="butt" stroke-linejoin="miter" stroke-miterlimit="8" stroke-opacity="1" fill="none" fill-rule="evenodd"/><path d="M2517.77 2011.94 2517.77 2026.85 2525.47 2026.85C2526.95 2026.85 2528.2 2026.7 2529.22 2026.39 2530.23 2026.08 2531.11 2025.62 2531.85 2025.01 2532.59 2024.4 2533.17 2023.65 2533.59 2022.74 2534.01 2021.84 2534.22 2020.8 2534.22 2019.64 2534.22 2018.42 2534.02 2017.34 2533.61 2016.38 2533.21 2015.42 2532.61 2014.61 2531.83 2013.97 2531.05 2013.32 2530.05 2012.82 2528.83 2012.47 2527.61 2012.12 2526.03 2011.94 2524.09 2011.94ZM2517.77 1990.54 2517.77 2004.16 2523.72 2004.16C2525.26 2004.16 2526.49 2003.98 2527.41 2003.61 2528.33 2003.25 2529.09 2002.75 2529.7 2002.11 2530.31 2001.48 2530.76 2000.73 2531.06 1999.88 2531.36 1999.03 2531.5 1998.13 2531.5 1997.19 2531.5 1996.13 2531.34 1995.19 2531.02 1994.35 2530.69 1993.51 2530.21 1992.82 2529.56 1992.26 2528.91 1991.71 2528.09 1991.28 2527.11 1990.99 2526.12 1990.69 2524.8 1990.54 2523.16 1990.54ZM2510.47 1982.56 2523.64 1982.56C2526.86 1982.56 2529.58 1982.83 2531.81 1983.37 2534.04 1983.91 2535.92 1984.73 2537.44 1985.82 2538.97 1986.91 2540.14 1988.3 2540.95 1989.97 2541.76 1991.65 2542.16 1993.62 2542.16 1995.89 2542.16 1997.16 2542 1998.36 2541.68 1999.48 2541.35 2000.6 2540.88 2001.62 2540.26 2002.54 2539.64 2003.46 2538.87 2004.27 2537.97 2004.97 2537.06 2005.67 2536.03 2006.24 2534.87 2006.67 2536.35 2006.94 2537.73 2007.41 2538.98 2008.09 2540.24 2008.77 2541.33 2009.64 2542.26 2010.7 2543.2 2011.77 2543.93 2013.02 2544.47 2014.45 2545.01 2015.88 2545.28 2017.49 2545.28 2019.28 2545.28 2021.14 2545.03 2022.83 2544.51 2024.34 2544 2025.85 2543.29 2027.19 2542.39 2028.35 2541.48 2029.52 2540.4 2030.51 2539.14 2031.35 2537.89 2032.19 2536.5 2032.88 2534.99 2033.42 2533.48 2033.96 2531.86 2034.36 2530.15 2034.61 2528.43 2034.87 2526.52 2035 2524.41 2035L2510.47 2035C2509.58 2035 2508.83 2034.74 2508.22 2034.21 2507.61 2033.68 2507.31 2032.82 2507.31 2031.64L2507.31 1985.92C2507.31 1984.73 2507.61 1983.87 2508.22 1983.35 2508.83 1982.82 2509.58 1982.56 2510.47 1982.56Z" stroke="#912F56" stroke-width="8" stroke-linecap="butt" stroke-linejoin="round" stroke-miterlimit="10" stroke-opacity="1" fill="#E09FB9" fill-rule="evenodd" fill-opacity="1"/><text fill="#000000" fill-opacity="0" font-family="Arial,Arial_MSFontService,sans-serif" font-size="52.4424" direction="ltr" writing-mode="lr-tb" x="2507.31" y="2028.44">B</text><path d="M101.855 520.667 648.762 520.667 648.762 654.5 101.855 654.5Z" fill="#59C3BB" fill-rule="evenodd" fill-opacity="1"/><path d="M648.762 520.667 1171.26 520.667 1171.26 654.5 648.762 654.5Z" fill="#59C3BB" fill-rule="evenodd" fill-opacity="1"/><path d="M101.855 654.5 648.762 654.5 648.762 788.333 101.855 788.333Z" fill="#E09FB9" fill-rule="evenodd" fill-opacity="1"/><path d="M648.762 654.5 1171.26 654.5 1171.26 788.333 648.762 788.333Z" fill="#EAF5F3" fill-rule="evenodd" fill-opacity="1"/><path d="M101.855 788.333 648.762 788.333 648.762 922.167 101.855 922.167Z" fill="#DEF3F1" fill-rule="evenodd" fill-opacity="1"/><path d="M648.762 788.333 1171.26 788.333 1171.26 922.167 648.762 922.167Z" fill="#EAF5F3" fill-rule="evenodd" fill-opacity="1"/><path d="M101.855 922.167 648.762 922.167 648.762 1056 101.855 1056Z" fill="#EDE7E9" fill-rule="evenodd" fill-opacity="1"/><path d="M648.762 922.167 1171.26 922.167 1171.26 1056 648.762 1056Z" fill="#EAF5F3" fill-rule="evenodd" fill-opacity="1"/><path d="M101.855 1056 648.762 1056 648.762 1189.83 101.855 1189.83Z" fill="#D06F96" fill-rule="evenodd" fill-opacity="1"/><path d="M648.762 1056 1171.26 1056 1171.26 1189.83 648.762 1189.83Z" fill="#EAF5F3" fill-rule="evenodd" fill-opacity="1"/><path d="M101.855 1189.83 648.762 1189.83 648.762 1323.67 101.855 1323.67Z" fill="#6DD9D1" fill-rule="evenodd" fill-opacity="1"/><path d="M648.762 1189.83 1171.26 1189.83 1171.26 1323.67 648.762 1323.67Z" fill="#EAF5F3" fill-rule="evenodd" fill-opacity="1"/><path d="M101.855 1323.67 648.762 1323.67 648.762 1457.5 101.855 1457.5Z" fill="#1BD1FF" fill-rule="evenodd" fill-opacity="1"/><path d="M648.762 1323.67 1171.26 1323.67 1171.26 1457.5 648.762 1457.5Z" fill="#EAF5F3" fill-rule="evenodd" fill-opacity="1"/><path d="M648.762 518.375 648.762 1459.79" stroke="#FFFFFF" stroke-width="4.58333" stroke-linecap="butt" stroke-linejoin="round" stroke-miterlimit="10" stroke-opacity="1" fill="none" fill-rule="evenodd"/><path d="M99.5637 654.5 1173.55 654.5" stroke="#FFFFFF" stroke-width="13.75" stroke-linecap="butt" stroke-linejoin="round" stroke-miterlimit="10" stroke-opacity="1" fill="none" fill-rule="evenodd"/><path d="M99.5637 788.333 1173.55 788.333" stroke="#FFFFFF" stroke-width="4.58333" stroke-linecap="butt" stroke-linejoin="round" stroke-miterlimit="10" stroke-opacity="1" fill="none" fill-rule="evenodd"/><path d="M99.5637 922.167 1173.55 922.167" stroke="#FFFFFF" stroke-width="4.58333" stroke-linecap="butt" stroke-linejoin="round" stroke-miterlimit="10" stroke-opacity="1" fill="none" fill-rule="evenodd"/><path d="M99.5637 1056 1173.55 1056" stroke="#FFFFFF" stroke-width="4.58333" stroke-linecap="butt" stroke-linejoin="round" stroke-miterlimit="10" stroke-opacity="1" fill="none" fill-rule="evenodd"/><path d="M99.5637 1189.83 1173.55 1189.83" stroke="#FFFFFF" stroke-width="4.58333" stroke-linecap="butt" stroke-linejoin="round" stroke-miterlimit="10" stroke-opacity="1" fill="none" fill-rule="evenodd"/><path d="M99.5637 1323.67 1173.55 1323.67" stroke="#FFFFFF" stroke-width="4.58333" stroke-linecap="butt" stroke-linejoin="round" stroke-miterlimit="10" stroke-opacity="1" fill="none" fill-rule="evenodd"/><path d="M101.855 518.375 101.855 1459.79" stroke="#FFFFFF" stroke-width="4.58333" stroke-linecap="butt" stroke-linejoin="round" stroke-miterlimit="10" stroke-opacity="1" fill="none" fill-rule="evenodd"/><path d="M1171.26 518.375 1171.26 1459.79" stroke="#FFFFFF" stroke-width="4.58333" stroke-linecap="butt" stroke-linejoin="round" stroke-miterlimit="10" stroke-opacity="1" fill="none" fill-rule="evenodd"/><path d="M99.5637 520.667 1173.55 520.667" stroke="#FFFFFF" stroke-width="4.58333" stroke-linecap="butt" stroke-linejoin="round" stroke-miterlimit="10" stroke-opacity="1" fill="none" fill-rule="evenodd"/><path d="M99.5637 1457.5 1173.55 1457.5" stroke="#FFFFFF" stroke-width="4.58333" stroke-linecap="butt" stroke-linejoin="round" stroke-miterlimit="10" stroke-opacity="1" fill="none" fill-rule="evenodd"/><g><text fill="#FFFFFF" fill-opacity="1" font-family="Helvetica Neue,Helvetica Neue_MSFontService,sans-serif" font-style="normal" font-variant="normal" font-weight="700" font-stretch="normal" font-size="83" text-anchor="start" direction="ltr" writing-mode="lr-tb" unicode-bidi="normal" text-decoration="none" transform="matrix(1 0 0 1 681.762 618)">Nome</text></g><g><text fill="#FFFFFF" fill-opacity="1" font-family="Helvetica Neue,Helvetica Neue_MSFontService,sans-serif" font-style="normal" font-variant="normal" font-weight="700" font-stretch="normal" font-size="83" text-anchor="start" direction="ltr" writing-mode="lr-tb" unicode-bidi="normal" text-decoration="none" transform="matrix(1 0 0 1 134.855 618)">Cidade</text></g><g><text fill="#202A32" fill-opacity="1" font-family="Helvetica Neue,Helvetica Neue_MSFontService,sans-serif" font-style="normal" font-variant="normal" font-weight="400" font-stretch="normal" font-size="83" text-anchor="start" direction="ltr" writing-mode="lr-tb" unicode-bidi="normal" text-decoration="none" transform="matrix(1 0 0 1 681.762 752)">A</text></g><g><text fill="#202A32" fill-opacity="1" font-family="Helvetica Neue,Helvetica Neue_MSFontService,sans-serif" font-style="normal" font-variant="normal" font-weight="400" font-stretch="normal" font-size="83" text-anchor="start" direction="ltr" writing-mode="lr-tb" unicode-bidi="normal" text-decoration="none" transform="matrix(1 0 0 1 134.855 752)">Curitiba</text></g><g><text fill="#202A32" fill-opacity="1" font-family="Helvetica Neue,Helvetica Neue_MSFontService,sans-serif" font-style="normal" font-variant="normal" font-weight="400" font-stretch="normal" font-size="83" text-anchor="start" direction="ltr" writing-mode="lr-tb" unicode-bidi="normal" text-decoration="none" transform="matrix(1 0 0 1 681.762 886)">B</text></g><g><text fill="#202A32" fill-opacity="1" font-family="Helvetica Neue,Helvetica Neue_MSFontService,sans-serif" font-style="normal" font-variant="normal" font-weight="400" font-stretch="normal" font-size="83" text-anchor="start" direction="ltr" writing-mode="lr-tb" unicode-bidi="normal" text-decoration="none" transform="matrix(1 0 0 1 134.855 886)">São Paulo</text></g><g><text fill="#202A32" fill-opacity="1" font-family="Helvetica Neue,Helvetica Neue_MSFontService,sans-serif" font-style="normal" font-variant="normal" font-weight="400" font-stretch="normal" font-size="83" text-anchor="start" direction="ltr" writing-mode="lr-tb" unicode-bidi="normal" text-decoration="none" transform="matrix(1 0 0 1 681.762 1020)">C</text></g><g><text fill="#202A32" fill-opacity="1" font-family="Helvetica Neue,Helvetica Neue_MSFontService,sans-serif" font-style="normal" font-variant="normal" font-weight="400" font-stretch="normal" font-size="83" text-anchor="start" direction="ltr" writing-mode="lr-tb" unicode-bidi="normal" text-decoration="none" transform="matrix(1 0 0 1 134.855 1020)">Manaus</text></g><g><text fill="#202A32" fill-opacity="1" font-family="Helvetica Neue,Helvetica Neue_MSFontService,sans-serif" font-style="normal" font-variant="normal" font-weight="400" font-stretch="normal" font-size="83" text-anchor="start" direction="ltr" writing-mode="lr-tb" unicode-bidi="normal" text-decoration="none" transform="matrix(1 0 0 1 681.762 1154)">D</text></g><g><text fill="#202A32" fill-opacity="1" font-family="Helvetica Neue,Helvetica Neue_MSFontService,sans-serif" font-style="normal" font-variant="normal" font-weight="400" font-stretch="normal" font-size="83" text-anchor="start" direction="ltr" writing-mode="lr-tb" unicode-bidi="normal" text-decoration="none" transform="matrix(1 0 0 1 134.855 1154)">Natal</text></g><g><text fill="#202A32" fill-opacity="1" font-family="Helvetica Neue,Helvetica Neue_MSFontService,sans-serif" font-style="normal" font-variant="normal" font-weight="400" font-stretch="normal" font-size="83" text-anchor="start" direction="ltr" writing-mode="lr-tb" unicode-bidi="normal" text-decoration="none" transform="matrix(1 0 0 1 681.762 1287)">E</text></g><g><text fill="#202A32" fill-opacity="1" font-family="Helvetica Neue,Helvetica Neue_MSFontService,sans-serif" font-style="normal" font-variant="normal" font-weight="400" font-stretch="normal" font-size="83" text-anchor="start" direction="ltr" writing-mode="lr-tb" unicode-bidi="normal" text-decoration="none" transform="matrix(1 0 0 1 134.855 1287)">Porto Alegre</text></g><g><text fill="#202A32" fill-opacity="1" font-family="Helvetica Neue,Helvetica Neue_MSFontService,sans-serif" font-style="normal" font-variant="normal" font-weight="400" font-stretch="normal" font-size="83" text-anchor="start" direction="ltr" writing-mode="lr-tb" unicode-bidi="normal" text-decoration="none" transform="matrix(1 0 0 1 681.762 1421)">F</text></g><g><text fill="#202A32" fill-opacity="1" font-family="Helvetica Neue,Helvetica Neue_MSFontService,sans-serif" font-style="normal" font-variant="normal" font-weight="400" font-stretch="normal" font-size="83" text-anchor="start" direction="ltr" writing-mode="lr-tb" unicode-bidi="normal" text-decoration="none" transform="matrix(1 0 0 1 134.855 1421)">Araucária</text></g><text fill="#202A32" fill-opacity="1" font-family="Helvetica Neue,Helvetica Neue_MSFontService,sans-serif" font-style="normal" font-variant="normal" font-weight="400" font-stretch="normal" font-size="110" text-anchor="start" direction="ltr" writing-mode="lr-tb" unicode-bidi="normal" text-decoration="none" transform="matrix(1 0 0 1 280.5 381)">Tabela</text><text fill="#202A32" fill-opacity="1" font-family="Helvetica Neue,Helvetica Neue_MSFontService,sans-serif" font-style="normal" font-variant="normal" font-weight="400" font-stretch="normal" font-size="110" text-anchor="start" direction="ltr" writing-mode="lr-tb" unicode-bidi="normal" text-decoration="none" transform="matrix(1 0 0 1 628.65 381)">A</text><text fill="#202A32" fill-opacity="1" font-family="Helvetica Neue,Helvetica Neue_MSFontService,sans-serif" font-style="normal" font-variant="normal" font-weight="400" font-stretch="normal" font-size="110" text-anchor="start" direction="ltr" writing-mode="lr-tb" unicode-bidi="normal" text-decoration="none" transform="matrix(1 0 0 1 1568.22 381)">Tabela</text><text fill="#202A32" fill-opacity="1" font-family="Helvetica Neue,Helvetica Neue_MSFontService,sans-serif" font-style="normal" font-variant="normal" font-weight="400" font-stretch="normal" font-size="110" text-anchor="start" direction="ltr" writing-mode="lr-tb" unicode-bidi="normal" text-decoration="none" transform="matrix(1 0 0 1 1916.37 381)">B</text><text fill="#202A32" fill-opacity="1" font-family="Helvetica Neue,Helvetica Neue_MSFontService,sans-serif" font-style="normal" font-variant="normal" font-weight="400" font-stretch="normal" font-size="110" text-anchor="start" direction="ltr" writing-mode="lr-tb" unicode-bidi="normal" text-decoration="none" transform="matrix(1 0 0 1 2860.57 398)">full_</text><text fill="#202A32" fill-opacity="1" font-family="Helvetica Neue,Helvetica Neue_MSFontService,sans-serif" font-style="normal" font-variant="normal" font-weight="400" font-stretch="normal" font-size="110" text-anchor="start" direction="ltr" writing-mode="lr-tb" unicode-bidi="normal" text-decoration="none" transform="matrix(1 0 0 1 3058.8 398)">join</text><text fill="#202A32" fill-opacity="1" font-family="Helvetica Neue,Helvetica Neue_MSFontService,sans-serif" font-style="normal" font-variant="normal" font-weight="400" font-stretch="normal" font-size="110" text-anchor="start" direction="ltr" writing-mode="lr-tb" unicode-bidi="normal" text-decoration="none" transform="matrix(1 0 0 1 3262.76 398)">(A , B, by = “</text><text fill="#202A32" fill-opacity="1" font-family="Helvetica Neue,Helvetica Neue_MSFontService,sans-serif" font-style="normal" font-variant="normal" font-weight="400" font-stretch="normal" font-size="110" text-anchor="start" direction="ltr" writing-mode="lr-tb" unicode-bidi="normal" text-decoration="none" transform="matrix(1 0 0 1 3883.8 398)">Cidade</text><text fill="#202A32" fill-opacity="1" font-family="Helvetica Neue,Helvetica Neue_MSFontService,sans-serif" font-style="normal" font-variant="normal" font-weight="400" font-stretch="normal" font-size="110" text-anchor="start" direction="ltr" writing-mode="lr-tb" unicode-bidi="normal" text-decoration="none" transform="matrix(1 0 0 1 4236.72 398)">”)</text><path d="M1462.75 520.667 2009.65 520.667 2009.65 654.5 1462.75 654.5Z" fill="#59C3BB" fill-rule="evenodd" fill-opacity="1"/><path d="M2009.65 520.667 2373.57 520.667 2373.57 654.5 2009.65 654.5Z" fill="#59C3BB" fill-rule="evenodd" fill-opacity="1"/><path d="M1462.75 654.5 2009.65 654.5 2009.65 788.333 1462.75 788.333Z" fill="#E09FB9" fill-rule="evenodd" fill-opacity="1"/><path d="M2009.65 654.5 2373.57 654.5 2373.57 788.333 2009.65 788.333Z" fill="#EAF5F3" fill-rule="evenodd" fill-opacity="1"/><path d="M1462.75 788.333 2009.65 788.333 2009.65 922.167 1462.75 922.167Z" fill="#DEF3F1" fill-rule="evenodd" fill-opacity="1"/><path d="M2009.65 788.333 2373.57 788.333 2373.57 922.167 2009.65 922.167Z" fill="#EAF5F3" fill-rule="evenodd" fill-opacity="1"/><path d="M1462.75 922.167 2009.65 922.167 2009.65 1056 1462.75 1056Z" fill="#EDE7E9" fill-rule="evenodd" fill-opacity="1"/><path d="M2009.65 922.167 2373.57 922.167 2373.57 1056 2009.65 1056Z" fill="#EAF5F3" fill-rule="evenodd" fill-opacity="1"/><path d="M1462.75 1056 2009.65 1056 2009.65 1189.83 1462.75 1189.83Z" fill="#D06F96" fill-rule="evenodd" fill-opacity="1"/><path d="M2009.65 1056 2373.57 1056 2373.57 1189.83 2009.65 1189.83Z" fill="#EAF5F3" fill-rule="evenodd" fill-opacity="1"/><path d="M1462.75 1189.83 2009.65 1189.83 2009.65 1323.67 1462.75 1323.67Z" fill="#6DD9D1" fill-rule="evenodd" fill-opacity="1"/><path d="M2009.65 1189.83 2373.57 1189.83 2373.57 1323.67 2009.65 1323.67Z" fill="#EAF5F3" fill-rule="evenodd" fill-opacity="1"/><path d="M1462.75 1323.67 2009.65 1323.67 2009.65 1457.5 1462.75 1457.5Z" fill="#7C97AB" fill-rule="evenodd" fill-opacity="1"/><path d="M2009.65 1323.67 2373.57 1323.67 2373.57 1457.5 2009.65 1457.5Z" fill="#EAF5F3" fill-rule="evenodd" fill-opacity="1"/><path d="M2009.65 518.375 2009.65 1459.79" stroke="#FFFFFF" stroke-width="4.58333" stroke-linecap="butt" stroke-linejoin="round" stroke-miterlimit="10" stroke-opacity="1" fill="none" fill-rule="evenodd"/><path d="M1460.46 654.5 2375.86 654.5" stroke="#FFFFFF" stroke-width="13.75" stroke-linecap="butt" stroke-linejoin="round" stroke-miterlimit="10" stroke-opacity="1" fill="none" fill-rule="evenodd"/><path d="M1460.46 788.333 2375.86 788.333" stroke="#FFFFFF" stroke-width="4.58333" stroke-linecap="butt" stroke-linejoin="round" stroke-miterlimit="10" stroke-opacity="1" fill="none" fill-rule="evenodd"/><path d="M1460.46 922.167 2375.86 922.167" stroke="#FFFFFF" stroke-width="4.58333" stroke-linecap="butt" stroke-linejoin="round" stroke-miterlimit="10" stroke-opacity="1" fill="none" fill-rule="evenodd"/><path d="M1460.46 1056 2375.86 1056" stroke="#FFFFFF" stroke-width="4.58333" stroke-linecap="butt" stroke-linejoin="round" stroke-miterlimit="10" stroke-opacity="1" fill="none" fill-rule="evenodd"/><path d="M1460.46 1189.83 2375.86 1189.83" stroke="#FFFFFF" stroke-width="4.58333" stroke-linecap="butt" stroke-linejoin="round" stroke-miterlimit="10" stroke-opacity="1" fill="none" fill-rule="evenodd"/><path d="M1460.46 1323.67 2375.86 1323.67" stroke="#FFFFFF" stroke-width="4.58333" stroke-linecap="butt" stroke-linejoin="round" stroke-miterlimit="10" stroke-opacity="1" fill="none" fill-rule="evenodd"/><path d="M1462.75 518.375 1462.75 1459.79" stroke="#FFFFFF" stroke-width="4.58333" stroke-linecap="butt" stroke-linejoin="round" stroke-miterlimit="10" stroke-opacity="1" fill="none" fill-rule="evenodd"/><path d="M2373.57 518.375 2373.57 1459.79" stroke="#FFFFFF" stroke-width="4.58333" stroke-linecap="butt" stroke-linejoin="round" stroke-miterlimit="10" stroke-opacity="1" fill="none" fill-rule="evenodd"/><path d="M1460.46 520.667 2375.86 520.667" stroke="#FFFFFF" stroke-width="4.58333" stroke-linecap="butt" stroke-linejoin="round" stroke-miterlimit="10" stroke-opacity="1" fill="none" fill-rule="evenodd"/><path d="M1460.46 1457.5 2375.86 1457.5" stroke="#FFFFFF" stroke-width="4.58333" stroke-linecap="butt" stroke-linejoin="round" stroke-miterlimit="10" stroke-opacity="1" fill="none" fill-rule="evenodd"/><g><text fill="#FFFFFF" fill-opacity="1" font-family="Helvetica Neue,Helvetica Neue_MSFontService,sans-serif" font-style="normal" font-variant="normal" font-weight="700" font-stretch="normal" font-size="83" text-anchor="start" direction="ltr" writing-mode="lr-tb" unicode-bidi="normal" text-decoration="none" transform="matrix(1 0 0 1 2042.65 618)">Estado</text></g><g><text fill="#FFFFFF" fill-opacity="1" font-family="Helvetica Neue,Helvetica Neue_MSFontService,sans-serif" font-style="normal" font-variant="normal" font-weight="700" font-stretch="normal" font-size="83" text-anchor="start" direction="ltr" writing-mode="lr-tb" unicode-bidi="normal" text-decoration="none" transform="matrix(1 0 0 1 1495.75 618)">Cidade</text></g><g><text fill="#202A32" fill-opacity="1" font-family="Helvetica Neue,Helvetica Neue_MSFontService,sans-serif" font-style="normal" font-variant="normal" font-weight="400" font-stretch="normal" font-size="83" text-anchor="start" direction="ltr" writing-mode="lr-tb" unicode-bidi="normal" text-decoration="none" transform="matrix(1 0 0 1 2042.65 752)">P</text></g><text fill="#202A32" fill-opacity="1" font-family="Helvetica Neue,Helvetica Neue_MSFontService,sans-serif" font-style="normal" font-variant="normal" font-weight="400" font-stretch="normal" font-size="83" text-anchor="start" direction="ltr" writing-mode="lr-tb" unicode-bidi="normal" text-decoration="none" transform="matrix(1 0 0 1 2095.94 752)">R</text><g><text fill="#202A32" fill-opacity="1" font-family="Helvetica Neue,Helvetica Neue_MSFontService,sans-serif" font-style="normal" font-variant="normal" font-weight="400" font-stretch="normal" font-size="83" text-anchor="start" direction="ltr" writing-mode="lr-tb" unicode-bidi="normal" text-decoration="none" transform="matrix(1 0 0 1 1495.75 752)">Curitiba</text></g><g><text fill="#202A32" fill-opacity="1" font-family="Helvetica Neue,Helvetica Neue_MSFontService,sans-serif" font-style="normal" font-variant="normal" font-weight="400" font-stretch="normal" font-size="83" text-anchor="start" direction="ltr" writing-mode="lr-tb" unicode-bidi="normal" text-decoration="none" transform="matrix(1 0 0 1 2042.65 886)">S</text></g><text fill="#202A32" fill-opacity="1" font-family="Helvetica Neue,Helvetica Neue_MSFontService,sans-serif" font-style="normal" font-variant="normal" font-weight="400" font-stretch="normal" font-size="83" text-anchor="start" direction="ltr" writing-mode="lr-tb" unicode-bidi="normal" text-decoration="none" transform="matrix(1 0 0 1 2095.94 886)">P</text><g><text fill="#202A32" fill-opacity="1" font-family="Helvetica Neue,Helvetica Neue_MSFontService,sans-serif" font-style="normal" font-variant="normal" font-weight="400" font-stretch="normal" font-size="83" text-anchor="start" direction="ltr" writing-mode="lr-tb" unicode-bidi="normal" text-decoration="none" transform="matrix(1 0 0 1 1495.75 886)">São Paulo</text></g><g><text fill="#202A32" fill-opacity="1" font-family="Helvetica Neue,Helvetica Neue_MSFontService,sans-serif" font-style="normal" font-variant="normal" font-weight="400" font-stretch="normal" font-size="83" text-anchor="start" direction="ltr" writing-mode="lr-tb" unicode-bidi="normal" text-decoration="none" transform="matrix(1 0 0 1 2042.65 1020)">A</text></g><text fill="#202A32" fill-opacity="1" font-family="Helvetica Neue,Helvetica Neue_MSFontService,sans-serif" font-style="normal" font-variant="normal" font-weight="400" font-stretch="normal" font-size="83" text-anchor="start" direction="ltr" writing-mode="lr-tb" unicode-bidi="normal" text-decoration="none" transform="matrix(1 0 0 1 2095.94 1020)">M</text><g><text fill="#202A32" fill-opacity="1" font-family="Helvetica Neue,Helvetica Neue_MSFontService,sans-serif" font-style="normal" font-variant="normal" font-weight="400" font-stretch="normal" font-size="83" text-anchor="start" direction="ltr" writing-mode="lr-tb" unicode-bidi="normal" text-decoration="none" transform="matrix(1 0 0 1 1495.75 1020)">Manaus</text></g><g><text fill="#202A32" fill-opacity="1" font-family="Helvetica Neue,Helvetica Neue_MSFontService,sans-serif" font-style="normal" font-variant="normal" font-weight="400" font-stretch="normal" font-size="83" text-anchor="start" direction="ltr" writing-mode="lr-tb" unicode-bidi="normal" text-decoration="none" transform="matrix(1 0 0 1 2042.65 1154)">R</text></g><text fill="#202A32" fill-opacity="1" font-family="Helvetica Neue,Helvetica Neue_MSFontService,sans-serif" font-style="normal" font-variant="normal" font-weight="400" font-stretch="normal" font-size="83" text-anchor="start" direction="ltr" writing-mode="lr-tb" unicode-bidi="normal" text-decoration="none" transform="matrix(1 0 0 1 2099.37 1154)">N</text><g><text fill="#202A32" fill-opacity="1" font-family="Helvetica Neue,Helvetica Neue_MSFontService,sans-serif" font-style="normal" font-variant="normal" font-weight="400" font-stretch="normal" font-size="83" text-anchor="start" direction="ltr" writing-mode="lr-tb" unicode-bidi="normal" text-decoration="none" transform="matrix(1 0 0 1 1495.75 1154)">Natal</text></g><g><text fill="#202A32" fill-opacity="1" font-family="Helvetica Neue,Helvetica Neue_MSFontService,sans-serif" font-style="normal" font-variant="normal" font-weight="400" font-stretch="normal" font-size="83" text-anchor="start" direction="ltr" writing-mode="lr-tb" unicode-bidi="normal" text-decoration="none" transform="matrix(1 0 0 1 2042.65 1287)">R</text></g><text fill="#202A32" fill-opacity="1" font-family="Helvetica Neue,Helvetica Neue_MSFontService,sans-serif" font-style="normal" font-variant="normal" font-weight="400" font-stretch="normal" font-size="83" text-anchor="start" direction="ltr" writing-mode="lr-tb" unicode-bidi="normal" text-decoration="none" transform="matrix(1 0 0 1 2099.37 1287)">S</text><g><text fill="#202A32" fill-opacity="1" font-family="Helvetica Neue,Helvetica Neue_MSFontService,sans-serif" font-style="normal" font-variant="normal" font-weight="400" font-stretch="normal" font-size="83" text-anchor="start" direction="ltr" writing-mode="lr-tb" unicode-bidi="normal" text-decoration="none" transform="matrix(1 0 0 1 1495.75 1287)">Porto Alegre</text></g><g><text fill="#202A32" fill-opacity="1" font-family="Helvetica Neue,Helvetica Neue_MSFontService,sans-serif" font-style="normal" font-variant="normal" font-weight="400" font-stretch="normal" font-size="83" text-anchor="start" direction="ltr" writing-mode="lr-tb" unicode-bidi="normal" text-decoration="none" transform="matrix(1 0 0 1 2042.65 1421)">C</text></g><text fill="#202A32" fill-opacity="1" font-family="Helvetica Neue,Helvetica Neue_MSFontService,sans-serif" font-style="normal" font-variant="normal" font-weight="400" font-stretch="normal" font-size="83" text-anchor="start" direction="ltr" writing-mode="lr-tb" unicode-bidi="normal" text-decoration="none" transform="matrix(1 0 0 1 2102.24 1421)">E</text><g><text fill="#202A32" fill-opacity="1" font-family="Helvetica Neue,Helvetica Neue_MSFontService,sans-serif" font-style="normal" font-variant="normal" font-weight="400" font-stretch="normal" font-size="83" text-anchor="start" direction="ltr" writing-mode="lr-tb" unicode-bidi="normal" text-decoration="none" transform="matrix(1 0 0 1 1495.75 1421)">Fortaleza</text></g><path d="M2961.86 520.667 3508.76 520.667 3508.76 654.5 2961.86 654.5Z" fill="#59C3BB" fill-rule="evenodd" fill-opacity="1"/><path d="M3508.76 520.667 3831.43 520.667 3831.43 654.5 3508.76 654.5Z" fill="#59C3BB" fill-rule="evenodd" fill-opacity="1"/><path d="M3831.43 520.667 4235 520.667 4235 654.5 3831.43 654.5Z" fill="#59C3BB" fill-rule="evenodd" fill-opacity="1"/><path d="M2961.86 654.5 3508.76 654.5 3508.76 788.333 2961.86 788.333Z" fill="#E09FB9" fill-rule="evenodd" fill-opacity="1"/><path d="M3508.76 654.5 3831.43 654.5 3831.43 788.333 3508.76 788.333Z" fill="#EAF5F3" fill-rule="evenodd" fill-opacity="1"/><path d="M3831.43 654.5 4235 654.5 4235 788.333 3831.43 788.333Z" fill="#EAF5F3" fill-rule="evenodd" fill-opacity="1"/><path d="M2961.86 788.333 3508.76 788.333 3508.76 922.167 2961.86 922.167Z" fill="#DEF3F1" fill-rule="evenodd" fill-opacity="1"/><path d="M3508.76 788.333 3831.43 788.333 3831.43 922.167 3508.76 922.167Z" fill="#EAF5F3" fill-rule="evenodd" fill-opacity="1"/><path d="M3831.43 788.333 4235 788.333 4235 922.167 3831.43 922.167Z" fill="#EAF5F3" fill-rule="evenodd" fill-opacity="1"/><path d="M2961.86 922.167 3508.76 922.167 3508.76 1056 2961.86 1056Z" fill="#EDE7E9" fill-rule="evenodd" fill-opacity="1"/><path d="M3508.76 922.167 3831.43 922.167 3831.43 1056 3508.76 1056Z" fill="#EAF5F3" fill-rule="evenodd" fill-opacity="1"/><path d="M3831.43 922.167 4235 922.167 4235 1056 3831.43 1056Z" fill="#EAF5F3" fill-rule="evenodd" fill-opacity="1"/><path d="M2961.86 1056 3508.76 1056 3508.76 1189.83 2961.86 1189.83Z" fill="#D06F96" fill-rule="evenodd" fill-opacity="1"/><path d="M3508.76 1056 3831.43 1056 3831.43 1189.83 3508.76 1189.83Z" fill="#EAF5F3" fill-rule="evenodd" fill-opacity="1"/><path d="M3831.43 1056 4235 1056 4235 1189.83 3831.43 1189.83Z" fill="#EAF5F3" fill-rule="evenodd" fill-opacity="1"/><path d="M2961.86 1189.83 3508.76 1189.83 3508.76 1323.67 2961.86 1323.67Z" fill="#6DD9D1" fill-rule="evenodd" fill-opacity="1"/><path d="M3508.76 1189.83 3831.43 1189.83 3831.43 1323.67 3508.76 1323.67Z" fill="#EAF5F3" fill-rule="evenodd" fill-opacity="1"/><path d="M3831.43 1189.83 4235 1189.83 4235 1323.67 3831.43 1323.67Z" fill="#EAF5F3" fill-rule="evenodd" fill-opacity="1"/><path d="M3508.76 518.375 3508.76 1325.96" stroke="#FFFFFF" stroke-width="4.58333" stroke-linecap="butt" stroke-linejoin="round" stroke-miterlimit="10" stroke-opacity="1" fill="none" fill-rule="evenodd"/><path d="M3831.43 518.375 3831.43 1325.96" stroke="#FFFFFF" stroke-width="4.58333" stroke-linecap="butt" stroke-linejoin="round" stroke-miterlimit="10" stroke-opacity="1" fill="none" fill-rule="evenodd"/><path d="M2959.56 654.5 4237.29 654.5" stroke="#FFFFFF" stroke-width="13.75" stroke-linecap="butt" stroke-linejoin="round" stroke-miterlimit="10" stroke-opacity="1" fill="none" fill-rule="evenodd"/><path d="M2959.56 788.333 4237.29 788.333" stroke="#FFFFFF" stroke-width="4.58333" stroke-linecap="butt" stroke-linejoin="round" stroke-miterlimit="10" stroke-opacity="1" fill="none" fill-rule="evenodd"/><path d="M2959.56 922.167 4237.29 922.167" stroke="#FFFFFF" stroke-width="4.58333" stroke-linecap="butt" stroke-linejoin="round" stroke-miterlimit="10" stroke-opacity="1" fill="none" fill-rule="evenodd"/><path d="M2959.56 1056 4237.29 1056" stroke="#FFFFFF" stroke-width="4.58333" stroke-linecap="butt" stroke-linejoin="round" stroke-miterlimit="10" stroke-opacity="1" fill="none" fill-rule="evenodd"/><path d="M2959.56 1189.83 4237.29 1189.83" stroke="#FFFFFF" stroke-width="4.58333" stroke-linecap="butt" stroke-linejoin="round" stroke-miterlimit="10" stroke-opacity="1" fill="none" fill-rule="evenodd"/><path d="M2961.86 518.375 2961.86 1325.96" stroke="#FFFFFF" stroke-width="4.58333" stroke-linecap="butt" stroke-linejoin="round" stroke-miterlimit="10" stroke-opacity="1" fill="none" fill-rule="evenodd"/><path d="M4235 518.375 4235 1325.96" stroke="#FFFFFF" stroke-width="4.58333" stroke-linecap="butt" stroke-linejoin="round" stroke-miterlimit="10" stroke-opacity="1" fill="none" fill-rule="evenodd"/><path d="M2959.56 520.667 4237.29 520.667" stroke="#FFFFFF" stroke-width="4.58333" stroke-linecap="butt" stroke-linejoin="round" stroke-miterlimit="10" stroke-opacity="1" fill="none" fill-rule="evenodd"/><path d="M2959.56 1323.67 4237.29 1323.67" stroke="#FFFFFF" stroke-width="4.58333" stroke-linecap="butt" stroke-linejoin="round" stroke-miterlimit="10" stroke-opacity="1" fill="none" fill-rule="evenodd"/><g><text fill="#FFFFFF" fill-opacity="1" font-family="Helvetica Neue,Helvetica Neue_MSFontService,sans-serif" font-style="normal" font-variant="normal" font-weight="700" font-stretch="normal" font-size="83" text-anchor="start" direction="ltr" writing-mode="lr-tb" unicode-bidi="normal" text-decoration="none" transform="matrix(1 0 0 1 3864.43 618)">Estado</text></g><g><text fill="#FFFFFF" fill-opacity="1" font-family="Helvetica Neue,Helvetica Neue_MSFontService,sans-serif" font-style="normal" font-variant="normal" font-weight="700" font-stretch="normal" font-size="83" text-anchor="start" direction="ltr" writing-mode="lr-tb" unicode-bidi="normal" text-decoration="none" transform="matrix(1 0 0 1 3541.76 618)">Nome</text></g><g><text fill="#FFFFFF" fill-opacity="1" font-family="Helvetica Neue,Helvetica Neue_MSFontService,sans-serif" font-style="normal" font-variant="normal" font-weight="700" font-stretch="normal" font-size="83" text-anchor="start" direction="ltr" writing-mode="lr-tb" unicode-bidi="normal" text-decoration="none" transform="matrix(1 0 0 1 2994.86 618)">Cidade</text></g><g><text fill="#202A32" fill-opacity="1" font-family="Helvetica Neue,Helvetica Neue_MSFontService,sans-serif" font-style="normal" font-variant="normal" font-weight="400" font-stretch="normal" font-size="83" text-anchor="start" direction="ltr" writing-mode="lr-tb" unicode-bidi="normal" text-decoration="none" transform="matrix(1 0 0 1 3864.43 752)">PR</text></g><g><text fill="#202A32" fill-opacity="1" font-family="Helvetica Neue,Helvetica Neue_MSFontService,sans-serif" font-style="normal" font-variant="normal" font-weight="400" font-stretch="normal" font-size="83" text-anchor="start" direction="ltr" writing-mode="lr-tb" unicode-bidi="normal" text-decoration="none" transform="matrix(1 0 0 1 3541.76 752)">A</text></g><g><text fill="#202A32" fill-opacity="1" font-family="Helvetica Neue,Helvetica Neue_MSFontService,sans-serif" font-style="normal" font-variant="normal" font-weight="400" font-stretch="normal" font-size="83" text-anchor="start" direction="ltr" writing-mode="lr-tb" unicode-bidi="normal" text-decoration="none" transform="matrix(1 0 0 1 2994.86 752)">Curitiba</text></g><g><text fill="#202A32" fill-opacity="1" font-family="Helvetica Neue,Helvetica Neue_MSFontService,sans-serif" font-style="normal" font-variant="normal" font-weight="400" font-stretch="normal" font-size="83" text-anchor="start" direction="ltr" writing-mode="lr-tb" unicode-bidi="normal" text-decoration="none" transform="matrix(1 0 0 1 3864.43 886)">SP</text></g><g><text fill="#202A32" fill-opacity="1" font-family="Helvetica Neue,Helvetica Neue_MSFontService,sans-serif" font-style="normal" font-variant="normal" font-weight="400" font-stretch="normal" font-size="83" text-anchor="start" direction="ltr" writing-mode="lr-tb" unicode-bidi="normal" text-decoration="none" transform="matrix(1 0 0 1 3541.76 886)">B</text></g><g><text fill="#202A32" fill-opacity="1" font-family="Helvetica Neue,Helvetica Neue_MSFontService,sans-serif" font-style="normal" font-variant="normal" font-weight="400" font-stretch="normal" font-size="83" text-anchor="start" direction="ltr" writing-mode="lr-tb" unicode-bidi="normal" text-decoration="none" transform="matrix(1 0 0 1 2994.86 886)">São Paulo</text></g><g><text fill="#202A32" fill-opacity="1" font-family="Helvetica Neue,Helvetica Neue_MSFontService,sans-serif" font-style="normal" font-variant="normal" font-weight="400" font-stretch="normal" font-size="83" text-anchor="start" direction="ltr" writing-mode="lr-tb" unicode-bidi="normal" text-decoration="none" transform="matrix(1 0 0 1 3864.43 1020)">AM</text></g><g><text fill="#202A32" fill-opacity="1" font-family="Helvetica Neue,Helvetica Neue_MSFontService,sans-serif" font-style="normal" font-variant="normal" font-weight="400" font-stretch="normal" font-size="83" text-anchor="start" direction="ltr" writing-mode="lr-tb" unicode-bidi="normal" text-decoration="none" transform="matrix(1 0 0 1 3541.76 1020)">C</text></g><g><text fill="#202A32" fill-opacity="1" font-family="Helvetica Neue,Helvetica Neue_MSFontService,sans-serif" font-style="normal" font-variant="normal" font-weight="400" font-stretch="normal" font-size="83" text-anchor="start" direction="ltr" writing-mode="lr-tb" unicode-bidi="normal" text-decoration="none" transform="matrix(1 0 0 1 2994.86 1020)">Manaus</text></g><g><text fill="#202A32" fill-opacity="1" font-family="Helvetica Neue,Helvetica Neue_MSFontService,sans-serif" font-style="normal" font-variant="normal" font-weight="400" font-stretch="normal" font-size="83" text-anchor="start" direction="ltr" writing-mode="lr-tb" unicode-bidi="normal" text-decoration="none" transform="matrix(1 0 0 1 3864.43 1154)">RN</text></g><g><text fill="#202A32" fill-opacity="1" font-family="Helvetica Neue,Helvetica Neue_MSFontService,sans-serif" font-style="normal" font-variant="normal" font-weight="400" font-stretch="normal" font-size="83" text-anchor="start" direction="ltr" writing-mode="lr-tb" unicode-bidi="normal" text-decoration="none" transform="matrix(1 0 0 1 3541.76 1154)">D</text></g><g><text fill="#202A32" fill-opacity="1" font-family="Helvetica Neue,Helvetica Neue_MSFontService,sans-serif" font-style="normal" font-variant="normal" font-weight="400" font-stretch="normal" font-size="83" text-anchor="start" direction="ltr" writing-mode="lr-tb" unicode-bidi="normal" text-decoration="none" transform="matrix(1 0 0 1 2994.86 1154)">Natal</text></g><g><text fill="#202A32" fill-opacity="1" font-family="Helvetica Neue,Helvetica Neue_MSFontService,sans-serif" font-style="normal" font-variant="normal" font-weight="400" font-stretch="normal" font-size="83" text-anchor="start" direction="ltr" writing-mode="lr-tb" unicode-bidi="normal" text-decoration="none" transform="matrix(1 0 0 1 3864.43 1287)">RS</text></g><g><text fill="#202A32" fill-opacity="1" font-family="Helvetica Neue,Helvetica Neue_MSFontService,sans-serif" font-style="normal" font-variant="normal" font-weight="400" font-stretch="normal" font-size="83" text-anchor="start" direction="ltr" writing-mode="lr-tb" unicode-bidi="normal" text-decoration="none" transform="matrix(1 0 0 1 3541.76 1287)">E</text></g><g><text fill="#202A32" fill-opacity="1" font-family="Helvetica Neue,Helvetica Neue_MSFontService,sans-serif" font-style="normal" font-variant="normal" font-weight="400" font-stretch="normal" font-size="83" text-anchor="start" direction="ltr" writing-mode="lr-tb" unicode-bidi="normal" text-decoration="none" transform="matrix(1 0 0 1 2994.86 1287)">Porto Alegre</text></g></g></g></svg>