<svg width="4262" height="2370" xmlns="http://www.w3.org/2000/svg" xmlns:xlink="http://www.w3.org/1999/xlink" xml:space="preserve" overflow="hidden"><g transform="translate(-142 -91)"><g><path d="M2036.5 2022C2036.5 1786.45 2220.96 1595.5 2448.5 1595.5 2676.04 1595.5 2860.5 1786.45 2860.5 2022 2860.5 2257.55 2676.04 2448.5 2448.5 2448.5 2220.96 2448.5 2036.5 2257.55 2036.5 2022Z" stroke="#912F56" stroke-width="20.625" stroke-linecap="butt" stroke-linejoin="miter" stroke-miterlimit="8" stroke-opacity="1" fill="#EFCFDC" fill-rule="evenodd" fill-opacity="1"/><path d="M2437.98 2026.37 2437.98 2042.63 2451.92 2042.63C2453.19 2042.63 2454.41 2042.51 2455.57 2042.26 2456.74 2042.01 2457.76 2041.6 2458.65 2041.02 2459.53 2040.43 2460.24 2039.65 2460.76 2038.65 2461.29 2037.65 2461.55 2036.38 2461.55 2034.83 2461.55 2031.79 2460.69 2029.62 2458.98 2028.32 2457.26 2027.02 2454.99 2026.37 2452.17 2026.37ZM2437.98 2003.62 2437.98 2017.49 2451.18 2017.49C2453.5 2017.49 2455.41 2016.93 2456.9 2015.83 2458.4 2014.72 2459.14 2012.92 2459.14 2010.43 2459.14 2009.05 2458.89 2007.91 2458.4 2007.03 2457.9 2006.14 2457.23 2005.45 2456.4 2004.95 2455.57 2004.45 2454.62 2004.11 2453.54 2003.91 2452.46 2003.72 2451.34 2003.62 2450.18 2003.62ZM2424.95 1993.5 2452.84 1993.5C2455.66 1993.5 2458.23 1993.75 2460.55 1994.25 2462.88 1994.74 2464.87 1995.56 2466.53 1996.69 2468.19 1997.83 2469.48 1999.34 2470.39 2001.22 2471.3 2003.1 2471.76 2005.42 2471.76 2008.19 2471.76 2011.18 2471.08 2013.67 2469.73 2015.66 2468.37 2017.65 2466.36 2019.28 2463.71 2020.56 2467.36 2021.61 2470.09 2023.45 2471.88 2026.08 2473.68 2028.7 2474.58 2031.87 2474.58 2035.58 2474.58 2038.57 2474 2041.15 2472.84 2043.34 2471.68 2045.53 2470.11 2047.31 2468.15 2048.69 2466.18 2050.08 2463.94 2051.1 2461.43 2051.76 2458.91 2052.43 2456.32 2052.76 2453.67 2052.76L2424.95 2052.76Z" stroke="#912F56" stroke-width="8" stroke-linecap="butt" stroke-linejoin="round" stroke-miterlimit="10" stroke-opacity="1" fill="#E09FB9" fill-rule="evenodd" fill-opacity="1"/><text fill="#000000" fill-opacity="0" font-family="Arial,Arial_MSFontService,sans-serif" font-size="59.262" direction="ltr" writing-mode="lr-tb" x="2424.95" y="2045.35">B</text><path d="M1534.5 2022C1534.5 1786.45 1718.96 1595.5 1946.5 1595.5 2174.04 1595.5 2358.5 1786.45 2358.5 2022 2358.5 2257.55 2174.04 2448.5 1946.5 2448.5 1718.96 2448.5 1534.5 2257.55 1534.5 2022Z" stroke="#912F56" stroke-width="20.625" stroke-linecap="butt" stroke-linejoin="miter" stroke-miterlimit="8" stroke-opacity="1" fill="none" fill-rule="evenodd"/><path d="M1945.77 2008.11 1938.05 2029.85 1953.4 2029.85 1945.93 2008.11ZM1939.29 1993.5 1952.66 1993.5 1974.82 2052.76 1961.29 2052.76 1956.81 2039.56 1934.65 2039.56 1930 2052.76 1916.88 2052.76Z" stroke="#912F56" stroke-width="8" stroke-linecap="butt" stroke-linejoin="round" stroke-miterlimit="10" stroke-opacity="1" fill="#E09FB9" fill-rule="evenodd" fill-opacity="1"/><text fill="#000000" fill-opacity="0" font-family="Arial,Arial_MSFontService,sans-serif" font-size="59.262" direction="ltr" writing-mode="lr-tb" x="1916.88" y="2045.35">A</text><path d="M147.727 365.357 694.633 365.357 694.633 499.19 147.727 499.19Z" fill="#59C3BB" fill-rule="evenodd" fill-opacity="1"/><path d="M694.633 365.357 1217.13 365.357 1217.13 499.19 694.633 499.19Z" fill="#59C3BB" fill-rule="evenodd" fill-opacity="1"/><path d="M147.727 499.19 694.633 499.19 694.633 633.024 147.727 633.024Z" fill="#E09FB9" fill-rule="evenodd" fill-opacity="1"/><path d="M694.633 499.19 1217.13 499.19 1217.13 633.024 694.633 633.024Z" fill="#EAF5F3" fill-rule="evenodd" fill-opacity="1"/><path d="M147.727 633.024 694.633 633.024 694.633 766.857 147.727 766.857Z" fill="#DEF3F1" fill-rule="evenodd" fill-opacity="1"/><path d="M694.633 633.024 1217.13 633.024 1217.13 766.857 694.633 766.857Z" fill="#EAF5F3" fill-rule="evenodd" fill-opacity="1"/><path d="M147.727 766.857 694.633 766.857 694.633 900.69 147.727 900.69Z" fill="#EDE7E9" fill-rule="evenodd" fill-opacity="1"/><path d="M694.633 766.857 1217.13 766.857 1217.13 900.69 694.633 900.69Z" fill="#EAF5F3" fill-rule="evenodd" fill-opacity="1"/><path d="M147.727 900.69 694.633 900.69 694.633 1034.52 147.727 1034.52Z" fill="#D06F96" fill-rule="evenodd" fill-opacity="1"/><path d="M694.633 900.69 1217.13 900.69 1217.13 1034.52 694.633 1034.52Z" fill="#EAF5F3" fill-rule="evenodd" fill-opacity="1"/><path d="M147.727 1034.52 694.633 1034.52 694.633 1168.36 147.727 1168.36Z" fill="#6DD9D1" fill-rule="evenodd" fill-opacity="1"/><path d="M694.633 1034.52 1217.13 1034.52 1217.13 1168.36 694.633 1168.36Z" fill="#EAF5F3" fill-rule="evenodd" fill-opacity="1"/><path d="M147.727 1168.36 694.633 1168.36 694.633 1302.19 147.727 1302.19Z" fill="#1BD1FF" fill-rule="evenodd" fill-opacity="1"/><path d="M694.633 1168.36 1217.13 1168.36 1217.13 1302.19 694.633 1302.19Z" fill="#EAF5F3" fill-rule="evenodd" fill-opacity="1"/><path d="M694.633 363.065 694.633 1304.48" stroke="#FFFFFF" stroke-width="4.58333" stroke-linecap="butt" stroke-linejoin="round" stroke-miterlimit="10" stroke-opacity="1" fill="none" fill-rule="evenodd"/><path d="M145.435 499.19 1219.42 499.19" stroke="#FFFFFF" stroke-width="13.75" stroke-linecap="butt" stroke-linejoin="round" stroke-miterlimit="10" stroke-opacity="1" fill="none" fill-rule="evenodd"/><path d="M145.435 633.024 1219.42 633.024" stroke="#FFFFFF" stroke-width="4.58333" stroke-linecap="butt" stroke-linejoin="round" stroke-miterlimit="10" stroke-opacity="1" fill="none" fill-rule="evenodd"/><path d="M145.435 766.857 1219.42 766.857" stroke="#FFFFFF" stroke-width="4.58333" stroke-linecap="butt" stroke-linejoin="round" stroke-miterlimit="10" stroke-opacity="1" fill="none" fill-rule="evenodd"/><path d="M145.435 900.69 1219.42 900.69" stroke="#FFFFFF" stroke-width="4.58333" stroke-linecap="butt" stroke-linejoin="round" stroke-miterlimit="10" stroke-opacity="1" fill="none" fill-rule="evenodd"/><path d="M145.435 1034.52 1219.42 1034.52" stroke="#FFFFFF" stroke-width="4.58333" stroke-linecap="butt" stroke-linejoin="round" stroke-miterlimit="10" stroke-opacity="1" fill="none" fill-rule="evenodd"/><path d="M145.435 1168.36 1219.42 1168.36" stroke="#FFFFFF" stroke-width="4.58333" stroke-linecap="butt" stroke-linejoin="round" stroke-miterlimit="10" stroke-opacity="1" fill="none" fill-rule="evenodd"/><path d="M147.727 363.065 147.727 1304.48" stroke="#FFFFFF" stroke-width="4.58333" stroke-linecap="butt" stroke-linejoin="round" stroke-miterlimit="10" stroke-opacity="1" fill="none" fill-rule="evenodd"/><path d="M1217.13 363.065 1217.13 1304.48" stroke="#FFFFFF" stroke-width="4.58333" stroke-linecap="butt" stroke-linejoin="round" stroke-miterlimit="10" stroke-opacity="1" fill="none" fill-rule="evenodd"/><path d="M145.435 365.357 1219.42 365.357" stroke="#FFFFFF" stroke-width="4.58333" stroke-linecap="butt" stroke-linejoin="round" stroke-miterlimit="10" stroke-opacity="1" fill="none" fill-rule="evenodd"/><path d="M145.435 1302.19 1219.42 1302.19" stroke="#FFFFFF" stroke-width="4.58333" stroke-linecap="butt" stroke-linejoin="round" stroke-miterlimit="10" stroke-opacity="1" fill="none" fill-rule="evenodd"/><g><text fill="#FFFFFF" fill-opacity="1" font-family="Helvetica Neue,Helvetica Neue_MSFontService,sans-serif" font-style="normal" font-variant="normal" font-weight="700" font-stretch="normal" font-size="83" text-anchor="start" direction="ltr" writing-mode="lr-tb" unicode-bidi="normal" text-decoration="none" transform="matrix(1 0 0 1 727.633 463)">Nome</text></g><g><text fill="#FFFFFF" fill-opacity="1" font-family="Helvetica Neue,Helvetica Neue_MSFontService,sans-serif" font-style="normal" font-variant="normal" font-weight="700" font-stretch="normal" font-size="83" text-anchor="start" direction="ltr" writing-mode="lr-tb" unicode-bidi="normal" text-decoration="none" transform="matrix(1 0 0 1 180.727 463)">Cidade</text></g><g><text fill="#202A32" fill-opacity="1" font-family="Helvetica Neue,Helvetica Neue_MSFontService,sans-serif" font-style="normal" font-variant="normal" font-weight="400" font-stretch="normal" font-size="83" text-anchor="start" direction="ltr" writing-mode="lr-tb" unicode-bidi="normal" text-decoration="none" transform="matrix(1 0 0 1 727.633 597)">A</text></g><g><text fill="#202A32" fill-opacity="1" font-family="Helvetica Neue,Helvetica Neue_MSFontService,sans-serif" font-style="normal" font-variant="normal" font-weight="400" font-stretch="normal" font-size="83" text-anchor="start" direction="ltr" writing-mode="lr-tb" unicode-bidi="normal" text-decoration="none" transform="matrix(1 0 0 1 180.727 597)">Curitiba</text></g><g><text fill="#202A32" fill-opacity="1" font-family="Helvetica Neue,Helvetica Neue_MSFontService,sans-serif" font-style="normal" font-variant="normal" font-weight="400" font-stretch="normal" font-size="83" text-anchor="start" direction="ltr" writing-mode="lr-tb" unicode-bidi="normal" text-decoration="none" transform="matrix(1 0 0 1 727.633 731)">B</text></g><g><text fill="#202A32" fill-opacity="1" font-family="Helvetica Neue,Helvetica Neue_MSFontService,sans-serif" font-style="normal" font-variant="normal" font-weight="400" font-stretch="normal" font-size="83" text-anchor="start" direction="ltr" writing-mode="lr-tb" unicode-bidi="normal" text-decoration="none" transform="matrix(1 0 0 1 180.727 731)">São Paulo</text></g><g><text fill="#202A32" fill-opacity="1" font-family="Helvetica Neue,Helvetica Neue_MSFontService,sans-serif" font-style="normal" font-variant="normal" font-weight="400" font-stretch="normal" font-size="83" text-anchor="start" direction="ltr" writing-mode="lr-tb" unicode-bidi="normal" text-decoration="none" transform="matrix(1 0 0 1 727.633 864)">C</text></g><g><text fill="#202A32" fill-opacity="1" font-family="Helvetica Neue,Helvetica Neue_MSFontService,sans-serif" font-style="normal" font-variant="normal" font-weight="400" font-stretch="normal" font-size="83" text-anchor="start" direction="ltr" writing-mode="lr-tb" unicode-bidi="normal" text-decoration="none" transform="matrix(1 0 0 1 180.727 864)">Manaus</text></g><g><text fill="#202A32" fill-opacity="1" font-family="Helvetica Neue,Helvetica Neue_MSFontService,sans-serif" font-style="normal" font-variant="normal" font-weight="400" font-stretch="normal" font-size="83" text-anchor="start" direction="ltr" writing-mode="lr-tb" unicode-bidi="normal" text-decoration="none" transform="matrix(1 0 0 1 727.633 998)">D</text></g><g><text fill="#202A32" fill-opacity="1" font-family="Helvetica Neue,Helvetica Neue_MSFontService,sans-serif" font-style="normal" font-variant="normal" font-weight="400" font-stretch="normal" font-size="83" text-anchor="start" direction="ltr" writing-mode="lr-tb" unicode-bidi="normal" text-decoration="none" transform="matrix(1 0 0 1 180.727 998)">Natal</text></g><g><text fill="#202A32" fill-opacity="1" font-family="Helvetica Neue,Helvetica Neue_MSFontService,sans-serif" font-style="normal" font-variant="normal" font-weight="400" font-stretch="normal" font-size="83" text-anchor="start" direction="ltr" writing-mode="lr-tb" unicode-bidi="normal" text-decoration="none" transform="matrix(1 0 0 1 727.633 1132)">E</text></g><g><text fill="#202A32" fill-opacity="1" font-family="Helvetica Neue,Helvetica Neue_MSFontService,sans-serif" font-style="normal" font-variant="normal" font-weight="400" font-stretch="normal" font-size="83" text-anchor="start" direction="ltr" writing-mode="lr-tb" unicode-bidi="normal" text-decoration="none" transform="matrix(1 0 0 1 180.727 1132)">Porto Alegre</text></g><g><text fill="#202A32" fill-opacity="1" font-family="Helvetica Neue,Helvetica Neue_MSFontService,sans-serif" font-style="normal" font-variant="normal" font-weight="400" font-stretch="normal" font-size="83" text-anchor="start" direction="ltr" writing-mode="lr-tb" unicode-bidi="normal" text-decoration="none" transform="matrix(1 0 0 1 727.633 1266)">F</text></g><g><text fill="#202A32" fill-opacity="1" font-family="Helvetica Neue,Helvetica Neue_MSFontService,sans-serif" font-style="normal" font-variant="normal" font-weight="400" font-stretch="normal" font-size="83" text-anchor="start" direction="ltr" writing-mode="lr-tb" unicode-bidi="normal" text-decoration="none" transform="matrix(1 0 0 1 180.727 1266)">Araucária</text></g><text fill="#202A32" fill-opacity="1" font-family="Helvetica Neue,Helvetica Neue_MSFontService,sans-serif" font-style="normal" font-variant="normal" font-weight="400" font-stretch="normal" font-size="110" text-anchor="start" direction="ltr" writing-mode="lr-tb" unicode-bidi="normal" text-decoration="none" transform="matrix(1 0 0 1 470.465 235)">Tabela</text><text fill="#202A32" fill-opacity="1" font-family="Helvetica Neue,Helvetica Neue_MSFontService,sans-serif" font-style="normal" font-variant="normal" font-weight="400" font-stretch="normal" font-size="110" text-anchor="start" direction="ltr" writing-mode="lr-tb" unicode-bidi="normal" text-decoration="none" transform="matrix(1 0 0 1 818.615 235)">A</text><text fill="#202A32" fill-opacity="1" font-family="Helvetica Neue,Helvetica Neue_MSFontService,sans-serif" font-style="normal" font-variant="normal" font-weight="400" font-stretch="normal" font-size="110" text-anchor="start" direction="ltr" writing-mode="lr-tb" unicode-bidi="normal" text-decoration="none" transform="matrix(1 0 0 1 1854.32 235)">Tabela</text><text fill="#202A32" fill-opacity="1" font-family="Helvetica Neue,Helvetica Neue_MSFontService,sans-serif" font-style="normal" font-variant="normal" font-weight="400" font-stretch="normal" font-size="110" text-anchor="start" direction="ltr" writing-mode="lr-tb" unicode-bidi="normal" text-decoration="none" transform="matrix(1 0 0 1 2202.47 235)">B</text><text fill="#202A32" fill-opacity="1" font-family="Helvetica Neue,Helvetica Neue_MSFontService,sans-serif" font-style="normal" font-variant="normal" font-weight="400" font-stretch="normal" font-size="110" text-anchor="start" direction="ltr" writing-mode="lr-tb" unicode-bidi="normal" text-decoration="none" transform="matrix(1 0 0 1 2805.57 252)">right_</text><text fill="#202A32" fill-opacity="1" font-family="Helvetica Neue,Helvetica Neue_MSFontService,sans-serif" font-style="normal" font-variant="normal" font-weight="400" font-stretch="normal" font-size="110" text-anchor="start" direction="ltr" writing-mode="lr-tb" unicode-bidi="normal" text-decoration="none" transform="matrix(1 0 0 1 3080.57 252)">join</text><text fill="#202A32" fill-opacity="1" font-family="Helvetica Neue,Helvetica Neue_MSFontService,sans-serif" font-style="normal" font-variant="normal" font-weight="400" font-stretch="normal" font-size="110" text-anchor="start" direction="ltr" writing-mode="lr-tb" unicode-bidi="normal" text-decoration="none" transform="matrix(1 0 0 1 3284.53 252)">(A , B, by = “</text><text fill="#202A32" fill-opacity="1" font-family="Helvetica Neue,Helvetica Neue_MSFontService,sans-serif" font-style="normal" font-variant="normal" font-weight="400" font-stretch="normal" font-size="110" text-anchor="start" direction="ltr" writing-mode="lr-tb" unicode-bidi="normal" text-decoration="none" transform="matrix(1 0 0 1 3905.57 252)">Cidade</text><text fill="#202A32" fill-opacity="1" font-family="Helvetica Neue,Helvetica Neue_MSFontService,sans-serif" font-style="normal" font-variant="normal" font-weight="400" font-stretch="normal" font-size="110" text-anchor="start" direction="ltr" writing-mode="lr-tb" unicode-bidi="normal" text-decoration="none" transform="matrix(1 0 0 1 4258.49 252)">”)</text><path d="M1533.89 365.357 2080.8 365.357 2080.8 499.19 1533.89 499.19Z" fill="#59C3BB" fill-rule="evenodd" fill-opacity="1"/><path d="M2080.8 365.357 2603.3 365.357 2603.3 499.19 2080.8 499.19Z" fill="#59C3BB" fill-rule="evenodd" fill-opacity="1"/><path d="M1533.89 499.19 2080.8 499.19 2080.8 633.024 1533.89 633.024Z" fill="#E09FB9" fill-rule="evenodd" fill-opacity="1"/><path d="M2080.8 499.19 2603.3 499.19 2603.3 633.024 2080.8 633.024Z" fill="#EAF5F3" fill-rule="evenodd" fill-opacity="1"/><path d="M1533.89 633.024 2080.8 633.024 2080.8 766.857 1533.89 766.857Z" fill="#DEF3F1" fill-rule="evenodd" fill-opacity="1"/><path d="M2080.8 633.024 2603.3 633.024 2603.3 766.857 2080.8 766.857Z" fill="#EAF5F3" fill-rule="evenodd" fill-opacity="1"/><path d="M1533.89 766.857 2080.8 766.857 2080.8 900.69 1533.89 900.69Z" fill="#EDE7E9" fill-rule="evenodd" fill-opacity="1"/><path d="M2080.8 766.857 2603.3 766.857 2603.3 900.69 2080.8 900.69Z" fill="#EAF5F3" fill-rule="evenodd" fill-opacity="1"/><path d="M1533.89 900.69 2080.8 900.69 2080.8 1034.52 1533.89 1034.52Z" fill="#D06F96" fill-rule="evenodd" fill-opacity="1"/><path d="M2080.8 900.69 2603.3 900.69 2603.3 1034.52 2080.8 1034.52Z" fill="#EAF5F3" fill-rule="evenodd" fill-opacity="1"/><path d="M1533.89 1034.52 2080.8 1034.52 2080.8 1168.36 1533.89 1168.36Z" fill="#6DD9D1" fill-rule="evenodd" fill-opacity="1"/><path d="M2080.8 1034.52 2603.3 1034.52 2603.3 1168.36 2080.8 1168.36Z" fill="#EAF5F3" fill-rule="evenodd" fill-opacity="1"/><path d="M1533.89 1168.36 2080.8 1168.36 2080.8 1302.19 1533.89 1302.19Z" fill="#7C97AB" fill-rule="evenodd" fill-opacity="1"/><path d="M2080.8 1168.36 2603.3 1168.36 2603.3 1302.19 2080.8 1302.19Z" fill="#EAF5F3" fill-rule="evenodd" fill-opacity="1"/><path d="M2080.8 363.065 2080.8 1304.48" stroke="#FFFFFF" stroke-width="4.58333" stroke-linecap="butt" stroke-linejoin="round" stroke-miterlimit="10" stroke-opacity="1" fill="none" fill-rule="evenodd"/><path d="M1531.6 499.19 2605.59 499.19" stroke="#FFFFFF" stroke-width="13.75" stroke-linecap="butt" stroke-linejoin="round" stroke-miterlimit="10" stroke-opacity="1" fill="none" fill-rule="evenodd"/><path d="M1531.6 633.024 2605.59 633.024" stroke="#FFFFFF" stroke-width="4.58333" stroke-linecap="butt" stroke-linejoin="round" stroke-miterlimit="10" stroke-opacity="1" fill="none" fill-rule="evenodd"/><path d="M1531.6 766.857 2605.59 766.857" stroke="#FFFFFF" stroke-width="4.58333" stroke-linecap="butt" stroke-linejoin="round" stroke-miterlimit="10" stroke-opacity="1" fill="none" fill-rule="evenodd"/><path d="M1531.6 900.69 2605.59 900.69" stroke="#FFFFFF" stroke-width="4.58333" stroke-linecap="butt" stroke-linejoin="round" stroke-miterlimit="10" stroke-opacity="1" fill="none" fill-rule="evenodd"/><path d="M1531.6 1034.52 2605.59 1034.52" stroke="#FFFFFF" stroke-width="4.58333" stroke-linecap="butt" stroke-linejoin="round" stroke-miterlimit="10" stroke-opacity="1" fill="none" fill-rule="evenodd"/><path d="M1531.6 1168.36 2605.59 1168.36" stroke="#FFFFFF" stroke-width="4.58333" stroke-linecap="butt" stroke-linejoin="round" stroke-miterlimit="10" stroke-opacity="1" fill="none" fill-rule="evenodd"/><path d="M1533.89 363.065 1533.89 1304.48" stroke="#FFFFFF" stroke-width="4.58333" stroke-linecap="butt" stroke-linejoin="round" stroke-miterlimit="10" stroke-opacity="1" fill="none" fill-rule="evenodd"/><path d="M2603.3 363.065 2603.3 1304.48" stroke="#FFFFFF" stroke-width="4.58333" stroke-linecap="butt" stroke-linejoin="round" stroke-miterlimit="10" stroke-opacity="1" fill="none" fill-rule="evenodd"/><path d="M1531.6 365.357 2605.59 365.357" stroke="#FFFFFF" stroke-width="4.58333" stroke-linecap="butt" stroke-linejoin="round" stroke-miterlimit="10" stroke-opacity="1" fill="none" fill-rule="evenodd"/><path d="M1531.6 1302.19 2605.59 1302.19" stroke="#FFFFFF" stroke-width="4.58333" stroke-linecap="butt" stroke-linejoin="round" stroke-miterlimit="10" stroke-opacity="1" fill="none" fill-rule="evenodd"/><g><text fill="#FFFFFF" fill-opacity="1" font-family="Helvetica Neue,Helvetica Neue_MSFontService,sans-serif" font-style="normal" font-variant="normal" font-weight="700" font-stretch="normal" font-size="83" text-anchor="start" direction="ltr" writing-mode="lr-tb" unicode-bidi="normal" text-decoration="none" transform="matrix(1 0 0 1 2113.8 463)">Estado</text></g><g><text fill="#FFFFFF" fill-opacity="1" font-family="Helvetica Neue,Helvetica Neue_MSFontService,sans-serif" font-style="normal" font-variant="normal" font-weight="700" font-stretch="normal" font-size="83" text-anchor="start" direction="ltr" writing-mode="lr-tb" unicode-bidi="normal" text-decoration="none" transform="matrix(1 0 0 1 1566.89 463)">Cidade</text></g><g><text fill="#202A32" fill-opacity="1" font-family="Helvetica Neue,Helvetica Neue_MSFontService,sans-serif" font-style="normal" font-variant="normal" font-weight="400" font-stretch="normal" font-size="83" text-anchor="start" direction="ltr" writing-mode="lr-tb" unicode-bidi="normal" text-decoration="none" transform="matrix(1 0 0 1 2113.8 597)">P</text></g><text fill="#202A32" fill-opacity="1" font-family="Helvetica Neue,Helvetica Neue_MSFontService,sans-serif" font-style="normal" font-variant="normal" font-weight="400" font-stretch="normal" font-size="83" text-anchor="start" direction="ltr" writing-mode="lr-tb" unicode-bidi="normal" text-decoration="none" transform="matrix(1 0 0 1 2167.08 597)">R</text><g><text fill="#202A32" fill-opacity="1" font-family="Helvetica Neue,Helvetica Neue_MSFontService,sans-serif" font-style="normal" font-variant="normal" font-weight="400" font-stretch="normal" font-size="83" text-anchor="start" direction="ltr" writing-mode="lr-tb" unicode-bidi="normal" text-decoration="none" transform="matrix(1 0 0 1 1566.89 597)">Curitiba</text></g><g><text fill="#202A32" fill-opacity="1" font-family="Helvetica Neue,Helvetica Neue_MSFontService,sans-serif" font-style="normal" font-variant="normal" font-weight="400" font-stretch="normal" font-size="83" text-anchor="start" direction="ltr" writing-mode="lr-tb" unicode-bidi="normal" text-decoration="none" transform="matrix(1 0 0 1 2113.8 731)">S</text></g><text fill="#202A32" fill-opacity="1" font-family="Helvetica Neue,Helvetica Neue_MSFontService,sans-serif" font-style="normal" font-variant="normal" font-weight="400" font-stretch="normal" font-size="83" text-anchor="start" direction="ltr" writing-mode="lr-tb" unicode-bidi="normal" text-decoration="none" transform="matrix(1 0 0 1 2167.08 731)">P</text><g><text fill="#202A32" fill-opacity="1" font-family="Helvetica Neue,Helvetica Neue_MSFontService,sans-serif" font-style="normal" font-variant="normal" font-weight="400" font-stretch="normal" font-size="83" text-anchor="start" direction="ltr" writing-mode="lr-tb" unicode-bidi="normal" text-decoration="none" transform="matrix(1 0 0 1 1566.89 731)">São Paulo</text></g><g><text fill="#202A32" fill-opacity="1" font-family="Helvetica Neue,Helvetica Neue_MSFontService,sans-serif" font-style="normal" font-variant="normal" font-weight="400" font-stretch="normal" font-size="83" text-anchor="start" direction="ltr" writing-mode="lr-tb" unicode-bidi="normal" text-decoration="none" transform="matrix(1 0 0 1 2113.8 864)">A</text></g><text fill="#202A32" fill-opacity="1" font-family="Helvetica Neue,Helvetica Neue_MSFontService,sans-serif" font-style="normal" font-variant="normal" font-weight="400" font-stretch="normal" font-size="83" text-anchor="start" direction="ltr" writing-mode="lr-tb" unicode-bidi="normal" text-decoration="none" transform="matrix(1 0 0 1 2167.08 864)">M</text><g><text fill="#202A32" fill-opacity="1" font-family="Helvetica Neue,Helvetica Neue_MSFontService,sans-serif" font-style="normal" font-variant="normal" font-weight="400" font-stretch="normal" font-size="83" text-anchor="start" direction="ltr" writing-mode="lr-tb" unicode-bidi="normal" text-decoration="none" transform="matrix(1 0 0 1 1566.89 864)">Manaus</text></g><g><text fill="#202A32" fill-opacity="1" font-family="Helvetica Neue,Helvetica Neue_MSFontService,sans-serif" font-style="normal" font-variant="normal" font-weight="400" font-stretch="normal" font-size="83" text-anchor="start" direction="ltr" writing-mode="lr-tb" unicode-bidi="normal" text-decoration="none" transform="matrix(1 0 0 1 2113.8 998)">R</text></g><text fill="#202A32" fill-opacity="1" font-family="Helvetica Neue,Helvetica Neue_MSFontService,sans-serif" font-style="normal" font-variant="normal" font-weight="400" font-stretch="normal" font-size="83" text-anchor="start" direction="ltr" writing-mode="lr-tb" unicode-bidi="normal" text-decoration="none" transform="matrix(1 0 0 1 2170.52 998)">N</text><g><text fill="#202A32" fill-opacity="1" font-family="Helvetica Neue,Helvetica Neue_MSFontService,sans-serif" font-style="normal" font-variant="normal" font-weight="400" font-stretch="normal" font-size="83" text-anchor="start" direction="ltr" writing-mode="lr-tb" unicode-bidi="normal" text-decoration="none" transform="matrix(1 0 0 1 1566.89 998)">Natal</text></g><g><text fill="#202A32" fill-opacity="1" font-family="Helvetica Neue,Helvetica Neue_MSFontService,sans-serif" font-style="normal" font-variant="normal" font-weight="400" font-stretch="normal" font-size="83" text-anchor="start" direction="ltr" writing-mode="lr-tb" unicode-bidi="normal" text-decoration="none" transform="matrix(1 0 0 1 2113.8 1132)">R</text></g><text fill="#202A32" fill-opacity="1" font-family="Helvetica Neue,Helvetica Neue_MSFontService,sans-serif" font-style="normal" font-variant="normal" font-weight="400" font-stretch="normal" font-size="83" text-anchor="start" direction="ltr" writing-mode="lr-tb" unicode-bidi="normal" text-decoration="none" transform="matrix(1 0 0 1 2170.52 1132)">S</text><g><text fill="#202A32" fill-opacity="1" font-family="Helvetica Neue,Helvetica Neue_MSFontService,sans-serif" font-style="normal" font-variant="normal" font-weight="400" font-stretch="normal" font-size="83" text-anchor="start" direction="ltr" writing-mode="lr-tb" unicode-bidi="normal" text-decoration="none" transform="matrix(1 0 0 1 1566.89 1132)">Porto Alegre</text></g><g><text fill="#202A32" fill-opacity="1" font-family="Helvetica Neue,Helvetica Neue_MSFontService,sans-serif" font-style="normal" font-variant="normal" font-weight="400" font-stretch="normal" font-size="83" text-anchor="start" direction="ltr" writing-mode="lr-tb" unicode-bidi="normal" text-decoration="none" transform="matrix(1 0 0 1 2113.8 1266)">C</text></g><text fill="#202A32" fill-opacity="1" font-family="Helvetica Neue,Helvetica Neue_MSFontService,sans-serif" font-style="normal" font-variant="normal" font-weight="400" font-stretch="normal" font-size="83" text-anchor="start" direction="ltr" writing-mode="lr-tb" unicode-bidi="normal" text-decoration="none" transform="matrix(1 0 0 1 2173.38 1266)">E</text><g><text fill="#202A32" fill-opacity="1" font-family="Helvetica Neue,Helvetica Neue_MSFontService,sans-serif" font-style="normal" font-variant="normal" font-weight="400" font-stretch="normal" font-size="83" text-anchor="start" direction="ltr" writing-mode="lr-tb" unicode-bidi="normal" text-decoration="none" transform="matrix(1 0 0 1 1566.89 1266)">Fortaleza</text></g><path d="M3027.41 365.357 3601.84 365.357 3601.84 499.19 3027.41 499.19Z" fill="#59C3BB" fill-rule="evenodd" fill-opacity="1"/><path d="M3601.84 365.357 3927.05 365.357 3927.05 499.19 3601.84 499.19Z" fill="#59C3BB" fill-rule="evenodd" fill-opacity="1"/><path d="M3927.05 365.357 4252.27 365.357 4252.27 499.19 3927.05 499.19Z" fill="#59C3BB" fill-rule="evenodd" fill-opacity="1"/><path d="M3027.41 499.19 3601.84 499.19 3601.84 633.024 3027.41 633.024Z" fill="#E09FB9" fill-rule="evenodd" fill-opacity="1"/><path d="M3601.84 499.19 3927.05 499.19 3927.05 633.024 3601.84 633.024Z" fill="#EAF5F3" fill-rule="evenodd" fill-opacity="1"/><path d="M3927.05 499.19 4252.27 499.19 4252.27 633.024 3927.05 633.024Z" fill="#EAF5F3" fill-rule="evenodd" fill-opacity="1"/><path d="M3027.41 633.024 3601.84 633.024 3601.84 766.857 3027.41 766.857Z" fill="#DEF3F1" fill-rule="evenodd" fill-opacity="1"/><path d="M3601.84 633.024 3927.05 633.024 3927.05 766.857 3601.84 766.857Z" fill="#EAF5F3" fill-rule="evenodd" fill-opacity="1"/><path d="M3927.05 633.024 4252.27 633.024 4252.27 766.857 3927.05 766.857Z" fill="#EAF5F3" fill-rule="evenodd" fill-opacity="1"/><path d="M3027.41 766.857 3601.84 766.857 3601.84 900.69 3027.41 900.69Z" fill="#EDE7E9" fill-rule="evenodd" fill-opacity="1"/><path d="M3601.84 766.857 3927.05 766.857 3927.05 900.69 3601.84 900.69Z" fill="#EAF5F3" fill-rule="evenodd" fill-opacity="1"/><path d="M3927.05 766.857 4252.27 766.857 4252.27 900.69 3927.05 900.69Z" fill="#EAF5F3" fill-rule="evenodd" fill-opacity="1"/><path d="M3027.41 900.69 3601.84 900.69 3601.84 1034.52 3027.41 1034.52Z" fill="#D06F96" fill-rule="evenodd" fill-opacity="1"/><path d="M3601.84 900.69 3927.05 900.69 3927.05 1034.52 3601.84 1034.52Z" fill="#EAF5F3" fill-rule="evenodd" fill-opacity="1"/><path d="M3927.05 900.69 4252.27 900.69 4252.27 1034.52 3927.05 1034.52Z" fill="#EAF5F3" fill-rule="evenodd" fill-opacity="1"/><path d="M3027.41 1034.52 3601.84 1034.52 3601.84 1168.36 3027.41 1168.36Z" fill="#6DD9D1" fill-rule="evenodd" fill-opacity="1"/><path d="M3601.84 1034.52 3927.05 1034.52 3927.05 1168.36 3601.84 1168.36Z" fill="#EAF5F3" fill-rule="evenodd" fill-opacity="1"/><path d="M3927.05 1034.52 4252.27 1034.52 4252.27 1168.36 3927.05 1168.36Z" fill="#EAF5F3" fill-rule="evenodd" fill-opacity="1"/><path d="M3027.41 1168.36 3601.84 1168.36 3601.84 1302.19 3027.41 1302.19Z" fill="#7C97AB" fill-rule="evenodd" fill-opacity="1"/><path d="M3601.84 1168.36 3927.05 1168.36 3927.05 1302.19 3601.84 1302.19Z" fill="#EAF5F3" fill-rule="evenodd" fill-opacity="1"/><path d="M3927.05 1168.36 4252.27 1168.36 4252.27 1302.19 3927.05 1302.19Z" fill="#EAF5F3" fill-rule="evenodd" fill-opacity="1"/><path d="M3601.84 363.065 3601.84 1304.48" stroke="#FFFFFF" stroke-width="4.58333" stroke-linecap="butt" stroke-linejoin="round" stroke-miterlimit="10" stroke-opacity="1" fill="none" fill-rule="evenodd"/><path d="M3927.05 363.065 3927.05 1304.48" stroke="#FFFFFF" stroke-width="4.58333" stroke-linecap="butt" stroke-linejoin="round" stroke-miterlimit="10" stroke-opacity="1" fill="none" fill-rule="evenodd"/><path d="M3025.11 499.19 4254.56 499.19" stroke="#FFFFFF" stroke-width="13.75" stroke-linecap="butt" stroke-linejoin="round" stroke-miterlimit="10" stroke-opacity="1" fill="none" fill-rule="evenodd"/><path d="M3025.11 633.024 4254.56 633.024" stroke="#FFFFFF" stroke-width="4.58333" stroke-linecap="butt" stroke-linejoin="round" stroke-miterlimit="10" stroke-opacity="1" fill="none" fill-rule="evenodd"/><path d="M3025.11 766.857 4254.56 766.857" stroke="#FFFFFF" stroke-width="4.58333" stroke-linecap="butt" stroke-linejoin="round" stroke-miterlimit="10" stroke-opacity="1" fill="none" fill-rule="evenodd"/><path d="M3025.11 900.69 4254.56 900.69" stroke="#FFFFFF" stroke-width="4.58333" stroke-linecap="butt" stroke-linejoin="round" stroke-miterlimit="10" stroke-opacity="1" fill="none" fill-rule="evenodd"/><path d="M3025.11 1034.52 4254.56 1034.52" stroke="#FFFFFF" stroke-width="4.58333" stroke-linecap="butt" stroke-linejoin="round" stroke-miterlimit="10" stroke-opacity="1" fill="none" fill-rule="evenodd"/><path d="M3025.11 1168.36 4254.56 1168.36" stroke="#FFFFFF" stroke-width="4.58333" stroke-linecap="butt" stroke-linejoin="round" stroke-miterlimit="10" stroke-opacity="1" fill="none" fill-rule="evenodd"/><path d="M3027.41 363.065 3027.41 1304.48" stroke="#FFFFFF" stroke-width="4.58333" stroke-linecap="butt" stroke-linejoin="round" stroke-miterlimit="10" stroke-opacity="1" fill="none" fill-rule="evenodd"/><path d="M4252.27 363.065 4252.27 1304.48" stroke="#FFFFFF" stroke-width="4.58333" stroke-linecap="butt" stroke-linejoin="round" stroke-miterlimit="10" stroke-opacity="1" fill="none" fill-rule="evenodd"/><path d="M3025.11 365.357 4254.56 365.357" stroke="#FFFFFF" stroke-width="4.58333" stroke-linecap="butt" stroke-linejoin="round" stroke-miterlimit="10" stroke-opacity="1" fill="none" fill-rule="evenodd"/><path d="M3025.11 1302.19 4254.56 1302.19" stroke="#FFFFFF" stroke-width="4.58333" stroke-linecap="butt" stroke-linejoin="round" stroke-miterlimit="10" stroke-opacity="1" fill="none" fill-rule="evenodd"/><g><text fill="#FFFFFF" fill-opacity="1" font-family="Calibri,Calibri_MSFontService,sans-serif" font-style="normal" font-variant="normal" font-weight="700" font-stretch="normal" font-size="83" text-anchor="start" direction="ltr" writing-mode="lr-tb" unicode-bidi="normal" text-decoration="none" transform="matrix(1 0 0 1 3960.05 459)">Estado</text></g><g><text fill="#FFFFFF" fill-opacity="1" font-family="Calibri,Calibri_MSFontService,sans-serif" font-style="normal" font-variant="normal" font-weight="700" font-stretch="normal" font-size="83" text-anchor="start" direction="ltr" writing-mode="lr-tb" unicode-bidi="normal" text-decoration="none" transform="matrix(1 0 0 1 3634.84 459)">Nome</text></g><g><text fill="#FFFFFF" fill-opacity="1" font-family="Calibri,Calibri_MSFontService,sans-serif" font-style="normal" font-variant="normal" font-weight="700" font-stretch="normal" font-size="83" text-anchor="start" direction="ltr" writing-mode="lr-tb" unicode-bidi="normal" text-decoration="none" transform="matrix(1 0 0 1 3060.41 459)">Cidade</text></g><g><text fill="#202A32" fill-opacity="1" font-family="Calibri,Calibri_MSFontService,sans-serif" font-style="normal" font-variant="normal" font-weight="400" font-stretch="normal" font-size="83" text-anchor="start" direction="ltr" writing-mode="lr-tb" unicode-bidi="normal" text-decoration="none" transform="matrix(1 0 0 1 3960.05 593)">PR</text></g><g><text fill="#202A32" fill-opacity="1" font-family="Calibri,Calibri_MSFontService,sans-serif" font-style="normal" font-variant="normal" font-weight="400" font-stretch="normal" font-size="83" text-anchor="start" direction="ltr" writing-mode="lr-tb" unicode-bidi="normal" text-decoration="none" transform="matrix(1 0 0 1 3634.84 593)">A</text></g><g><text fill="#202A32" fill-opacity="1" font-family="Calibri,Calibri_MSFontService,sans-serif" font-style="normal" font-variant="normal" font-weight="400" font-stretch="normal" font-size="83" text-anchor="start" direction="ltr" writing-mode="lr-tb" unicode-bidi="normal" text-decoration="none" transform="matrix(1 0 0 1 3060.41 593)">Curitiba</text></g><g><text fill="#202A32" fill-opacity="1" font-family="Calibri,Calibri_MSFontService,sans-serif" font-style="normal" font-variant="normal" font-weight="400" font-stretch="normal" font-size="83" text-anchor="start" direction="ltr" writing-mode="lr-tb" unicode-bidi="normal" text-decoration="none" transform="matrix(1 0 0 1 3960.05 727)">SP</text></g><g><text fill="#202A32" fill-opacity="1" font-family="Calibri,Calibri_MSFontService,sans-serif" font-style="normal" font-variant="normal" font-weight="400" font-stretch="normal" font-size="83" text-anchor="start" direction="ltr" writing-mode="lr-tb" unicode-bidi="normal" text-decoration="none" transform="matrix(1 0 0 1 3634.84 727)">B</text></g><g><text fill="#202A32" fill-opacity="1" font-family="Calibri,Calibri_MSFontService,sans-serif" font-style="normal" font-variant="normal" font-weight="400" font-stretch="normal" font-size="83" text-anchor="start" direction="ltr" writing-mode="lr-tb" unicode-bidi="normal" text-decoration="none" transform="matrix(1 0 0 1 3060.41 727)">São Paulo</text></g><g><text fill="#202A32" fill-opacity="1" font-family="Calibri,Calibri_MSFontService,sans-serif" font-style="normal" font-variant="normal" font-weight="400" font-stretch="normal" font-size="83" text-anchor="start" direction="ltr" writing-mode="lr-tb" unicode-bidi="normal" text-decoration="none" transform="matrix(1 0 0 1 3960.05 860)">AM</text></g><g><text fill="#202A32" fill-opacity="1" font-family="Calibri,Calibri_MSFontService,sans-serif" font-style="normal" font-variant="normal" font-weight="400" font-stretch="normal" font-size="83" text-anchor="start" direction="ltr" writing-mode="lr-tb" unicode-bidi="normal" text-decoration="none" transform="matrix(1 0 0 1 3634.84 860)">C</text></g><g><text fill="#202A32" fill-opacity="1" font-family="Calibri,Calibri_MSFontService,sans-serif" font-style="normal" font-variant="normal" font-weight="400" font-stretch="normal" font-size="83" text-anchor="start" direction="ltr" writing-mode="lr-tb" unicode-bidi="normal" text-decoration="none" transform="matrix(1 0 0 1 3060.41 860)">Manaus</text></g><g><text fill="#202A32" fill-opacity="1" font-family="Calibri,Calibri_MSFontService,sans-serif" font-style="normal" font-variant="normal" font-weight="400" font-stretch="normal" font-size="83" text-anchor="start" direction="ltr" writing-mode="lr-tb" unicode-bidi="normal" text-decoration="none" transform="matrix(1 0 0 1 3960.05 994)">RN</text></g><g><text fill="#202A32" fill-opacity="1" font-family="Calibri,Calibri_MSFontService,sans-serif" font-style="normal" font-variant="normal" font-weight="400" font-stretch="normal" font-size="83" text-anchor="start" direction="ltr" writing-mode="lr-tb" unicode-bidi="normal" text-decoration="none" transform="matrix(1 0 0 1 3634.84 994)">D</text></g><g><text fill="#202A32" fill-opacity="1" font-family="Calibri,Calibri_MSFontService,sans-serif" font-style="normal" font-variant="normal" font-weight="400" font-stretch="normal" font-size="83" text-anchor="start" direction="ltr" writing-mode="lr-tb" unicode-bidi="normal" text-decoration="none" transform="matrix(1 0 0 1 3060.41 994)">Natal</text></g><g><text fill="#202A32" fill-opacity="1" font-family="Calibri,Calibri_MSFontService,sans-serif" font-style="normal" font-variant="normal" font-weight="400" font-stretch="normal" font-size="83" text-anchor="start" direction="ltr" writing-mode="lr-tb" unicode-bidi="normal" text-decoration="none" transform="matrix(1 0 0 1 3960.05 1128)">RS</text></g><g><text fill="#202A32" fill-opacity="1" font-family="Calibri,Calibri_MSFontService,sans-serif" font-style="normal" font-variant="normal" font-weight="400" font-stretch="normal" font-size="83" text-anchor="start" direction="ltr" writing-mode="lr-tb" unicode-bidi="normal" text-decoration="none" transform="matrix(1 0 0 1 3634.84 1128)">E</text></g><g><text fill="#202A32" fill-opacity="1" font-family="Calibri,Calibri_MSFontService,sans-serif" font-style="normal" font-variant="normal" font-weight="400" font-stretch="normal" font-size="83" text-anchor="start" direction="ltr" writing-mode="lr-tb" unicode-bidi="normal" text-decoration="none" transform="matrix(1 0 0 1 3060.41 1128)">Porto Alegre</text></g><g><text fill="#202A32" fill-opacity="1" font-family="Calibri,Calibri_MSFontService,sans-serif" font-style="normal" font-variant="normal" font-weight="400" font-stretch="normal" font-size="83" text-anchor="start" direction="ltr" writing-mode="lr-tb" unicode-bidi="normal" text-decoration="none" transform="matrix(1 0 0 1 3960.05 1262)">CE</text></g><g><text fill="#FF0000" fill-opacity="1" font-family="Calibri,Calibri_MSFontService,sans-serif" font-style="normal" font-variant="normal" font-weight="700" font-stretch="normal" font-size="83" text-anchor="start" direction="ltr" writing-mode="lr-tb" unicode-bidi="normal" text-decoration="none" transform="matrix(1 0 0 1 3634.84 1262)">N</text></g><text fill="#FF0000" fill-opacity="1" font-family="Calibri,Calibri_MSFontService,sans-serif" font-style="normal" font-variant="normal" font-weight="700" font-stretch="normal" font-size="83" text-anchor="start" direction="ltr" writing-mode="lr-tb" unicode-bidi="normal" text-decoration="none" transform="matrix(1 0 0 1 3689.26 1262)">A</text><g><text fill="#202A32" fill-opacity="1" font-family="Calibri,Calibri_MSFontService,sans-serif" font-style="normal" font-variant="normal" font-weight="400" font-stretch="normal" font-size="83" text-anchor="start" direction="ltr" writing-mode="lr-tb" unicode-bidi="normal" text-decoration="none" transform="matrix(1 0 0 1 3060.41 1262)">Fortaleza</text></g></g></g></svg>