<svg width="2434" height="2214" xmlns="http://www.w3.org/2000/svg" xmlns:xlink="http://www.w3.org/1999/xlink" xml:space="preserve" overflow="hidden"><g transform="translate(-242 -82)"><g><path d="M247.5 137.5 1230.06 137.5 1230.06 485.833 247.5 485.833Z" fill="#59C3BB" fill-rule="evenodd" fill-opacity="1"/><path d="M1230.06 137.5 1946.92 137.5 1946.92 485.833 1230.06 485.833Z" fill="#59C3BB" fill-rule="evenodd" fill-opacity="1"/><path d="M1946.92 137.5 2663.78 137.5 2663.78 485.833 1946.92 485.833Z" fill="#59C3BB" fill-rule="evenodd" fill-opacity="1"/><path d="M247.5 485.833 1230.06 485.833 1230.06 834.167 247.5 834.167Z" fill="#59C3BB" fill-rule="evenodd" fill-opacity="1"/><path d="M1230.06 485.833 1946.92 485.833 1946.92 834.167 1230.06 834.167Z" fill="#D1E9E7" fill-rule="evenodd" fill-opacity="1"/><path d="M1946.92 485.833 2663.78 485.833 2663.78 834.167 1946.92 834.167Z" fill="#D1E9E7" fill-rule="evenodd" fill-opacity="1"/><path d="M247.5 834.167 1230.06 834.167 1230.06 1182.5 247.5 1182.5Z" fill="#59C3BB" fill-rule="evenodd" fill-opacity="1"/><path d="M1230.06 834.167 1946.92 834.167 1946.92 1182.5 1230.06 1182.5Z" fill="#EAF5F3" fill-rule="evenodd" fill-opacity="1"/><path d="M1946.92 834.167 2663.78 834.167 2663.78 1182.5 1946.92 1182.5Z" fill="#EAF5F3" fill-rule="evenodd" fill-opacity="1"/><path d="M247.5 1182.5 1230.06 1182.5 1230.06 1530.83 247.5 1530.83Z" fill="#59C3BB" fill-rule="evenodd" fill-opacity="1"/><path d="M1230.06 1182.5 1946.92 1182.5 1946.92 1530.83 1230.06 1530.83Z" fill="#D1E9E7" fill-rule="evenodd" fill-opacity="1"/><path d="M1946.92 1182.5 2663.78 1182.5 2663.78 1530.83 1946.92 1530.83Z" fill="#D1E9E7" fill-rule="evenodd" fill-opacity="1"/><path d="M247.5 1530.83 1230.06 1530.83 1230.06 1879.17 247.5 1879.17Z" fill="#59C3BB" fill-rule="evenodd" fill-opacity="1"/><path d="M1230.06 1530.83 1946.92 1530.83 1946.92 1879.17 1230.06 1879.17Z" fill="#EAF5F3" fill-rule="evenodd" fill-opacity="1"/><path d="M1946.92 1530.83 2663.78 1530.83 2663.78 1879.17 1946.92 1879.17Z" fill="#EAF5F3" fill-rule="evenodd" fill-opacity="1"/><path d="M247.5 1879.17 1230.06 1879.17 1230.06 2227.5 247.5 2227.5Z" fill="#59C3BB" fill-rule="evenodd" fill-opacity="1"/><path d="M1230.06 1879.17 1946.92 1879.17 1946.92 2227.5 1230.06 2227.5Z" fill="#D1E9E7" fill-rule="evenodd" fill-opacity="1"/><path d="M1946.92 1879.17 2663.78 1879.17 2663.78 2227.5 1946.92 2227.5Z" fill="#D1E9E7" fill-rule="evenodd" fill-opacity="1"/><path d="M1230.06 135.208 1230.06 2229.79" stroke="#FFFFFF" stroke-width="4.58333" stroke-linecap="butt" stroke-linejoin="round" stroke-miterlimit="10" stroke-opacity="1" fill="none" fill-rule="evenodd"/><path d="M1946.92 135.208 1946.92 2229.79" stroke="#FFFFFF" stroke-width="4.58333" stroke-linecap="butt" stroke-linejoin="round" stroke-miterlimit="10" stroke-opacity="1" fill="none" fill-rule="evenodd"/><path d="M245.208 485.833 2666.07 485.833" stroke="#FFFFFF" stroke-width="13.75" stroke-linecap="butt" stroke-linejoin="round" stroke-miterlimit="10" stroke-opacity="1" fill="none" fill-rule="evenodd"/><path d="M245.208 834.167 2666.07 834.167" stroke="#FFFFFF" stroke-width="4.58333" stroke-linecap="butt" stroke-linejoin="round" stroke-miterlimit="10" stroke-opacity="1" fill="none" fill-rule="evenodd"/><path d="M245.208 1182.5 2666.07 1182.5" stroke="#FFFFFF" stroke-width="4.58333" stroke-linecap="butt" stroke-linejoin="round" stroke-miterlimit="10" stroke-opacity="1" fill="none" fill-rule="evenodd"/><path d="M245.208 1530.83 2666.07 1530.83" stroke="#FFFFFF" stroke-width="4.58333" stroke-linecap="butt" stroke-linejoin="round" stroke-miterlimit="10" stroke-opacity="1" fill="none" fill-rule="evenodd"/><path d="M245.208 1879.17 2666.07 1879.17" stroke="#FFFFFF" stroke-width="4.58333" stroke-linecap="butt" stroke-linejoin="round" stroke-miterlimit="10" stroke-opacity="1" fill="none" fill-rule="evenodd"/><path d="M247.5 135.208 247.5 2229.79" stroke="#FFFFFF" stroke-width="4.58333" stroke-linecap="butt" stroke-linejoin="round" stroke-miterlimit="10" stroke-opacity="1" fill="none" fill-rule="evenodd"/><path d="M2663.78 135.208 2663.78 2229.79" stroke="#FFFFFF" stroke-width="4.58333" stroke-linecap="butt" stroke-linejoin="round" stroke-miterlimit="10" stroke-opacity="1" fill="none" fill-rule="evenodd"/><path d="M245.208 137.5 2666.07 137.5" stroke="#FFFFFF" stroke-width="4.58333" stroke-linecap="butt" stroke-linejoin="round" stroke-miterlimit="10" stroke-opacity="1" fill="none" fill-rule="evenodd"/><path d="M245.208 2227.5 2666.07 2227.5" stroke="#FFFFFF" stroke-width="4.58333" stroke-linecap="butt" stroke-linejoin="round" stroke-miterlimit="10" stroke-opacity="1" fill="none" fill-rule="evenodd"/><g><text fill="#FFFFFF" fill-opacity="1" font-family="Calibri,Calibri_MSFontService,sans-serif" font-style="normal" font-variant="normal" font-weight="700" font-stretch="normal" font-size="220" text-anchor="start" direction="ltr" writing-mode="lr-tb" unicode-bidi="normal" text-decoration="none" transform="matrix(1 0 0 1 1979.92 360)">valor</text></g><g><text fill="#FFFFFF" fill-opacity="1" font-family="Calibri,Calibri_MSFontService,sans-serif" font-style="normal" font-variant="normal" font-weight="700" font-stretch="normal" font-size="220" text-anchor="start" direction="ltr" writing-mode="lr-tb" unicode-bidi="normal" text-decoration="none" transform="matrix(1 0 0 1 1263.06 360)">nome</text></g><g><text fill="#FFFFFF" fill-opacity="1" font-family="Calibri,Calibri_MSFontService,sans-serif" font-style="normal" font-variant="normal" font-weight="700" font-stretch="normal" font-size="220" text-anchor="start" direction="ltr" writing-mode="lr-tb" unicode-bidi="normal" text-decoration="none" transform="matrix(1 0 0 1 280.5 360)">ID</text></g><g><text fill="#202A32" fill-opacity="1" font-family="Calibri,Calibri_MSFontService,sans-serif" font-style="normal" font-variant="normal" font-weight="400" font-stretch="normal" font-size="220" text-anchor="start" direction="ltr" writing-mode="lr-tb" unicode-bidi="normal" text-decoration="none" transform="matrix(1 0 0 1 1979.92 708)">1</text></g><g><text fill="#202A32" fill-opacity="1" font-family="Calibri,Calibri_MSFontService,sans-serif" font-style="normal" font-variant="normal" font-weight="400" font-stretch="normal" font-size="220" text-anchor="start" direction="ltr" writing-mode="lr-tb" unicode-bidi="normal" text-decoration="none" transform="matrix(1 0 0 1 1263.06 708)">Var1</text></g><g><text fill="#FFFFFF" fill-opacity="1" font-family="Calibri,Calibri_MSFontService,sans-serif" font-style="normal" font-variant="normal" font-weight="700" font-stretch="normal" font-size="220" text-anchor="start" direction="ltr" writing-mode="lr-tb" unicode-bidi="normal" text-decoration="none" transform="matrix(1 0 0 1 280.5 708)">a</text></g><g><text fill="#202A32" fill-opacity="1" font-family="Calibri,Calibri_MSFontService,sans-serif" font-style="normal" font-variant="normal" font-weight="400" font-stretch="normal" font-size="220" text-anchor="start" direction="ltr" writing-mode="lr-tb" unicode-bidi="normal" text-decoration="none" transform="matrix(1 0 0 1 1979.92 1057)">2</text></g><g><text fill="#202A32" fill-opacity="1" font-family="Calibri,Calibri_MSFontService,sans-serif" font-style="normal" font-variant="normal" font-weight="400" font-stretch="normal" font-size="220" text-anchor="start" direction="ltr" writing-mode="lr-tb" unicode-bidi="normal" text-decoration="none" transform="matrix(1 0 0 1 1263.06 1057)">Var2</text></g><g><text fill="#FFFFFF" fill-opacity="1" font-family="Calibri,Calibri_MSFontService,sans-serif" font-style="normal" font-variant="normal" font-weight="700" font-stretch="normal" font-size="220" text-anchor="start" direction="ltr" writing-mode="lr-tb" unicode-bidi="normal" text-decoration="none" transform="matrix(1 0 0 1 280.5 1057)">a</text></g><g><text fill="#202A32" fill-opacity="1" font-family="Calibri,Calibri_MSFontService,sans-serif" font-style="normal" font-variant="normal" font-weight="400" font-stretch="normal" font-size="220" text-anchor="start" direction="ltr" writing-mode="lr-tb" unicode-bidi="normal" text-decoration="none" transform="matrix(1 0 0 1 1979.92 1405)">3</text></g><g><text fill="#202A32" fill-opacity="1" font-family="Calibri,Calibri_MSFontService,sans-serif" font-style="normal" font-variant="normal" font-weight="400" font-stretch="normal" font-size="220" text-anchor="start" direction="ltr" writing-mode="lr-tb" unicode-bidi="normal" text-decoration="none" transform="matrix(1 0 0 1 1263.06 1405)">Var3</text></g><g><text fill="#FFFFFF" fill-opacity="1" font-family="Calibri,Calibri_MSFontService,sans-serif" font-style="normal" font-variant="normal" font-weight="700" font-stretch="normal" font-size="220" text-anchor="start" direction="ltr" writing-mode="lr-tb" unicode-bidi="normal" text-decoration="none" transform="matrix(1 0 0 1 280.5 1405)">a</text></g><g><text fill="#202A32" fill-opacity="1" font-family="Calibri,Calibri_MSFontService,sans-serif" font-style="normal" font-variant="normal" font-weight="400" font-stretch="normal" font-size="220" text-anchor="start" direction="ltr" writing-mode="lr-tb" unicode-bidi="normal" text-decoration="none" transform="matrix(1 0 0 1 1979.92 1753)">4</text></g><g><text fill="#202A32" fill-opacity="1" font-family="Calibri,Calibri_MSFontService,sans-serif" font-style="normal" font-variant="normal" font-weight="400" font-stretch="normal" font-size="220" text-anchor="start" direction="ltr" writing-mode="lr-tb" unicode-bidi="normal" text-decoration="none" transform="matrix(1 0 0 1 1263.06 1753)">Var4</text></g><g><text fill="#FFFFFF" fill-opacity="1" font-family="Calibri,Calibri_MSFontService,sans-serif" font-style="normal" font-variant="normal" font-weight="700" font-stretch="normal" font-size="220" text-anchor="start" direction="ltr" writing-mode="lr-tb" unicode-bidi="normal" text-decoration="none" transform="matrix(1 0 0 1 280.5 1753)">a</text></g><g><text fill="#FFFFFF" fill-opacity="1" font-family="Calibri,Calibri_MSFontService,sans-serif" font-style="normal" font-variant="normal" font-weight="700" font-stretch="normal" font-size="220" text-anchor="start" direction="ltr" writing-mode="lr-tb" unicode-bidi="normal" text-decoration="none" transform="matrix(1 0 0 1 280.5 2102)">…</text></g></g></g></svg>